<svg width="846" height="802" viewBox="0 0 846 802" fill="none" xmlns="http://www.w3.org/2000/svg">
<path d="M155 420.778L174.529 408.264C194.034 395.766 203.786 389.517 213.147 392.311C222.509 395.106 226.862 405.566 235.568 426.486L299.038 579L384.98 331.188C403.088 278.973 412.143 252.866 433.698 237.933C455.253 223 483.885 223 541.148 223H690" stroke="url(#paint0_linear_54646_9103)" stroke-width="40" stroke-linecap="round" stroke-linejoin="round"/>
<path d="M596 372L531.5 434M531.5 434L467 496M531.5 434L596 496M531.5 434L467 372" stroke="url(#paint1_linear_54646_9103)" stroke-width="40" stroke-linecap="round" stroke-linejoin="round"/>
<path d="M13 328.72L13 185.211C13 90.1013 90.1014 13 185.211 13L304.801 13" stroke="#FAFAFA" stroke-width="26" stroke-linecap="round"/>
<path d="M517.28 13H660.789C755.899 13 833 90.1014 833 185.211V304.801" stroke="#FAFAFA" stroke-width="26" stroke-linecap="round"/>
<path d="M328.72 789L185.211 789C90.1014 789 13 711.899 13 616.789L13 497.199" stroke="#FAFAFA" stroke-width="26" stroke-linecap="round"/>
<path d="M833 473.28L833 616.789C833 711.899 755.899 789 660.789 789L541.199 789" stroke="#FAFAFA" stroke-width="26" stroke-linecap="round"/>
<rect x="13" y="434" width="819" height="32" rx="16" fill="#FAFAFA"/>
<defs>
<linearGradient id="paint0_linear_54646_9103" x1="422.5" y1="223" x2="422.5" y2="579" gradientUnits="userSpaceOnUse">
<stop offset="0.67" stop-color="#FAFAFA"/>
<stop offset="0.6701" stop-color="#D5D5D5"/>
</linearGradient>
<linearGradient id="paint1_linear_54646_9103" x1="531.5" y1="372" x2="531.5" y2="496" gradientUnits="userSpaceOnUse">
<stop offset="0.67" stop-color="#FAFAFA"/>
<stop offset="0.6701" stop-color="#D5D5D5"/>
</linearGradient>
</defs>
</svg>
