<svg aria-hidden="true" style="position: absolute; width: 0; height: 0; overflow: hidden;" version="1.1" xmlns="http://www.w3.org/2000/svg" xmlns:xlink="http://www.w3.org/1999/xlink">
<defs>
<symbol id="icon-swipe-down" viewBox="0 0 59 32">
<path fill="none" stroke="#425870" style="stroke: var(--color1, #425870)" stroke-linejoin="miter" stroke-linecap="round" stroke-miterlimit="4" stroke-width="6.1538" d="M4.923 4.923l24.615 20.923 25.846-20.923"></path>
</symbol>
<symbol id="icon-logo" viewBox="0 0 40 32">
<path fill="#000" style="fill: var(--color2, #000)" d="M21.614 17.238c0.048 0.083 0.061 0.18 0.036 0.273s-0.084 0.17-0.168 0.218c-0.055 0.032-0.117 0.048-0.179 0.048-0.031 0-0.063-0.004-0.094-0.012-0.093-0.025-0.17-0.084-0.218-0.168-0.045-0.079-0.057-0.167-0.041-0.25l-2.363-1.364-2.285 1.319h3.892l0.4 0.231h-5.153l3.146-1.816 2.478 1.431c0.017-0.015 0.037-0.029 0.057-0.041h0c0.172-0.099 0.392-0.040 0.491 0.132z"></path>
<path fill="#000" style="fill: var(--color2, #000)" d="M21.808 11.311c0.099-0.172 0.32-0.231 0.491-0.132 0.083 0.048 0.143 0.126 0.168 0.218s0.012 0.19-0.036 0.273c-0.044 0.076-0.113 0.132-0.196 0.16v2.729l2.285 1.319-1.946-3.37v-0.462l2.576 4.463-3.146-1.816v-2.862c-0.022-0.008-0.044-0.017-0.064-0.028-0.172-0.099-0.231-0.32-0.132-0.491z"></path>
<path fill="#000" style="fill: var(--color2, #000)" d="M16.218 13.748c0-0.198 0.161-0.36 0.36-0.36 0.091 0 0.174 0.034 0.237 0.090l2.363-1.364v-2.638l-1.946 3.37-0.4 0.231 2.576-4.463v3.633l-2.478 1.431c0.005 0.023 0.007 0.046 0.007 0.070 0 0.198-0.161 0.36-0.36 0.36s-0.36-0.161-0.36-0.36z"></path>
<path fill="#000" style="fill: var(--color2, #000)" d="M25.51 17.534h0.231l-0.115-0.2-4.804-2.773v-5.085l0.476 0.824v3.633c-0.080 0.027-0.151 0.082-0.196 0.16-0.099 0.172-0.040 0.392 0.132 0.491 0.056 0.033 0.118 0.048 0.179 0.048 0.124 0 0.246-0.065 0.312-0.18 0.048-0.083 0.061-0.18 0.036-0.273s-0.084-0.17-0.168-0.218c-0.021-0.012-0.042-0.022-0.064-0.029v-3.694l-0.937-1.623v4.315l-0.476 0.275v-5.414l-0.115-0.2-0.115 0.2v5.547l-4.404 2.543 0.476-0.824 3.146-1.816c0.063 0.056 0.146 0.090 0.237 0.090 0.198 0 0.36-0.161 0.36-0.36s-0.161-0.36-0.36-0.36c-0.198 0-0.36 0.161-0.36 0.36 0 0.024 0.002 0.048 0.007 0.070l-3.199 1.847-0.937 1.623 3.737-2.158 0.476 0.275-4.688 2.707-0.115 0.2h0.231l4.804-2.773 4.404 2.543h-0.951l-3.146-1.816c0.017-0.083 0.005-0.171-0.041-0.25-0.048-0.083-0.126-0.143-0.218-0.168s-0.19-0.012-0.273 0.036c-0.083 0.048-0.143 0.126-0.168 0.218s-0.012 0.19 0.036 0.273c0.067 0.115 0.188 0.18 0.312 0.18 0.061 0 0.123-0.015 0.179-0.048 0.021-0.012 0.040-0.026 0.057-0.041l3.199 1.847h1.874l-3.737-2.158v-0.549l4.688 2.707zM20.591 15.243l-1.773-1.024 1.773-1.024v2.047z"></path>
<path fill="#1c83fb" style="fill: var(--color3, #1c83fb)" d="M6.556 21.789h1.686v-0.382h-1.305v-0.621h0.986v-0.381h-0.986v-0.462h1.305v-0.382h-1.686zM10.413 21.48l-0.268-0.274c-0.143 0.143-0.309 0.217-0.522 0.217-0.442 0-0.744-0.309-0.744-0.751 0-0.436 0.302-0.744 0.744-0.744 0.213 0 0.379 0.073 0.522 0.216l0.268-0.274c-0.201-0.197-0.481-0.325-0.789-0.325-0.627 0-1.126 0.506-1.126 1.127 0 0.627 0.499 1.133 1.126 1.133 0.309 0 0.589-0.127 0.789-0.325zM11.24 21.789v-0.923h1.114v0.923h0.382v-2.227h-0.382v0.923h-1.114v-0.923h-0.382v2.227zM14.308 21.423c-0.442 0-0.744-0.306-0.744-0.751 0-0.442 0.302-0.744 0.744-0.744s0.744 0.302 0.744 0.744c0 0.445-0.303 0.751-0.744 0.751zM13.181 20.672c0 0.63 0.499 1.133 1.126 1.133s1.126-0.503 1.126-1.133c0-0.627-0.499-1.127-1.126-1.127s-1.126 0.5-1.126 1.127zM17.795 21.48l-0.268-0.274c-0.143 0.143-0.309 0.217-0.522 0.217-0.442 0-0.744-0.309-0.744-0.751 0-0.436 0.303-0.744 0.744-0.744 0.213 0 0.379 0.073 0.522 0.216l0.268-0.274c-0.201-0.197-0.481-0.325-0.789-0.325-0.627 0-1.126 0.506-1.126 1.127 0 0.627 0.499 1.133 1.126 1.133 0.309 0 0.589-0.127 0.789-0.325zM19.24 21.423c-0.442 0-0.744-0.306-0.744-0.751 0-0.442 0.302-0.744 0.744-0.744s0.744 0.302 0.744 0.744c0 0.445-0.302 0.751-0.744 0.751zM18.113 20.672c0 0.63 0.5 1.133 1.126 1.133s1.126-0.503 1.126-1.133c0-0.627-0.5-1.127-1.126-1.127s-1.126 0.5-1.126 1.127zM20.811 21.789h0.83c0.878 0 1.225-0.312 1.225-1.117 0-0.764-0.36-1.111-1.225-1.111h-0.83zM21.193 21.407v-1.464h0.448c0.684 0 0.843 0.152 0.843 0.729 0 0.608-0.14 0.735-0.843 0.735zM23.313 21.789h1.686v-0.382h-1.305v-0.621h0.986v-0.381h-0.986v-0.462h1.305v-0.382h-1.686zM25.444 21.789h0.382v-0.382h-0.382zM26.685 21.789l0.143-0.35h1.114l0.143 0.35h0.414l-0.907-2.227h-0.414l-0.907 2.227zM26.984 21.057l0.401-0.986 0.401 0.986zM29.326 21.789v-0.843h0.952c0.378 0 0.693-0.312 0.693-0.691 0-0.382-0.315-0.693-0.693-0.693h-1.333v2.227zM29.326 20.563v-0.62h0.952c0.194 0 0.312 0.115 0.312 0.312 0 0.195-0.118 0.309-0.312 0.309zM31.799 21.789v-0.843h0.952c0.378 0 0.693-0.312 0.693-0.691 0-0.382-0.315-0.693-0.693-0.693h-1.333v2.227zM31.799 20.563v-0.62h0.952c0.194 0 0.312 0.115 0.312 0.312 0 0.195-0.118 0.309-0.312 0.309z"></path>
<path fill="#00f3e4" style="fill: var(--color4, #00f3e4)" d="M5.851 24.012h0.679c0.193 0 0.354-0.159 0.354-0.354 0-0.105-0.047-0.199-0.122-0.264 0.047-0.055 0.076-0.128 0.076-0.206 0-0.172-0.139-0.311-0.313-0.311h-0.674zM6.046 23.817v-0.316h0.484c0.099 0 0.159 0.059 0.159 0.157 0 0.101-0.060 0.159-0.159 0.159zM6.046 23.307v-0.235h0.48c0.079 0 0.118 0.039 0.118 0.116s-0.039 0.119-0.118 0.119zM7.824 24.012h0.859v-0.195h-0.665v-0.316h0.502v-0.194h-0.502v-0.235h0.665v-0.195h-0.859zM10.253 23.157h0.195c0-0.185-0.136-0.289-0.391-0.289-0.233 0-0.387 0.091-0.387 0.289 0 0.178 0.112 0.266 0.366 0.321 0.261 0.056 0.31 0.073 0.31 0.174 0 0.14-0.056 0.174-0.289 0.174-0.167 0-0.23-0.026-0.265-0.089l-0.169 0.094c0.073 0.13 0.219 0.19 0.434 0.19 0.3 0 0.483-0.104 0.483-0.368 0-0.242-0.183-0.303-0.462-0.365-0.19-0.040-0.214-0.055-0.214-0.13 0-0.078 0.028-0.094 0.193-0.094 0.171 0 0.196 0.017 0.196 0.094zM11.959 24.012v-0.94h0.397v-0.195h-0.989v0.195h0.397v0.94zM14.642 24.012l0.073-0.178h0.567l0.073 0.178h0.211l-0.462-1.135h-0.211l-0.462 1.135zM14.794 23.639l0.204-0.503 0.204 0.503zM16.7 24.012v-0.43h0.485c0.193 0 0.354-0.159 0.354-0.351 0-0.195-0.16-0.354-0.354-0.354h-0.679v1.135zM16.7 23.388v-0.316h0.485c0.099 0 0.159 0.058 0.159 0.159 0 0.098-0.060 0.157-0.159 0.157zM18.673 24.012v-0.43h0.485c0.193 0 0.354-0.159 0.354-0.351 0-0.195-0.16-0.354-0.354-0.354h-0.679v1.135zM18.673 23.388v-0.316h0.485c0.099 0 0.159 0.058 0.159 0.159 0 0.098-0.060 0.157-0.159 0.157zM21.082 23.157h0.195c0-0.185-0.136-0.289-0.391-0.289-0.233 0-0.387 0.091-0.387 0.289 0 0.178 0.112 0.266 0.366 0.321 0.261 0.056 0.31 0.073 0.31 0.174 0 0.14-0.056 0.174-0.289 0.174-0.167 0-0.23-0.026-0.265-0.089l-0.169 0.094c0.073 0.13 0.219 0.19 0.434 0.19 0.3 0 0.483-0.104 0.483-0.368 0-0.242-0.183-0.303-0.462-0.365-0.19-0.040-0.214-0.055-0.214-0.13 0-0.078 0.028-0.094 0.193-0.094 0.171 0 0.196 0.017 0.196 0.094zM23.638 24.012v-1.135h-0.195v1.135zM25.208 23.157h0.195c0-0.185-0.136-0.289-0.39-0.289-0.234 0-0.388 0.091-0.388 0.289 0 0.178 0.112 0.266 0.367 0.321 0.261 0.056 0.309 0.073 0.309 0.174 0 0.14-0.056 0.174-0.288 0.174-0.167 0-0.231-0.026-0.266-0.089l-0.169 0.094c0.073 0.13 0.219 0.19 0.435 0.19 0.3 0 0.483-0.104 0.483-0.368 0-0.242-0.183-0.303-0.462-0.365-0.19-0.040-0.214-0.055-0.214-0.13 0-0.078 0.028-0.094 0.193-0.094 0.17 0 0.196 0.017 0.196 0.094zM27.765 24.012v-0.47h0.567v0.47h0.195v-1.135h-0.195v0.47h-0.567v-0.47h-0.195v1.135zM29.467 24.012h0.859v-0.195h-0.665v-0.316h0.503v-0.194h-0.503v-0.235h0.665v-0.195h-0.859zM31.461 24.012v-0.43h0.404l0.261 0.43h0.227l-0.276-0.456c0.13-0.052 0.222-0.178 0.222-0.325 0-0.195-0.16-0.354-0.353-0.354h-0.68v1.135zM31.461 23.388v-0.316h0.485c0.098 0 0.159 0.058 0.159 0.159 0 0.098-0.060 0.157-0.159 0.157zM33.292 24.012h0.859v-0.195h-0.665v-0.316h0.502v-0.194h-0.502v-0.235h0.665v-0.195h-0.859z"></path>
</symbol>
<symbol id="icon-facebook" viewBox="0 0 17 32">
<path d="M11.642 32v-14.4h4.663l0.762-6.4h-5.425v-3.117c0-1.648 0.045-3.283 2.501-3.283h2.488v-4.576c0-0.069-2.137-0.224-4.299-0.224-4.515 0-7.343 2.651-7.343 7.52v3.68h-4.989v6.4h4.989v14.4h6.652z"></path>
</symbol>
<symbol id="icon-google" viewBox="0 0 32 32">
<path d="M31.715 12.806h-15.376c0 1.599 0 4.797-0.010 6.396h8.91c-0.341 1.599-1.552 3.838-3.262 4.965-0.002-0.002-0.003 0.010-0.007 0.008-2.274 1.502-5.275 1.842-7.504 1.395-3.493-0.694-6.257-3.227-7.379-6.444 0.006-0.005 0.011-0.050 0.016-0.053-0.702-1.996-0.702-4.668 0-6.267h-0.002c0.905-2.939 3.753-5.621 7.25-6.355 2.813-0.596 5.988 0.050 8.322 2.234 0.31-0.304 4.297-4.196 4.596-4.513-7.976-7.223-20.746-4.682-25.525 4.645h-0.002c0 0 0.002 0-0.008 0.018-2.364 4.581-2.266 9.98 0.016 14.342-0.007 0.005-0.011 0.008-0.016 0.013 2.068 4.014 5.832 7.092 10.367 8.264 4.818 1.263 10.949 0.4 15.056-3.315 0.002 0.002 0.003 0.003 0.005 0.005 3.48-3.134 5.646-8.474 4.552-15.338z"></path>
</symbol>
<symbol id="icon-linkedin" viewBox="0 0 32 32">
<path d="M32 32h-6.154v-11.207c0-3.074-1.303-4.789-3.64-4.789-2.543 0-4.052 1.787-4.052 4.789v11.207h-6.154v-20.815h6.154v2.341c0 0 1.931-3.526 6.282-3.526 4.352 0 7.565 2.764 7.565 8.483 0 5.718 0 13.517 0 13.517zM3.001 6c-1.658 0-3.001-1.344-3.001-3.001 0-1.656 1.343-2.999 3.001-2.999 1.656 0 2.999 1.344 2.999 2.999 0.001 1.657-1.343 3.001-2.999 3.001zM0 32h6v-20h-6v20z"></path>
</symbol>
<symbol id="icon-menu" viewBox="0 0 51 32">
<path d="M2.441 32h48.025v-5.333h-48.025v5.333zM2.441 18.667h48.025v-5.333h-48.025v5.333zM2.441 0v5.333h48.025v-5.333h-48.025z"></path>
</symbol>
<symbol id="icon-play" viewBox="0 0 26 32">
<path d="M0.682 0.206v31.59l24.833-15.795-24.833-15.795z"></path>
</symbol>
<symbol id="icon-search" viewBox="0 0 34 32">
<path d="M23.788 19.556h-1.404l-0.498-0.48c1.742-2.027 2.791-4.658 2.791-7.52 0-6.382-5.173-11.556-11.556-11.556s-11.556 5.173-11.556 11.556c0 6.382 5.173 11.556 11.556 11.556 2.862 0 5.493-1.049 7.52-2.791l0.48 0.498v1.404l8.889 8.871 2.649-2.649-8.871-8.889zM13.121 19.556c-4.427 0-8-3.573-8-8s3.573-8 8-8c4.427 0 8 3.573 8 8s-3.573 8-8 8z"></path>
</symbol>
<symbol id="icon-swipe" viewBox="0 0 57 32">
<path d="M54.243 24.186c1.498 1.498 1.498 3.928 0 5.426s-3.928 1.498-5.426 0l-20.979-20.979-21.288 21.288c-1.498 1.498-3.928 1.498-5.426 0s-1.498-3.928 0-5.426l23.062-23.062c0.764-0.764 1.769-1.138 2.77-1.123 1.4-0.6 3.083-0.328 4.225 0.814l23.062 23.062z"></path>
</symbol>
<symbol id="icon-embed" viewBox="0 0 32 32">
<path d="M18 23l3 3 10-10-10-10-3 3 7 7z"></path>
<path d="M14 9l-3-3-10 10 10 10 3-3-7-7z"></path>
</symbol>
<symbol id="icon-embed2" viewBox="0 0 40 32">
<path d="M26 23l3 3 10-10-10-10-3 3 7 7z"></path>
<path d="M14 9l-3-3-10 10 10 10 3-3-7-7z"></path>
<path d="M21.916 4.704l2.171 0.592-6 22.001-2.171-0.592 6-22.001z"></path>
</symbol>
<symbol id="icon-share2" viewBox="0 0 32 32">
<path d="M27 22c-1.411 0-2.685 0.586-3.594 1.526l-13.469-6.734c0.041-0.258 0.063-0.522 0.063-0.791s-0.022-0.534-0.063-0.791l13.469-6.734c0.909 0.94 2.183 1.526 3.594 1.526 2.761 0 5-2.239 5-5s-2.239-5-5-5-5 2.239-5 5c0 0.269 0.022 0.534 0.063 0.791l-13.469 6.734c-0.909-0.94-2.183-1.526-3.594-1.526-2.761 0-5 2.239-5 5s2.239 5 5 5c1.411 0 2.685-0.586 3.594-1.526l13.469 6.734c-0.041 0.258-0.063 0.522-0.063 0.791 0 2.761 2.239 5 5 5s5-2.239 5-5c0-2.761-2.239-5-5-5z"></path>
</symbol>
<symbol id="icon-google-plus" viewBox="0 0 32 32">
<path d="M10.181 14.294v3.494h5.775c-0.231 1.5-1.744 4.394-5.775 4.394-3.475 0-6.313-2.881-6.313-6.431s2.838-6.431 6.313-6.431c1.981 0 3.3 0.844 4.056 1.569l2.762-2.662c-1.775-1.656-4.075-2.662-6.819-2.662-5.631 0.006-10.181 4.556-10.181 10.188s4.55 10.181 10.181 10.181c5.875 0 9.775-4.131 9.775-9.95 0-0.669-0.075-1.181-0.163-1.688h-9.613z"></path>
<path d="M32 14h-3v-3h-3v3h-3v3h3v3h3v-3h3z"></path>
</symbol>
<symbol id="icon-facebook2" viewBox="0 0 32 32">
<path d="M29 0h-26c-1.65 0-3 1.35-3 3v26c0 1.65 1.35 3 3 3h13v-14h-4v-4h4v-2c0-3.306 2.694-6 6-6h4v4h-4c-1.1 0-2 0.9-2 2v2h6l-1 4h-5v14h9c1.65 0 3-1.35 3-3v-26c0-1.65-1.35-3-3-3z"></path>
</symbol>
<symbol id="icon-instagram" viewBox="0 0 32 32">
<path d="M16 2.881c4.275 0 4.781 0.019 6.462 0.094 1.563 0.069 2.406 0.331 2.969 0.55 0.744 0.288 1.281 0.638 1.837 1.194 0.563 0.563 0.906 1.094 1.2 1.838 0.219 0.563 0.481 1.412 0.55 2.969 0.075 1.688 0.094 2.194 0.094 6.463s-0.019 4.781-0.094 6.463c-0.069 1.563-0.331 2.406-0.55 2.969-0.288 0.744-0.637 1.281-1.194 1.837-0.563 0.563-1.094 0.906-1.837 1.2-0.563 0.219-1.413 0.481-2.969 0.55-1.688 0.075-2.194 0.094-6.463 0.094s-4.781-0.019-6.463-0.094c-1.563-0.069-2.406-0.331-2.969-0.55-0.744-0.288-1.281-0.637-1.838-1.194-0.563-0.563-0.906-1.094-1.2-1.837-0.219-0.563-0.481-1.413-0.55-2.969-0.075-1.688-0.094-2.194-0.094-6.463s0.019-4.781 0.094-6.463c0.069-1.563 0.331-2.406 0.55-2.969 0.288-0.744 0.638-1.281 1.194-1.838 0.563-0.563 1.094-0.906 1.838-1.2 0.563-0.219 1.412-0.481 2.969-0.55 1.681-0.075 2.188-0.094 6.463-0.094zM16 0c-4.344 0-4.887 0.019-6.594 0.094-1.7 0.075-2.869 0.35-3.881 0.744-1.056 0.412-1.95 0.956-2.837 1.85-0.894 0.888-1.438 1.781-1.85 2.831-0.394 1.019-0.669 2.181-0.744 3.881-0.075 1.713-0.094 2.256-0.094 6.6s0.019 4.887 0.094 6.594c0.075 1.7 0.35 2.869 0.744 3.881 0.413 1.056 0.956 1.95 1.85 2.837 0.887 0.887 1.781 1.438 2.831 1.844 1.019 0.394 2.181 0.669 3.881 0.744 1.706 0.075 2.25 0.094 6.594 0.094s4.888-0.019 6.594-0.094c1.7-0.075 2.869-0.35 3.881-0.744 1.050-0.406 1.944-0.956 2.831-1.844s1.438-1.781 1.844-2.831c0.394-1.019 0.669-2.181 0.744-3.881 0.075-1.706 0.094-2.25 0.094-6.594s-0.019-4.887-0.094-6.594c-0.075-1.7-0.35-2.869-0.744-3.881-0.394-1.063-0.938-1.956-1.831-2.844-0.887-0.887-1.781-1.438-2.831-1.844-1.019-0.394-2.181-0.669-3.881-0.744-1.712-0.081-2.256-0.1-6.6-0.1v0z"></path>
<path d="M16 7.781c-4.537 0-8.219 3.681-8.219 8.219s3.681 8.219 8.219 8.219 8.219-3.681 8.219-8.219c0-4.537-3.681-8.219-8.219-8.219zM16 21.331c-2.944 0-5.331-2.387-5.331-5.331s2.387-5.331 5.331-5.331c2.944 0 5.331 2.387 5.331 5.331s-2.387 5.331-5.331 5.331z"></path>
<path d="M26.462 7.456c0 1.060-0.859 1.919-1.919 1.919s-1.919-0.859-1.919-1.919c0-1.060 0.859-1.919 1.919-1.919s1.919 0.859 1.919 1.919z"></path>
</symbol>
<symbol id="icon-whatsapp" viewBox="0 0 32 32">
<path d="M27.281 4.65c-2.994-3-6.975-4.65-11.219-4.65-8.738 0-15.85 7.112-15.85 15.856 0 2.794 0.731 5.525 2.119 7.925l-2.25 8.219 8.406-2.206c2.319 1.262 4.925 1.931 7.575 1.931h0.006c0 0 0 0 0 0 8.738 0 15.856-7.113 15.856-15.856 0-4.238-1.65-8.219-4.644-11.219zM16.069 29.050v0c-2.369 0-4.688-0.637-6.713-1.837l-0.481-0.288-4.987 1.306 1.331-4.863-0.313-0.5c-1.325-2.094-2.019-4.519-2.019-7.012 0-7.269 5.912-13.181 13.188-13.181 3.519 0 6.831 1.375 9.319 3.862 2.488 2.494 3.856 5.8 3.856 9.325-0.006 7.275-5.919 13.188-13.181 13.188zM23.294 19.175c-0.394-0.2-2.344-1.156-2.706-1.288s-0.625-0.2-0.894 0.2c-0.262 0.394-1.025 1.288-1.256 1.556-0.231 0.262-0.462 0.3-0.856 0.1s-1.675-0.619-3.188-1.969c-1.175-1.050-1.975-2.35-2.206-2.744s-0.025-0.613 0.175-0.806c0.181-0.175 0.394-0.463 0.594-0.694s0.262-0.394 0.394-0.662c0.131-0.262 0.069-0.494-0.031-0.694s-0.894-2.15-1.219-2.944c-0.319-0.775-0.65-0.669-0.894-0.681-0.231-0.012-0.494-0.012-0.756-0.012s-0.694 0.1-1.056 0.494c-0.363 0.394-1.387 1.356-1.387 3.306s1.419 3.831 1.619 4.1c0.2 0.262 2.794 4.269 6.769 5.981 0.944 0.406 1.681 0.65 2.256 0.837 0.95 0.3 1.813 0.256 2.494 0.156 0.762-0.113 2.344-0.956 2.675-1.881s0.331-1.719 0.231-1.881c-0.094-0.175-0.356-0.275-0.756-0.475z"></path>
</symbol>
<symbol id="icon-telegram" viewBox="0 0 32 32">
<path d="M16 0c-8.838 0-16 7.162-16 16s7.162 16 16 16 16-7.163 16-16-7.163-16-16-16zM23.863 10.969l-2.625 12.369c-0.181 0.881-0.712 1.087-1.45 0.681l-4-2.956-1.919 1.869c-0.225 0.219-0.4 0.4-0.8 0.4-0.519 0-0.431-0.194-0.606-0.688l-1.363-4.475-3.956-1.231c-0.856-0.262-0.862-0.85 0.194-1.269l15.412-5.95c0.7-0.319 1.381 0.169 1.113 1.25z"></path>
</symbol>
<symbol id="icon-twitter" viewBox="0 0 32 32">
<path d="M32 7.075c-1.175 0.525-2.444 0.875-3.769 1.031 1.356-0.813 2.394-2.1 2.887-3.631-1.269 0.75-2.675 1.3-4.169 1.594-1.2-1.275-2.906-2.069-4.794-2.069-3.625 0-6.563 2.938-6.563 6.563 0 0.512 0.056 1.012 0.169 1.494-5.456-0.275-10.294-2.888-13.531-6.862-0.563 0.969-0.887 2.1-0.887 3.3 0 2.275 1.156 4.287 2.919 5.463-1.075-0.031-2.087-0.331-2.975-0.819 0 0.025 0 0.056 0 0.081 0 3.181 2.263 5.838 5.269 6.437-0.55 0.15-1.131 0.231-1.731 0.231-0.425 0-0.831-0.044-1.237-0.119 0.838 2.606 3.263 4.506 6.131 4.563-2.25 1.762-5.075 2.813-8.156 2.813-0.531 0-1.050-0.031-1.569-0.094 2.913 1.869 6.362 2.95 10.069 2.95 12.075 0 18.681-10.006 18.681-18.681 0-0.287-0.006-0.569-0.019-0.85 1.281-0.919 2.394-2.075 3.275-3.394z"></path>
</symbol>
</defs>
</svg>
