<!-- Generated by IcoMoon.io -->
<svg version="1.1" xmlns="http://www.w3.org/2000/svg" width="1024" height="1024" viewBox="0 0 1024 1024">
<g id="icomoon-ignore">
</g>
<path fill="#000" d="M512 170.667c-23.565 0-42.667 19.103-42.667 42.667s19.102 42.667 42.667 42.667c23.565 0 42.667-19.103 42.667-42.667s-19.102-42.667-42.667-42.667zM640 213.333c0 70.692-57.306 128-128 128s-128-57.308-128-128c0-70.692 57.306-128 128-128s128 57.308 128 128zM512 469.333c-23.565 0-42.667 19.102-42.667 42.667s19.102 42.667 42.667 42.667c23.565 0 42.667-19.102 42.667-42.667s-19.102-42.667-42.667-42.667zM640 512c0 70.694-57.306 128-128 128s-128-57.306-128-128c0-70.694 57.306-128 128-128s128 57.306 128 128zM469.333 810.667c0-23.565 19.102-42.667 42.667-42.667s42.667 19.102 42.667 42.667c0 23.565-19.102 42.667-42.667 42.667s-42.667-19.102-42.667-42.667zM512 938.667c70.694 0 128-57.306 128-128s-57.306-128-128-128c-70.694 0-128 57.306-128 128s57.306 128 128 128z"></path>
</svg>
