<?xml version="1.0" encoding="UTF-8" standalone="no" ?>
<!DOCTYPE svg PUBLIC "-//W3C//DTD SVG 1.1//EN" "http://www.w3.org/Graphics/SVG/1.1/DTD/svg11.dtd">
<svg xmlns="http://www.w3.org/2000/svg" xmlns:xlink="http://www.w3.org/1999/xlink" version="1.1" width="1280" height="1024" viewBox="0 0 1280 1024" xml:space="preserve">
<desc>Created with Fabric.js 5.3.0</desc>
<defs>
</defs>
<g transform="matrix(1 0 0 1 640 512)" id="background-logo"  >
<rect style="stroke: none; stroke-width: 0; stroke-dasharray: none; stroke-linecap: butt; stroke-dashoffset: 0; stroke-linejoin: miter; stroke-miterlimit: 4; fill: rgb(255,255,255); fill-opacity: 0; fill-rule: nonzero; opacity: 1;"  paint-order="stroke"  x="-640" y="-512" rx="0" ry="0" width="1280" height="1024" />
</g>
<g transform="matrix(1.7138783723072077 0 0 1.7138783723072077 640.1153047091414 407.7332056544349)" id="logo-logo"  >
<g style=""  paint-order="stroke"   >
		<g transform="matrix(0.28197377813400726 0 0 0.2819737781340073 -24.122260119542204 67.68516451695854)"  >
<linearGradient id="SVGID_1_225021" gradientUnits="userSpaceOnUse" gradientTransform="matrix(1 0 0 1 0 0)"  x1="414.4521179" y1="774.9248047" x2="414.4521179" y2="283.9557495">
<stop offset="0%" style="stop-color:rgb(253,190,0);stop-opacity: 1"/>
<stop offset="1.44104%" style="stop-color:rgb(252,180,3);stop-opacity: 1"/>
<stop offset="6.55075%" style="stop-color:rgb(250,151,12);stop-opacity: 1"/>
<stop offset="11.5908%" style="stop-color:rgb(248,129,19);stop-opacity: 1"/>
<stop offset="16.485030000000002%" style="stop-color:rgb(247,116,23);stop-opacity: 1"/>
<stop offset="21.06301%" style="stop-color:rgb(247,112,24);stop-opacity: 1"/>
<stop offset="21.21942%" style="stop-color:rgb(247,112,25);stop-opacity: 1"/>
<stop offset="25.76015%" style="stop-color:rgb(244,100,64);stop-opacity: 1"/>
<stop offset="30.274420000000003%" style="stop-color:rgb(242,90,93);stop-opacity: 1"/>
<stop offset="34.699259999999995%" style="stop-color:rgb(241,83,115);stop-opacity: 1"/>
<stop offset="38.99391%" style="stop-color:rgb(240,79,128);stop-opacity: 1"/>
<stop offset="43.01229%" style="stop-color:rgb(240,78,132);stop-opacity: 1"/>
<stop offset="79.41726%" style="stop-color:rgb(28,131,251);stop-opacity: 1"/>
<stop offset="100%" style="stop-color:rgb(0,243,228);stop-opacity: 1"/>
</linearGradient>
<path style="stroke: none; stroke-width: 1; stroke-dasharray: none; stroke-linecap: butt; stroke-dashoffset: 0; stroke-linejoin: miter; stroke-miterlimit: 4; fill: url(#SVGID_1_225021); fill-rule: nonzero; opacity: 1;"  paint-order="stroke"  transform=" translate(-414.4521234989444, -740.0406188999999)" d="M 595.3573608 769.0300903 C 598.1954345 773.9453735 598.9487304 779.6709594 597.4802246 785.1531372 C 596.0117187000001 790.6352539 592.4945679 795.2176513999999 587.5792847 798.0557250999999 C 584.3056031 799.9445800999999 580.6724243 800.9108886999999 576.9916382 800.9108886999999 C 575.1445923 800.9108886999999 573.288086 800.6674194999998 571.4562378 800.1766967999998 C 565.9741211 798.7081908999999 561.3917236000001 795.1910400999998 558.5555420000001 790.2776488999998 C 555.8751221000001 785.6356810999998 555.1718750000001 780.3965453999998 556.1469116000001 775.5124510999998 L 416.545166 694.9129028 L 281.57861330000003 772.8364257 L 511.46215820000003 772.8364257 L 535.0786743 786.4713134 L 500 786.4713134 L 230.69104 786.4713134 L 416.545166 679.1703491 L 562.9390258999999 763.6892089999999 C 563.9700317999999 762.7844848999999 565.0996094 761.9634399999999 566.3317261 761.2520141999998 L 566.3336181999999 761.2520141999998 C 576.4837646 755.3932495 589.5004883 758.8894653 595.3573608 769.0300903 z" stroke-linecap="round" />
</g>
		<g transform="matrix(0.28197377813400726 0 0 0.2819737781340073 57.54476231555691 18.935292135433826)"  >
<linearGradient id="SVGID_2_225022" gradientUnits="userSpaceOnUse" gradientTransform="matrix(1 0 0 1 0 0)"  x1="704.0784302" y1="774.9248047" x2="704.0784302" y2="283.9557495">
<stop offset="0%" style="stop-color:rgb(253,190,0);stop-opacity: 1"/>
<stop offset="1.44104%" style="stop-color:rgb(252,180,3);stop-opacity: 1"/>
<stop offset="6.55075%" style="stop-color:rgb(250,151,12);stop-opacity: 1"/>
<stop offset="11.5908%" style="stop-color:rgb(248,129,19);stop-opacity: 1"/>
<stop offset="16.485030000000002%" style="stop-color:rgb(247,116,23);stop-opacity: 1"/>
<stop offset="21.06301%" style="stop-color:rgb(247,112,24);stop-opacity: 1"/>
<stop offset="21.21942%" style="stop-color:rgb(247,112,25);stop-opacity: 1"/>
<stop offset="25.76015%" style="stop-color:rgb(244,100,64);stop-opacity: 1"/>
<stop offset="30.274420000000003%" style="stop-color:rgb(242,90,93);stop-opacity: 1"/>
<stop offset="34.699259999999995%" style="stop-color:rgb(241,83,115);stop-opacity: 1"/>
<stop offset="38.99391%" style="stop-color:rgb(240,79,128);stop-opacity: 1"/>
<stop offset="43.01229%" style="stop-color:rgb(240,78,132);stop-opacity: 1"/>
<stop offset="79.41726%" style="stop-color:rgb(28,131,251);stop-opacity: 1"/>
<stop offset="100%" style="stop-color:rgb(0,243,228);stop-opacity: 1"/>
</linearGradient>
<path style="stroke: none; stroke-width: 1; stroke-dasharray: none; stroke-linecap: butt; stroke-dashoffset: 0; stroke-linejoin: miter; stroke-miterlimit: 4; fill: url(#SVGID_2_225022); fill-rule: nonzero; opacity: 1;"  paint-order="stroke"  transform=" translate(-704.0784248363941, -567.1526549760764)" d="M 606.7800293 418.917511 C 612.6387939 408.77499389999997 625.6536255 405.2825623 635.8056641000001 411.14132689999997 C 640.7209473 413.97750849999994 644.2362061 418.5598755 645.7047120000001 424.04202269999996 C 647.1732179 429.52413939999997 646.419922 435.25167849999997 643.5818482000001 440.16503909999994 C 640.9779664000001 444.67776489999994 636.8918458 447.9892578999999 631.9993897 449.64129639999993 L 631.9993897 610.8320312999999 L 766.9659424 688.7536011 L 652.0238037 489.6706543 L 652.0238037 462.3998108 L 804.2185669 726.0062256 L 618.3644409000001 618.7033081 L 618.3644409000001 449.6254883 C 617.0602417000001 449.1800232 615.7783813000001 448.64801029999995 614.5581055000001 447.9431153 C 604.4118042 442.0862427 600.9231567 429.0638123 606.7800293 418.917511 z" stroke-linecap="round" />
</g>
		<g transform="matrix(0.28197377813400726 0 0 0.2819737781340073 -36.41594151059121 -22.045706089183966)"  >
<linearGradient id="SVGID_3_225023" gradientUnits="userSpaceOnUse" gradientTransform="matrix(1 0 0 1 0 0)"  x1="370.8534546" y1="774.9248047" x2="370.8534546" y2="283.9557495">
<stop offset="0%" style="stop-color:rgb(253,190,0);stop-opacity: 1"/>
<stop offset="1.44104%" style="stop-color:rgb(252,180,3);stop-opacity: 1"/>
<stop offset="6.55075%" style="stop-color:rgb(250,151,12);stop-opacity: 1"/>
<stop offset="11.5908%" style="stop-color:rgb(248,129,19);stop-opacity: 1"/>
<stop offset="16.485030000000002%" style="stop-color:rgb(247,116,23);stop-opacity: 1"/>
<stop offset="21.06301%" style="stop-color:rgb(247,112,24);stop-opacity: 1"/>
<stop offset="21.21942%" style="stop-color:rgb(247,112,25);stop-opacity: 1"/>
<stop offset="25.76015%" style="stop-color:rgb(244,100,64);stop-opacity: 1"/>
<stop offset="30.274420000000003%" style="stop-color:rgb(242,90,93);stop-opacity: 1"/>
<stop offset="34.699259999999995%" style="stop-color:rgb(241,83,115);stop-opacity: 1"/>
<stop offset="38.99391%" style="stop-color:rgb(240,79,128);stop-opacity: 1"/>
<stop offset="43.01229%" style="stop-color:rgb(240,78,132);stop-opacity: 1"/>
<stop offset="79.41726%" style="stop-color:rgb(28,131,251);stop-opacity: 1"/>
<stop offset="100%" style="stop-color:rgb(0,243,228);stop-opacity: 1"/>
</linearGradient>
<path style="stroke: none; stroke-width: 1; stroke-dasharray: none; stroke-linecap: butt; stroke-dashoffset: 0; stroke-linejoin: miter; stroke-miterlimit: 4; fill: url(#SVGID_3_225023); fill-rule: nonzero; opacity: 1;"  paint-order="stroke"  transform=" translate(-370.8534546, -421.8164521000001)" d="M 276.6157837 562.8339233 C 276.6157837 551.1182861000001 286.1476746 541.5863647 297.8633118 541.5863647 C 303.2233582 541.5863647 308.1119995 543.5971069 311.8540955 546.883728 L 451.45617680000004 466.2840881 L 451.45617680000004 310.4371338 L 336.513916 509.5222168 L 312.8963623 523.157898 L 465.09112550000003 259.55148320000006 L 465.09112550000003 474.1553956000001 L 318.69677740000003 558.6779786000001 C 318.96463020000004 560.0229493 319.11083990000003 561.4113770000001 319.11083990000003 562.8339234000001 C 319.11083990000003 574.5494996000001 309.578949 584.0814210000001 297.8633118 584.0814210000001 C 286.1476746 584.0814210000001 276.6157837 574.5494995 276.6157837 562.8339233 z" stroke-linecap="round" />
</g>
		<g transform="matrix(0.28197377813400726 0 0 0.2819737781340073 0 -2.0357908150944297)"  >
<linearGradient id="SVGID_4_225024" gradientUnits="userSpaceOnUse" gradientTransform="matrix(1 0 0 1 0 0)"  x1="500" y1="774.9248047" x2="500" y2="283.9557495">
<stop offset="0%" style="stop-color:rgb(253,190,0);stop-opacity: 1"/>
<stop offset="1.44104%" style="stop-color:rgb(252,180,3);stop-opacity: 1"/>
<stop offset="6.55075%" style="stop-color:rgb(250,151,12);stop-opacity: 1"/>
<stop offset="11.5908%" style="stop-color:rgb(248,129,19);stop-opacity: 1"/>
<stop offset="16.485030000000002%" style="stop-color:rgb(247,116,23);stop-opacity: 1"/>
<stop offset="21.06301%" style="stop-color:rgb(247,112,24);stop-opacity: 1"/>
<stop offset="21.21942%" style="stop-color:rgb(247,112,25);stop-opacity: 1"/>
<stop offset="25.76015%" style="stop-color:rgb(244,100,64);stop-opacity: 1"/>
<stop offset="30.274420000000003%" style="stop-color:rgb(242,90,93);stop-opacity: 1"/>
<stop offset="34.699259999999995%" style="stop-color:rgb(241,83,115);stop-opacity: 1"/>
<stop offset="38.99391%" style="stop-color:rgb(240,79,128);stop-opacity: 1"/>
<stop offset="43.01229%" style="stop-color:rgb(240,78,132);stop-opacity: 1"/>
<stop offset="79.41726%" style="stop-color:rgb(28,131,251);stop-opacity: 1"/>
<stop offset="100%" style="stop-color:rgb(0,243,228);stop-opacity: 1"/>
</linearGradient>
<path style="stroke: none; stroke-width: 1; stroke-dasharray: none; stroke-linecap: butt; stroke-dashoffset: 0; stroke-linejoin: miter; stroke-miterlimit: 4; fill: url(#SVGID_4_225024); fill-rule: nonzero; opacity: 1;"  paint-order="stroke"  transform=" translate(-500.0000077, -492.78019704999997)" d="M 825.4893799 786.4700317 L 839.1245728 786.4700317 L 832.3066407 774.6609497000001 L 548.5443115 610.8312988 L 548.5443115 310.4380798 L 576.6359253 359.0934143 L 576.6359253 573.6727295000001 C 571.9190674 575.2703247000001 567.7335205 578.4983521 565.0534668 583.1398316000001 C 559.1965942 593.2861329000001 562.6852417 606.3067017000001 572.8296509 612.1654664000001 C 576.1679688 614.0924073000001 579.8145142000001 615.0073243000002 583.4172363 615.0073243000002 C 590.767334 615.0073243000002 597.9252929 611.1953126000002 601.8552856 604.3873902000001 C 604.6933593 599.4721070000002 605.4465942 593.7464600000002 603.9780883 588.2643433000002 C 602.5095824 582.7841187000001 598.9924315999999 578.2017212000002 594.0771483999999 575.3636475000002 C 592.8452758 574.6519776000002 591.5697021 574.0839844000002 590.2708739999999 573.6433716000001 L 590.2708739999999 355.44119260000014 L 534.9093627999999 259.5505066000001 L 534.9093627999999 514.4660034000001 L 506.81771849999996 530.6847534000001 L 506.81771849999996 210.8976898 L 500 199.0890808 L 493.1827698 210.8968506 L 493.1827698 538.5568848 L 233.0345612 688.7536011 L 261.1261902 640.0992431999999 L 446.9559326 532.8095093 C 450.6976929 536.0962525 455.5860901 538.1072387999999 460.94622799999996 538.1072387999999 C 472.66186519999997 538.1072387999999 482.19378659999995 528.5753173999999 482.19378659999995 516.8596801999998 C 482.19378659999995 505.1440734999998 472.66186519999997 495.61218259999987 460.94622799999996 495.61218259999987 C 449.23062129999994 495.61218259999987 439.700592 505.1440734999999 439.700592 516.8596801999998 C 439.700592 518.2818603999998 439.84658809999996 519.6698608999999 440.1143188 521.0144653999998 L 251.1434631 630.1165161 L 195.7819366 726.0062256 L 416.5449218 598.5487061 L 444.6376342 614.7680054 L 167.6931458 774.6615601 L 160.87544259999999 786.4700318 L 174.51121529999998 786.4700318 L 458.27305609999996 622.6403809000001 L 718.4199676999999 772.8364258000001 L 662.2366791 772.8364258000001 L 476.4077759 665.5471802 C 477.3828736 660.6630249 476.67953489999996 655.4240113 473.999115 650.7819824 C 471.16293340000004 645.8685912999999 466.58053590000003 642.3514404 461.0984192 640.8829344999999 C 455.6143799 639.4125366 449.890686 640.1677245 444.97540280000004 643.0038450999999 C 440.06011960000006 645.8419187999999 436.54486080000004 650.4243162999999 435.07635490000007 655.906494 C 433.60595700000005 661.3886107 434.3592528000001 667.1141965999999 437.19732660000005 672.0294798 C 441.12915030000005 678.8374632 448.28521720000003 682.6475217999999 455.6353149 682.6475217999999 C 459.2380676 682.6475217999999 462.88647460000004 681.7326048 466.22293090000005 679.807556 C 467.45507810000004 679.0961302 468.58462520000006 678.2752074 469.61550900000003 677.3704832 L 658.5844726 786.4713133 L 769.3074951 786.4713133 L 548.5443115 659.0136108 L 548.5443115 626.5761718 L 825.4893799 786.4700317 z M 534.9093628 651.1414795 L 430.18035890000004 590.6762084999999 L 534.9093628 530.2108764999999 L 534.9093628 651.1414795 z" stroke-linecap="round" />
</g>
</g>
</g>
<g transform="matrix(1.9211538461538462 0 0 1.9211538461538462 639.9999999999997 662.0487867497731)" id="text-logo"  >
<g style=""  paint-order="stroke"   >
		<g transform="matrix(1 0 0 1 5.684342e-14 0)" id="text-logo-path-0"  >
<path style="stroke: none; stroke-width: 0; stroke-dasharray: none; stroke-linecap: butt; stroke-dashoffset: 0; stroke-linejoin: miter; stroke-miterlimit: 4; fill: rgb(28,131,251); fill-rule: nonzero; opacity: 1;"  paint-order="stroke"  transform=" translate(-198.005, 16.25)" d="M 1.86 0 L 26.46 0 L 26.46 -5.57 L 7.43 -5.57 L 7.43 -14.62 L 21.82 -14.62 L 21.82 -20.19 L 7.43 -20.19 L 7.43 -26.93 L 26.46 -26.93 L 26.46 -32.5 L 1.86 -32.5 Z M 58.12 -4.5 L 54.22 -8.5 C 52.14 -6.41 49.72 -5.34 46.61 -5.34 C 40.16 -5.34 35.75 -9.84 35.75 -16.3 C 35.75 -22.66 40.16 -27.16 46.61 -27.16 C 49.72 -27.16 52.14 -26.09 54.22 -24 L 58.12 -27.99 C 55.2 -30.87 51.11 -32.73 46.61 -32.73 C 37.46 -32.73 30.18 -25.35 30.18 -16.3 C 30.18 -7.15 37.46 0.23 46.61 0.23 C 51.11 0.23 55.2 -1.62 58.12 -4.5 Z M 70.19 0 L 70.19 -13.46 L 86.44 -13.46 L 86.44 0 L 92.01 0 L 92.01 -32.5 L 86.44 -32.5 L 86.44 -19.03 L 70.19 -19.03 L 70.19 -32.5 L 64.62 -32.5 L 64.62 0 Z M 114.95 -5.34 C 108.5 -5.34 104.08 -9.8 104.08 -16.3 C 104.08 -22.75 108.5 -27.16 114.95 -27.16 C 121.4 -27.16 125.81 -22.75 125.81 -16.3 C 125.81 -9.8 121.4 -5.34 114.95 -5.34 Z M 98.51 -16.3 C 98.51 -7.1 105.8 0.23 114.95 0.23 C 124.09 0.23 131.38 -7.1 131.38 -16.3 C 131.38 -25.44 124.09 -32.73 114.95 -32.73 C 105.8 -32.73 98.51 -25.44 98.51 -16.3 Z M 165.83 -4.5 L 161.93 -8.5 C 159.84 -6.41 157.43 -5.34 154.32 -5.34 C 147.86 -5.34 143.45 -9.84 143.45 -16.3 C 143.45 -22.66 147.86 -27.16 154.32 -27.16 C 157.43 -27.16 159.84 -26.09 161.93 -24 L 165.83 -27.99 C 162.91 -30.87 158.82 -32.73 154.32 -32.73 C 145.17 -32.73 137.88 -25.35 137.88 -16.3 C 137.88 -7.15 145.17 0.23 154.32 0.23 C 158.82 0.23 162.91 -1.62 165.83 -4.5 Z M 186.91 -5.34 C 180.45 -5.34 176.04 -9.8 176.04 -16.3 C 176.04 -22.75 180.45 -27.16 186.91 -27.16 C 193.36 -27.16 197.77 -22.75 197.77 -16.3 C 197.77 -9.8 193.36 -5.34 186.91 -5.34 Z M 170.47 -16.3 C 170.47 -7.1 177.76 0.23 186.91 0.23 C 196.05 0.23 203.34 -7.1 203.34 -16.3 C 203.34 -25.44 196.05 -32.73 186.91 -32.73 C 177.76 -32.73 170.47 -25.44 170.47 -16.3 Z M 209.84 0 L 221.96 0 C 234.77 0 239.83 -4.55 239.83 -16.3 C 239.83 -27.44 234.59 -32.5 221.96 -32.5 L 209.84 -32.5 Z M 215.41 -5.57 L 215.41 -26.93 L 221.96 -26.93 C 231.94 -26.93 234.26 -24.7 234.26 -16.3 C 234.26 -7.43 232.22 -5.57 221.96 -5.57 Z M 246.33 0 L 270.94 0 L 270.94 -5.57 L 251.9 -5.57 L 251.9 -14.62 L 266.29 -14.62 L 266.29 -20.19 L 251.9 -20.19 L 251.9 -26.93 L 270.94 -26.93 L 270.94 -32.5 L 246.33 -32.5 Z M 277.44 0 L 283.01 0 L 283.01 -5.57 L 277.44 -5.57 Z M 295.54 0 L 297.63 -5.11 L 313.88 -5.11 L 315.97 0 L 322 0 L 308.77 -32.5 L 302.74 -32.5 L 289.51 0 Z M 299.91 -10.68 L 305.76 -25.07 L 311.6 -10.68 Z M 334.07 0 L 334.07 -12.3 L 347.96 -12.3 C 353.48 -12.3 358.08 -16.85 358.08 -22.38 C 358.08 -27.95 353.48 -32.5 347.96 -32.5 L 328.5 -32.5 L 328.5 0 Z M 334.07 -17.87 L 334.07 -26.93 L 347.96 -26.93 C 350.79 -26.93 352.5 -25.26 352.5 -22.38 C 352.5 -19.54 350.79 -17.87 347.96 -17.87 Z M 370.15 0 L 370.15 -12.3 L 384.03 -12.3 C 389.55 -12.3 394.15 -16.85 394.15 -22.38 C 394.15 -27.95 389.55 -32.5 384.03 -32.5 L 364.58 -32.5 L 364.58 0 Z M 370.15 -17.87 L 370.15 -26.93 L 384.03 -26.93 C 386.86 -26.93 388.58 -25.26 388.58 -22.38 C 388.58 -19.54 386.86 -17.87 384.03 -17.87 Z" stroke-linecap="round" />
</g>
</g>
</g>
<g transform="matrix(1.9211538461538462 0 0 1.9211538461538462 644.4183562557215 750.9647972941073)" id="tagline-1d7e4b57-2e88-4da7-8ff2-7c98f9f65a42-logo"  >
<g style=""  paint-order="stroke"   >
		<g transform="matrix(1 0 0 1 5.684342e-14 0)" id="tagline-1d7e4b57-2e88-4da7-8ff2-7c98f9f65a42-logo-path-0"  >
<path style="stroke: none; stroke-width: 0; stroke-dasharray: none; stroke-linecap: butt; stroke-dashoffset: 0; stroke-linejoin: miter; stroke-miterlimit: 4; fill: rgb(0,243,228); fill-rule: nonzero; opacity: 1;"  paint-order="stroke"  transform=" translate(-175.39000000000001, 7)" d="M 0.8 0 L 9.18 0 C 11.56 0 13.54 -1.96 13.54 -4.36 C 13.54 -5.66 12.96 -6.82 12.04 -7.62 C 12.62 -8.3 12.98 -9.2 12.98 -10.16 C 12.98 -12.28 11.26 -14 9.12 -14 L 0.8 -14 Z M 3.2 -2.4 L 3.2 -6.3 L 9.12 -6.3 L 9.18 -6.3 C 10.4 -6.3 11.14 -5.58 11.14 -4.36 C 11.14 -3.12 10.4 -2.4 9.18 -2.4 Z M 3.2 -8.7 L 3.2 -11.6 L 9.12 -11.6 C 10.1 -11.6 10.58 -11.12 10.58 -10.16 C 10.58 -9.2 10.1 -8.7 9.12 -8.7 Z M 25.14 0 L 35.74 0 L 35.74 -2.4 L 27.54 -2.4 L 27.54 -6.3 L 33.74 -6.3 L 33.74 -8.7 L 27.54 -8.7 L 27.54 -11.6 L 35.74 -11.6 L 35.74 -14 L 25.14 -14 Z M 55.12 -10.54 L 57.52 -10.54 C 57.52 -12.82 55.84 -14.1 52.7 -14.1 C 49.82 -14.1 47.92 -12.98 47.92 -10.54 C 47.92 -8.34 49.3 -7.26 52.44 -6.58 C 55.66 -5.88 56.26 -5.68 56.26 -4.44 C 56.26 -2.7 55.56 -2.3 52.7 -2.3 C 50.64 -2.3 49.86 -2.62 49.42 -3.4 L 47.34 -2.24 C 48.24 -0.64 50.04 0.1 52.7 0.1 C 56.4 0.1 58.66 -1.18 58.66 -4.44 C 58.66 -7.42 56.4 -8.18 52.96 -8.94 C 50.62 -9.44 50.32 -9.62 50.32 -10.54 C 50.32 -11.5 50.66 -11.7 52.7 -11.7 C 54.8 -11.7 55.12 -11.48 55.12 -10.54 Z M 76.16 0 L 76.16 -11.6 L 81.06 -11.6 L 81.06 -14 L 68.86 -14 L 68.86 -11.6 L 73.76 -11.6 L 73.76 0 Z M 109.26 0 L 110.16 -2.2 L 117.16 -2.2 L 118.06 0 L 120.66 0 L 114.96 -14 L 112.36 -14 L 106.66 0 Z M 111.14 -4.6 L 113.66 -10.8 L 116.18 -4.6 Z M 134.66 0 L 134.66 -5.3 L 140.64 -5.3 C 143.02 -5.3 145 -7.26 145 -9.64 C 145 -12.04 143.02 -14 140.64 -14 L 132.26 -14 L 132.26 0 Z M 134.66 -7.7 L 134.66 -11.6 L 140.64 -11.6 C 141.86 -11.6 142.6 -10.88 142.6 -9.64 C 142.6 -8.42 141.86 -7.7 140.64 -7.7 Z M 159 0 L 159 -5.3 L 164.98 -5.3 C 167.36 -5.3 169.34 -7.26 169.34 -9.64 C 169.34 -12.04 167.36 -14 164.98 -14 L 156.6 -14 L 156.6 0 Z M 159 -7.7 L 159 -11.6 L 164.98 -11.6 C 166.2 -11.6 166.94 -10.88 166.94 -9.64 C 166.94 -8.42 166.2 -7.7 164.98 -7.7 Z M 188.72 -10.54 L 191.12 -10.54 C 191.12 -12.82 189.44 -14.1 186.3 -14.1 C 183.42 -14.1 181.52 -12.98 181.52 -10.54 C 181.52 -8.34 182.9 -7.26 186.04 -6.58 C 189.26 -5.88 189.86 -5.68 189.86 -4.44 C 189.86 -2.7 189.16 -2.3 186.3 -2.3 C 184.24 -2.3 183.46 -2.62 183.02 -3.4 L 180.94 -2.24 C 181.84 -0.64 183.64 0.1 186.3 0.1 C 190 0.1 192.26 -1.18 192.26 -4.44 C 192.26 -7.42 190 -8.18 186.56 -8.94 C 184.22 -9.44 183.92 -9.62 183.92 -10.54 C 183.92 -11.5 184.26 -11.7 186.3 -11.7 C 188.4 -11.7 188.72 -11.48 188.72 -10.54 Z M 220.26 0 L 220.26 -14 L 217.86 -14 L 217.86 0 Z M 239.64 -10.54 L 242.04 -10.54 C 242.04 -12.82 240.36 -14.1 237.22 -14.1 C 234.34 -14.1 232.44 -12.98 232.44 -10.54 C 232.44 -8.34 233.82 -7.26 236.96 -6.58 C 240.18 -5.88 240.78 -5.68 240.78 -4.44 C 240.78 -2.7 240.08 -2.3 237.22 -2.3 C 235.16 -2.3 234.38 -2.62 233.94 -3.4 L 231.86 -2.24 C 232.76 -0.64 234.56 0.1 237.22 0.1 C 240.92 0.1 243.18 -1.18 243.18 -4.44 C 243.18 -7.42 240.92 -8.18 237.48 -8.94 C 235.14 -9.44 234.84 -9.62 234.84 -10.54 C 234.84 -11.5 235.18 -11.7 237.22 -11.7 C 239.32 -11.7 239.64 -11.48 239.64 -10.54 Z M 271.18 0 L 271.18 -5.8 L 278.18 -5.8 L 278.18 0 L 280.58 0 L 280.58 -14 L 278.18 -14 L 278.18 -8.2 L 271.18 -8.2 L 271.18 -14 L 268.78 -14 L 268.78 0 Z M 292.18 0 L 302.78 0 L 302.78 -2.4 L 294.58 -2.4 L 294.58 -6.3 L 300.78 -6.3 L 300.78 -8.7 L 294.58 -8.7 L 294.58 -11.6 L 302.78 -11.6 L 302.78 -14 L 292.18 -14 Z M 316.78 0 L 316.78 -5.3 L 321.76 -5.3 L 324.98 0 L 327.78 0 L 324.38 -5.62 C 325.98 -6.26 327.12 -7.82 327.12 -9.64 C 327.12 -12.04 325.14 -14 322.76 -14 L 314.38 -14 L 314.38 0 Z M 316.78 -7.7 L 316.78 -11.6 L 322.76 -11.6 C 323.98 -11.6 324.72 -10.88 324.72 -9.64 C 324.72 -8.42 323.98 -7.7 322.76 -7.7 Z M 339.38 0 L 349.98 0 L 349.98 -2.4 L 341.78 -2.4 L 341.78 -6.3 L 347.98 -6.3 L 347.98 -8.7 L 341.78 -8.7 L 341.78 -11.6 L 349.98 -11.6 L 349.98 -14 L 339.38 -14 Z" stroke-linecap="round" />
</g>
</g>
</g>
</svg>