<svg width="750" height="500" viewBox="0 0 750 500" fill="none" xmlns="http://www.w3.org/2000/svg">
<g filter="url(#filter0_d_4_3)">
<path d="M524.48 422.9L532.32 422.96L532.41 412.47L524.57 412.41C524.16 410.89 523.57 409.44 522.82 408.09L528.41 402.59L521.05 395.11L515.46 400.61C514.12 399.84 512.68 399.23 511.17 398.79L511.23 390.95L500.74 390.86L500.68 398.7C499.16 399.11 497.71 399.7 496.36 400.45L490.86 394.86L483.38 402.22L488.88 407.81C488.11 409.15 487.5 410.59 487.06 412.1L479.22 412.04L479.13 422.53L486.97 422.59C487.38 424.11 487.97 425.56 488.72 426.91L483.13 432.41L490.49 439.89L496.08 434.39C497.42 435.16 498.86 435.77 500.37 436.21L500.31 444.05L510.8 444.14L510.86 436.3C512.38 435.89 513.83 435.3 515.18 434.55L520.68 440.14L528.16 432.78L522.66 427.19C523.43 425.85 524.04 424.41 524.48 422.9ZM505.7 426.1C500.95 426.06 497.13 422.18 497.17 417.43C497.21 412.68 501.09 408.86 505.84 408.9C510.59 408.94 514.41 412.82 514.37 417.57C514.33 422.32 510.45 426.14 505.7 426.1Z" fill="url(#paint0_linear_4_3)"/>
</g>
<g filter="url(#filter1_d_4_3)">
<path d="M269.9 115.92L270.63 127.85L286.6 126.88L285.87 114.95C288.14 114.16 290.28 113.11 292.26 111.84L301.21 119.76L311.81 107.78L302.86 99.86C303.89 97.74 304.67 95.49 305.18 93.14L317.11 92.41L316.14 76.44L304.21 77.17C303.42 74.9 302.37 72.76 301.1 70.78L309.02 61.83L297.04 51.23L289.12 60.18C287 59.15 284.75 58.37 282.4 57.86L281.67 45.93L265.7 46.9L266.43 58.83C264.16 59.62 262.02 60.67 260.04 61.94L251.09 54.02L240.49 66L249.44 73.92C248.41 76.04 247.63 78.29 247.12 80.64L235.19 81.37L236.16 97.34L248.09 96.61C248.88 98.88 249.93 101.02 251.2 103L243.28 111.95L255.26 122.55L263.18 113.6C265.3 114.63 267.55 115.41 269.9 115.92ZM263.06 87.69C262.62 80.46 268.12 74.25 275.35 73.81C282.58 73.37 288.79 78.87 289.23 86.1C289.67 93.33 284.17 99.54 276.94 99.98C269.71 100.42 263.5 94.92 263.06 87.69Z" fill="url(#paint1_linear_4_3)"/>
</g>
<rect x="470.46" y="77.5298" width="109.12" height="148.46" rx="12" fill="black" fill-opacity="0.01"/>
<g opacity="0.4" filter="url(#filter3_d_4_3)">
<path d="M570.75 77.5298H479.29C474.413 77.5298 470.46 81.4831 470.46 86.3598V217.16C470.46 222.036 474.413 225.99 479.29 225.99H570.75C575.627 225.99 579.58 222.036 579.58 217.16V86.3598C579.58 81.4831 575.627 77.5298 570.75 77.5298Z" fill="white"/>
</g>
<rect x="265.18" y="86.77" width="188.93" height="362.9" rx="35" fill="black" fill-opacity="0.01"/>
<g filter="url(#filter5_d_4_3)">
<path d="M419.85 95.03H299.43C284.43 95.03 272.27 107.19 272.27 122.19V414.25C272.27 429.25 284.43 441.41 299.43 441.41H419.85C434.85 441.41 447.01 429.25 447.01 414.25V122.19C447.01 107.19 434.85 95.03 419.85 95.03Z" fill="url(#paint2_linear_4_3)"/>
<path d="M418.19 86.77H301.1C281.26 86.77 265.18 102.85 265.18 122.69V413.75C265.18 433.59 281.26 449.67 301.1 449.67H418.19C438.03 449.67 454.11 433.59 454.11 413.75V122.69C454.11 102.85 438.03 86.77 418.19 86.77ZM447.02 414.25C447.02 429.25 434.86 441.41 419.86 441.41H299.44C284.44 441.41 272.28 429.25 272.28 414.25V122.19C272.28 107.19 284.44 95.03 299.44 95.03H419.86C434.86 95.03 447.02 107.19 447.02 122.19V414.25Z" fill="#EDB971" fill-opacity="0.7"/>
<path d="M379.58 109.89H339.89C331.67 109.89 325 103.23 325 95H394.47C394.47 103.22 387.81 109.89 379.58 109.89Z" fill="#EDB971" fill-opacity="0.7"/>
<path d="M368.38 99.42H339.63V101.76H368.38V99.42Z" fill="url(#paint3_linear_4_3)"/>
<path d="M379.84 100.59C379.84 101.5 379.1 102.24 378.19 102.24C377.28 102.24 376.54 101.5 376.54 100.59C376.54 99.68 377.28 98.94 378.19 98.94C379.1 98.94 379.84 99.68 379.84 100.59Z" fill="url(#paint4_linear_4_3)"/>
</g>
<rect x="286.29" y="148.14" width="65.7" height="65.7" rx="12" fill="black" fill-opacity="0.01"/>
<path d="M344.86 148.14H293.42C289.482 148.14 286.29 151.332 286.29 155.27V206.71C286.29 210.648 289.482 213.84 293.42 213.84H344.86C348.798 213.84 351.99 210.648 351.99 206.71V155.27C351.99 151.332 348.798 148.14 344.86 148.14Z" fill="white" fill-opacity="0.12"/>
<path opacity="0.92" d="M425.87 148.14H374.43C370.492 148.14 367.3 151.332 367.3 155.27V206.71C367.3 210.648 370.492 213.84 374.43 213.84H425.87C429.808 213.84 433 210.648 433 206.71V155.27C433 151.332 429.808 148.14 425.87 148.14Z" stroke="white" stroke-width="0.89" stroke-miterlimit="10"/>
<path opacity="0.92" d="M344.86 239.91H293.42C289.482 239.91 286.29 243.102 286.29 247.04V298.48C286.29 302.418 289.482 305.61 293.42 305.61H344.86C348.798 305.61 351.99 302.418 351.99 298.48V247.04C351.99 243.102 348.798 239.91 344.86 239.91Z" stroke="white" stroke-width="0.89" stroke-miterlimit="10"/>
<rect x="367.3" y="239.91" width="65.7" height="65.7" rx="12" fill="black" fill-opacity="0.01"/>
<path d="M425.87 239.91H374.43C370.492 239.91 367.3 243.102 367.3 247.04V298.48C367.3 302.418 370.492 305.61 374.43 305.61H425.87C429.808 305.61 433 302.418 433 298.48V247.04C433 243.102 429.808 239.91 425.87 239.91Z" fill="#F9FFE5" fill-opacity="0.21"/>
<rect x="286.29" y="331.68" width="65.7" height="65.7" rx="12" fill="black" fill-opacity="0.01"/>
<path d="M344.86 331.68H293.42C289.482 331.68 286.29 334.872 286.29 338.81V390.25C286.29 394.188 289.482 397.38 293.42 397.38H344.86C348.798 397.38 351.99 394.188 351.99 390.25V338.81C351.99 334.872 348.798 331.68 344.86 331.68Z" fill="white" fill-opacity="0.12"/>
<path opacity="0.92" d="M425.87 331.68H374.43C370.492 331.68 367.3 334.872 367.3 338.81V390.25C367.3 394.188 370.492 397.38 374.43 397.38H425.87C429.808 397.38 433 394.188 433 390.25V338.81C433 334.872 429.808 331.68 425.87 331.68Z" stroke="white" stroke-width="0.89" stroke-miterlimit="10"/>
<path d="M345.28 172.77L320.42 162.06L295.57 172.77H302.22V199.91H315.78V185.04H325.07V199.91H338.62V172.77H345.28Z" fill="#F3F3F3"/>
<path d="M388.57 275.7H379.58V294.79H388.57V275.7Z" fill="#F3F3F3"/>
<path d="M404.36 263.25H395.37V294.79H404.36V263.25Z" fill="#F3F3F3"/>
<path d="M420.72 251.59H411.73V294.79H420.72V251.59Z" fill="#F3F3F3"/>
<path d="M334.32 348.97H303.95C300.29 348.97 297.32 351.94 297.32 355.6V370.84C297.32 373.64 299.06 376.03 301.52 377H301.51L305.38 384.73L309.56 377.46H334.32C337.98 377.46 340.95 374.49 340.95 370.83V355.59C340.95 351.93 337.98 348.96 334.32 348.96V348.97ZM307.29 367.46C304.9 367.46 302.96 365.52 302.96 363.13C302.96 360.74 304.9 358.8 307.29 358.8C309.68 358.8 311.62 360.74 311.62 363.13C311.62 365.52 309.68 367.46 307.29 367.46ZM319.14 367.46C316.75 367.46 314.81 365.52 314.81 363.13C314.81 360.74 316.75 358.8 319.14 358.8C321.53 358.8 323.47 360.74 323.47 363.13C323.47 365.52 321.53 367.46 319.14 367.46ZM330.99 367.46C328.6 367.46 326.66 365.52 326.66 363.13C326.66 360.74 328.6 358.8 330.99 358.8C333.38 358.8 335.32 360.74 335.32 363.13C335.32 365.52 333.38 367.46 330.99 367.46Z" fill="#F3F3F3"/>
<path d="M569.83 212.29H480.21V212.97H569.83V212.29Z" fill="url(#paint5_linear_4_3)"/>
<path d="M569.83 181.86H480.21V182.54H569.83V181.86Z" fill="url(#paint6_linear_4_3)"/>
<path d="M569.83 151.42H480.21V152.1H569.83V151.42Z" fill="url(#paint7_linear_4_3)"/>
<path d="M569.83 120.98H480.21V121.66H569.83V120.98Z" fill="url(#paint8_linear_4_3)"/>
<path d="M569.83 90.55H480.21V91.23H569.83V90.55Z" fill="url(#paint9_linear_4_3)"/>
<path d="M499.74 90.89H493.73V212.2H499.74V90.89Z" fill="url(#paint10_linear_4_3)"/>
<path d="M515.5 90.89H509.49V212.2H515.5V90.89Z" fill="url(#paint11_linear_4_3)"/>
<path d="M531.26 90.89H525.25V212.2H531.26V90.89Z" fill="url(#paint12_linear_4_3)"/>
<path d="M547.02 90.89H541.01V212.2H547.02V90.89Z" fill="url(#paint13_linear_4_3)"/>
<path d="M562.79 90.89H556.78V212.2H562.79V90.89Z" fill="url(#paint14_linear_4_3)"/>
<path d="M499.74 156.5H493.73V212.19H499.74V156.5Z" fill="url(#paint15_linear_4_3)"/>
<path d="M515.5 172.13H509.49V212.19H515.5V172.13Z" fill="url(#paint16_linear_4_3)"/>
<path d="M531.26 127.79H525.25V212.19H531.26V127.79Z" fill="url(#paint17_linear_4_3)"/>
<path d="M547.02 143.62H541.01V212.19H547.02V143.62Z" fill="#EDB971"/>
<path d="M562.79 179.65H556.78V212.2H562.79V179.65Z" fill="url(#paint18_linear_4_3)"/>
<path d="M499.74 90.89H493.73V110.82H499.74V90.89Z" fill="url(#paint19_linear_4_3)"/>
<path d="M515.5 90.89H509.49V124.84H515.5V90.89Z" fill="url(#paint20_linear_4_3)"/>
<path d="M531.26 90.89H525.25V106.9H531.26V90.89Z" fill="url(#paint21_linear_4_3)"/>
<path d="M547.02 90.89H541.01V110.82H547.02V90.89Z" fill="url(#paint22_linear_4_3)"/>
<path d="M562.79 90.89H556.78V124.84H562.79V90.89Z" fill="url(#paint23_linear_4_3)"/>
<rect x="102.59" y="107.23" width="189.07" height="124.33" rx="12" fill="black" fill-opacity="0.01"/>
<path opacity="0.4" d="M280.75 107.23H113.5C107.475 107.23 102.59 112.115 102.59 118.14V220.65C102.59 226.675 107.475 231.56 113.5 231.56H280.75C286.775 231.56 291.66 226.675 291.66 220.65V118.14C291.66 112.115 286.775 107.23 280.75 107.23Z" fill="white"/>
<g filter="url(#filter10_d_4_3)">
<path d="M110.44 222.503C110.44 222.505 110.44 222.509 110.442 222.507C111.427 221.287 151.704 181.173 164.147 168.786C166.137 166.805 169.362 166.857 171.294 168.894L204.824 204.232C206.836 206.353 210.23 206.302 212.178 204.123L232.908 180.936C234.809 178.809 238.103 178.702 240.139 180.702L273.976 213.933C277.17 217.069 274.949 222.5 270.473 222.5H110.443C110.441 222.5 110.44 222.501 110.44 222.503Z" fill="url(#paint24_linear_4_3)"/>
</g>
<g filter="url(#filter11_d_4_3)">
<path d="M209.02 167.4C219.657 167.4 228.28 158.777 228.28 148.14C228.28 137.503 219.657 128.88 209.02 128.88C198.383 128.88 189.76 137.503 189.76 148.14C189.76 158.777 198.383 167.4 209.02 167.4Z" fill="#FF8E1B"/>
</g>
<rect x="442.77" y="244.4" width="178.16" height="89.95" rx="12" fill="black" fill-opacity="0.01"/>
<g opacity="0.4" filter="url(#filter13_d_4_3)">
<path d="M612.1 244.4H451.6C446.723 244.4 442.77 248.353 442.77 253.23V325.52C442.77 330.397 446.723 334.35 451.6 334.35H612.1C616.977 334.35 620.93 330.397 620.93 325.52V253.23C620.93 248.353 616.977 244.4 612.1 244.4Z" fill="white"/>
</g>
<g filter="url(#filter14_d_4_3)">
<path d="M531.85 307.33C545.944 307.33 557.37 295.904 557.37 281.81C557.37 267.716 545.944 256.29 531.85 256.29C517.756 256.29 506.33 267.716 506.33 281.81C506.33 295.904 517.756 307.33 531.85 307.33Z" fill="url(#paint25_linear_4_3)"/>
<path d="M523.44 268.91L545.79 281.81L523.44 294.72V268.91Z" fill="white"/>
</g>
<path d="M603.38 320.46H460.32C459.24 320.46 458.36 319.58 458.36 318.5C458.36 317.42 459.24 316.54 460.32 316.54H603.38C604.46 316.54 605.34 317.42 605.34 318.5C605.34 319.58 604.46 320.46 603.38 320.46Z" fill="url(#paint26_linear_4_3)"/>
<path d="M491.1 318.5C491.1 320.97 489.1 322.98 486.62 322.98C484.14 322.98 482.14 320.98 482.14 318.5C482.14 316.02 484.14 314.02 486.62 314.02C489.1 314.02 491.1 316.02 491.1 318.5Z" fill="white"/>
<rect x="68" y="225" width="65.7" height="65.7" rx="12" fill="black" fill-opacity="0.01"/>
<g filter="url(#filter16_d_4_3)">
<path d="M126.57 225H75.13C71.1922 225 68 228.192 68 232.13V283.57C68 287.508 71.1922 290.7 75.13 290.7H126.57C130.508 290.7 133.7 287.508 133.7 283.57V232.13C133.7 228.192 130.508 225 126.57 225Z" fill="url(#paint27_linear_4_3)"/>
</g>
<g filter="url(#filter17_d_4_3)">
<path d="M106.95 243.31C100.26 237.39 90.01 238.02 84.09 244.71C78.17 251.4 78.8 261.65 85.49 267.57C91.42 272.81 100.14 272.91 106.17 268.21L119.49 279.99L123.43 275.54L110.11 263.76C114.04 257.2 112.88 248.56 106.96 243.32L106.95 243.31ZM105.71 263.84C101.08 269.07 93.05 269.56 87.82 264.93C82.59 260.3 82.1 252.28 86.73 247.04C91.36 241.81 99.39 241.32 104.62 245.95C109.85 250.58 110.34 258.61 105.71 263.84Z" fill="#F3F3F3"/>
</g>
<g filter="url(#filter18_d_4_3)">
<path d="M637.92 304.15H586.48C582.542 304.15 579.35 307.342 579.35 311.28V362.72C579.35 366.658 582.542 369.85 586.48 369.85H637.92C641.858 369.85 645.05 366.658 645.05 362.72V311.28C645.05 307.342 641.858 304.15 637.92 304.15Z" fill="url(#paint28_linear_4_3)"/>
</g>
<g filter="url(#filter19_d_4_3)">
<path d="M622.3 327.67C622.3 333.08 617.78 337.47 612.2 337.47C606.62 337.47 602.1 333.08 602.1 327.67C602.1 322.26 606.62 317.87 612.2 317.87C617.78 317.87 622.3 322.26 622.3 327.67Z" fill="white"/>
<path d="M596.83 355.1C596.83 355.45 596.91 355.79 596.94 356.13H627.46C627.49 355.78 627.57 355.45 627.57 355.1C627.57 347.06 620.99 340.55 612.78 340.25H611.63C603.41 340.55 596.84 347.06 596.84 355.1H596.83Z" fill="white"/>
</g>
<rect x="520.21" y="355.49" width="65.7" height="65.7" rx="12" fill="black" fill-opacity="0.01"/>
<g filter="url(#filter21_d_4_3)">
<path d="M578.78 355.49H527.34C523.402 355.49 520.21 358.682 520.21 362.62V414.06C520.21 417.998 523.402 421.19 527.34 421.19H578.78C582.718 421.19 585.91 417.998 585.91 414.06V362.62C585.91 358.682 582.718 355.49 578.78 355.49Z" fill="#A231FF" fill-opacity="0.65"/>
</g>
<path d="M553.06 364.77C543.28 364.77 535.34 372.7 535.34 382.49C535.34 392.28 553.06 411.91 553.06 411.91C553.06 411.91 570.78 392.28 570.78 382.49C570.78 372.7 562.85 364.77 553.06 364.77ZM553.06 390.86C548.49 390.86 544.79 387.16 544.79 382.59C544.79 378.02 548.49 374.32 553.06 374.32C557.63 374.32 561.33 378.02 561.33 382.59C561.33 387.16 557.63 390.86 553.06 390.86Z" fill="white"/>
<g filter="url(#filter22_d_4_3)">
<path d="M578.78 355.49H527.34C523.402 355.49 520.21 358.682 520.21 362.62V414.06C520.21 417.998 523.402 421.19 527.34 421.19H578.78C582.718 421.19 585.91 417.998 585.91 414.06V362.62C585.91 358.682 582.718 355.49 578.78 355.49Z" fill="url(#paint29_linear_4_3)"/>
</g>
<path d="M553.06 364.77C543.28 364.77 535.34 372.7 535.34 382.49C535.34 392.28 553.06 411.91 553.06 411.91C553.06 411.91 570.78 392.28 570.78 382.49C570.78 372.7 562.85 364.77 553.06 364.77ZM553.06 390.86C548.49 390.86 544.79 387.16 544.79 382.59C544.79 378.02 548.49 374.32 553.06 374.32C557.63 374.32 561.33 378.02 561.33 382.59C561.33 387.16 557.63 390.86 553.06 390.86Z" fill="white"/>
<rect x="61.65" y="339.77" width="66.45" height="61.9" rx="12" fill="black" fill-opacity="0.01"/>
<g filter="url(#filter24_d_4_3)">
<path d="M122.72 339.77H67.03C64.0587 339.77 61.65 342.179 61.65 345.15V396.29C61.65 399.261 64.0587 401.67 67.03 401.67H122.72C125.691 401.67 128.1 399.261 128.1 396.29V345.15C128.1 342.179 125.691 339.77 122.72 339.77Z" fill="url(#paint30_linear_4_3)"/>
</g>
<path d="M102.89 389.78H87.29V395.79H102.89V389.78Z" fill="#F3F3F3"/>
<path d="M106.81 374.93L95.89 352.51C95.79 352.3 95.48 352.38 95.48 352.61V369.96C96.47 370.23 97.17 371.21 96.98 372.33C96.83 373.16 96.15 373.85 95.32 374C94 374.23 92.86 373.23 92.86 371.96C92.86 371 93.51 370.21 94.39 369.96V352.63C94.39 352.4 94.08 352.33 93.98 352.54L83.06 374.96C82.54 376.03 82.52 377.28 83 378.37L87.37 388.2L95.01 388.08V388.06L102.52 388.18L106.89 378.35C107.37 377.26 107.35 376.01 106.83 374.94L106.81 374.93Z" fill="#F3F3F3"/>
<path d="M71.64 348.91C71.64 350.03 70.73 350.94 69.61 350.94C68.49 350.94 67.58 350.03 67.58 348.91C67.58 347.79 68.49 346.88 69.61 346.88C70.73 346.88 71.64 347.79 71.64 348.91Z" fill="#F3F3F3"/>
<path d="M122.53 348.91C122.53 350.03 121.62 350.94 120.5 350.94C119.38 350.94 118.47 350.03 118.47 348.91C118.47 347.79 119.38 346.88 120.5 346.88C121.62 346.88 122.53 347.79 122.53 348.91Z" fill="#F3F3F3"/>
<path d="M96.59 347.2H93.29V350.5H96.59V347.2Z" fill="#F3F3F3"/>
<path d="M120.5 349.19C120.01 349.19 71.1 349.11 69.63 349.19L69.6 348.64C71.09 348.56 118.48 348.64 120.5 348.64V349.2V349.19Z" fill="#F3F3F3"/>
<path d="M115.49 364.29C112.66 355.26 104.4 349.2 94.93 349.2C85.46 349.2 77.2 355.27 74.37 364.29L73.84 364.12C76.74 354.86 85.22 348.64 94.93 348.64C104.64 348.64 113.12 354.86 116.02 364.12L115.49 364.29Z" fill="#F3F3F3"/>
<path d="M116.89 362.38H113.59V365.68H116.89V362.38Z" fill="#F3F3F3"/>
<path d="M76.04 362.38H72.74V365.68H76.04V362.38Z" fill="#F3F3F3"/>
<path d="M122.3 245.58H248.72V273.56H321.88" stroke="white" stroke-width="2" stroke-miterlimit="10"/>
<path d="M320.69 277.58C322.794 277.58 324.5 275.874 324.5 273.77C324.5 271.666 322.794 269.96 320.69 269.96C318.586 269.96 316.88 271.666 316.88 273.77C316.88 275.874 318.586 277.58 320.69 277.58Z" fill="white"/>
<path d="M125.62 249.81C127.724 249.81 129.43 248.104 129.43 246C129.43 243.896 127.724 242.19 125.62 242.19C123.516 242.19 121.81 243.896 121.81 246C121.81 248.104 123.516 249.81 125.62 249.81Z" fill="white"/>
<path d="M404.45 180.31C404.45 182.42 402.74 184.12 400.64 184.12C398.54 184.12 396.83 182.41 396.83 180.31C396.83 178.21 398.54 176.5 400.64 176.5C402.74 176.5 404.45 178.21 404.45 180.31Z" fill="white"/>
<path d="M654.05 339.64C654.05 341.75 652.34 343.46 650.24 343.46C648.14 343.46 646.42 341.75 646.42 339.64C646.42 337.53 648.13 335.83 650.24 335.83C652.35 335.83 654.05 337.54 654.05 339.64Z" fill="white"/>
<path d="M400.64 180.31V233.7H683.32V340.23H649.94" stroke="white" stroke-width="2" stroke-miterlimit="10"/>
<g filter="url(#filter25_d_4_3)">
<path d="M677.65 181.67C674.26 181.67 671.13 182.75 668.56 184.58C668.58 184.25 668.61 183.92 668.61 183.59C668.61 174.91 661.57 167.87 652.89 167.87C647.07 167.87 642 171.04 639.28 175.74C637.27 169.37 631.32 164.76 624.29 164.76C615.61 164.76 608.57 171.8 608.57 180.48C608.57 180.91 608.6 181.33 608.63 181.74C608.22 181.71 607.82 181.68 607.4 181.68C598.72 181.68 591.68 188.72 591.68 197.4C591.68 206.08 598.72 213.12 607.4 213.12H677.65C686.33 213.12 693.37 206.08 693.37 197.4C693.37 188.72 686.33 181.68 677.65 181.68V181.67Z" fill="url(#paint31_linear_4_3)"/>
<path d="M634.82 213.12L626.04 237.51H640.09L633.07 261.12L659.31 231.98L645.16 232.05L655.5 213.12H634.82Z" fill="url(#paint32_linear_4_3)"/>
</g>
<path d="M399.61 368C401.72 368 403.43 366.29 403.43 364.18C403.43 362.07 401.72 360.36 399.61 360.36C397.5 360.36 395.79 362.07 395.79 364.18C395.79 366.29 397.5 368 399.61 368Z" fill="white"/>
<path d="M511.94 373.86C513.18 372.15 515.56 371.77 517.27 373.01C518.98 374.25 519.36 376.63 518.12 378.34C516.88 380.05 514.5 380.43 512.79 379.19C511.08 377.95 510.7 375.57 511.94 373.86Z" fill="white"/>
<path d="M399.61 364.18H489.28V376H515.34" stroke="white" stroke-width="2" stroke-miterlimit="10"/>
<g filter="url(#filter26_d_4_3)">
<path d="M241.24 376.46H169.57C167.394 376.46 165.63 378.224 165.63 380.4V412.68C165.63 414.856 167.394 416.62 169.57 416.62H241.24C243.416 416.62 245.18 414.856 245.18 412.68V380.4C245.18 378.224 243.416 376.46 241.24 376.46Z" fill="#FF31E0" fill-opacity="0.65"/>
</g>
<path d="M193.46 408.37C193.09 408.37 192.71 408.24 192.41 407.97L180.47 397.5C180.12 397.2 179.93 396.76 179.93 396.3C179.93 395.84 180.13 395.4 180.47 395.1L192.41 384.63C193.07 384.05 194.08 384.12 194.66 384.78C195.24 385.44 195.17 386.45 194.51 387.03L183.94 396.3L194.51 405.57C195.17 406.15 195.24 407.16 194.66 407.82C194.34 408.18 193.9 408.36 193.46 408.36V408.37Z" fill="#EBEBEB"/>
<path d="M217.35 408.37C216.91 408.37 216.47 408.19 216.15 407.83C215.57 407.17 215.64 406.16 216.3 405.58L226.87 396.31L216.3 387.04C215.64 386.46 215.57 385.45 216.15 384.79C216.73 384.13 217.74 384.06 218.4 384.64L230.34 395.11C230.69 395.41 230.88 395.85 230.88 396.31C230.88 396.77 230.68 397.21 230.34 397.51L218.4 407.98C218.1 408.25 217.72 408.38 217.35 408.38V408.37Z" fill="#EBEBEB"/>
<path d="M201.88 412.28C201.74 412.28 201.61 412.26 201.47 412.23C200.62 412 200.11 411.13 200.34 410.28L207.88 382C208.11 381.15 208.98 380.64 209.83 380.87C210.68 381.1 211.19 381.97 210.96 382.82L203.42 411.1C203.23 411.81 202.58 412.29 201.88 412.29V412.28Z" fill="#EBEBEB"/>
<g filter="url(#filter27_d_4_3)">
<path d="M241.24 376.46H169.57C167.394 376.46 165.63 378.224 165.63 380.4V412.68C165.63 414.856 167.394 416.62 169.57 416.62H241.24C243.416 416.62 245.18 414.856 245.18 412.68V380.4C245.18 378.224 243.416 376.46 241.24 376.46Z" fill="url(#paint33_linear_4_3)"/>
</g>
<path d="M193.46 408.37C193.09 408.37 192.71 408.24 192.41 407.97L180.47 397.5C180.12 397.2 179.93 396.76 179.93 396.3C179.93 395.84 180.13 395.4 180.47 395.1L192.41 384.63C193.07 384.05 194.08 384.12 194.66 384.78C195.24 385.44 195.17 386.45 194.51 387.03L183.94 396.3L194.51 405.57C195.17 406.15 195.24 407.16 194.66 407.82C194.34 408.18 193.9 408.36 193.46 408.36V408.37Z" fill="#EBEBEB"/>
<path d="M217.35 408.37C216.91 408.37 216.47 408.19 216.15 407.83C215.57 407.17 215.64 406.16 216.3 405.58L226.87 396.31L216.3 387.04C215.64 386.46 215.57 385.45 216.15 384.79C216.73 384.13 217.74 384.06 218.4 384.64L230.34 395.11C230.69 395.41 230.88 395.85 230.88 396.31C230.88 396.77 230.68 397.21 230.34 397.51L218.4 407.98C218.1 408.25 217.72 408.38 217.35 408.38V408.37Z" fill="#EBEBEB"/>
<path d="M201.88 412.28C201.74 412.28 201.61 412.26 201.47 412.23C200.62 412 200.11 411.13 200.34 410.28L207.88 382C208.11 381.15 208.98 380.64 209.83 380.87C210.68 381.1 211.19 381.97 210.96 382.82L203.42 411.1C203.23 411.81 202.58 412.29 201.88 412.29V412.28Z" fill="#EBEBEB"/>
<rect x="122.32" y="258.07" width="109.12" height="101.65" rx="38" fill="black" fill-opacity="0.01"/>
<rect x="122.32" y="258.07" width="109.12" height="101.65" rx="12" fill="black" fill-opacity="0.01"/>
<g opacity="0.4" filter="url(#filter30_d_4_3)">
<path d="M222.61 258.07H131.15C126.273 258.07 122.32 262.023 122.32 266.9V350.89C122.32 355.767 126.273 359.72 131.15 359.72H222.61C227.487 359.72 231.44 355.767 231.44 350.89V266.9C231.44 262.023 227.487 258.07 222.61 258.07Z" fill="white"/>
</g>
<g filter="url(#filter31_d_4_3)">
<path d="M161.84 301.37H143.74C143.74 283.09 158.61 268.23 176.88 268.23V286.33C168.59 286.33 161.84 293.08 161.84 301.37Z" fill="#FF9E1A"/>
<path d="M191.92 301.37C191.92 309.66 185.17 316.41 176.88 316.41L172.28 325.46L176.88 334.51C195.16 334.51 210.02 319.64 210.02 301.37H191.92Z" fill="#FDC72C"/>
<path d="M161.84 301.37L152.79 296.77L143.74 301.37C143.74 319.65 158.61 334.51 176.88 334.51V316.41C168.59 316.41 161.84 309.66 161.84 301.37Z" fill="#FF8E1B"/>
<path d="M210.03 301.37C210.03 283.09 195.16 268.23 176.89 268.23V286.33C185.18 286.33 191.93 293.08 191.93 301.37L200.98 305.97L210.03 301.37Z" fill="#F7633E"/>
</g>
<path d="M180.91 342.34H131.88V345.65H180.91V342.34Z" fill="#F3F3F3"/>
<path d="M180.91 349.97H131.88V353.28H180.91V349.97Z" fill="#F3F3F3"/>
<path d="M199.52 342.34H189.4V345.65H199.52V342.34Z" fill="#FFC72B"/>
<path d="M214.11 342.34H203.99V345.65H214.11V342.34Z" fill="#F3F3F3"/>
<path d="M199.52 349.97H189.4V353.28H199.52V349.97Z" fill="#EDB971"/>
<path d="M214.11 349.97H203.99V353.28H214.11V349.97Z" fill="#FFC72B"/>
<defs>
<filter id="filter0_d_4_3" x="476.13" y="387.86" width="61.28" height="61.28" filterUnits="userSpaceOnUse" color-interpolation-filters="sRGB">
<feFlood flood-opacity="0" result="BackgroundImageFix"/>
<feColorMatrix in="SourceAlpha" type="matrix" values="0 0 0 0 0 0 0 0 0 0 0 0 0 0 0 0 0 0 127 0" result="hardAlpha"/>
<feOffset dx="1" dy="1"/>
<feGaussianBlur stdDeviation="2"/>
<feColorMatrix type="matrix" values="0 0 0 0 0 0 0 0 0 0 0 0 0 0 0 0 0 0 0.16 0"/>
<feBlend mode="normal" in2="BackgroundImageFix" result="effect1_dropShadow_4_3"/>
<feBlend mode="normal" in="SourceGraphic" in2="effect1_dropShadow_4_3" result="shape"/>
</filter>
<filter id="filter1_d_4_3" x="232.19" y="42.93" width="89.92" height="89.92" filterUnits="userSpaceOnUse" color-interpolation-filters="sRGB">
<feFlood flood-opacity="0" result="BackgroundImageFix"/>
<feColorMatrix in="SourceAlpha" type="matrix" values="0 0 0 0 0 0 0 0 0 0 0 0 0 0 0 0 0 0 127 0" result="hardAlpha"/>
<feOffset dx="1" dy="1"/>
<feGaussianBlur stdDeviation="2"/>
<feColorMatrix type="matrix" values="0 0 0 0 0 0 0 0 0 0 0 0 0 0 0 0 0 0 0.16 0"/>
<feBlend mode="normal" in2="BackgroundImageFix" result="effect1_dropShadow_4_3"/>
<feBlend mode="normal" in="SourceGraphic" in2="effect1_dropShadow_4_3" result="shape"/>
</filter>
<filter id="filter3_d_4_3" x="466.46" y="73.5298" width="121.12" height="160.46" filterUnits="userSpaceOnUse" color-interpolation-filters="sRGB">
<feFlood flood-opacity="0" result="BackgroundImageFix"/>
<feColorMatrix in="SourceAlpha" type="matrix" values="0 0 0 0 0 0 0 0 0 0 0 0 0 0 0 0 0 0 127 0" result="hardAlpha"/>
<feOffset dx="2" dy="2"/>
<feGaussianBlur stdDeviation="3"/>
<feColorMatrix type="matrix" values="0 0 0 0 0 0 0 0 0 0 0 0 0 0 0 0 0 0 0.27 0"/>
<feBlend mode="normal" in2="BackgroundImageFix" result="effect1_dropShadow_4_3"/>
<feBlend mode="normal" in="SourceGraphic" in2="effect1_dropShadow_4_3" result="shape"/>
</filter>
<filter id="filter5_d_4_3" x="262.18" y="84.77" width="200.93" height="374.9" filterUnits="userSpaceOnUse" color-interpolation-filters="sRGB">
<feFlood flood-opacity="0" result="BackgroundImageFix"/>
<feColorMatrix in="SourceAlpha" type="matrix" values="0 0 0 0 0 0 0 0 0 0 0 0 0 0 0 0 0 0 127 0" result="hardAlpha"/>
<feOffset dx="3" dy="4"/>
<feGaussianBlur stdDeviation="3"/>
<feColorMatrix type="matrix" values="0 0 0 0 0 0 0 0 0 0 0 0 0 0 0 0 0 0 0.27 0"/>
<feBlend mode="normal" in2="BackgroundImageFix" result="effect1_dropShadow_4_3"/>
<feBlend mode="normal" in="SourceGraphic" in2="effect1_dropShadow_4_3" result="shape"/>
</filter>
<filter id="filter10_d_4_3" x="102.74" y="163.633" width="180.443" height="70.5749" filterUnits="userSpaceOnUse" color-interpolation-filters="sRGB">
<feFlood flood-opacity="0" result="BackgroundImageFix"/>
<feColorMatrix in="SourceAlpha" type="matrix" values="0 0 0 0 0 0 0 0 0 0 0 0 0 0 0 0 0 0 127 0" result="hardAlpha"/>
<feOffset dy="4"/>
<feGaussianBlur stdDeviation="3.85"/>
<feComposite in2="hardAlpha" operator="out"/>
<feColorMatrix type="matrix" values="0 0 0 0 0 0 0 0 0 0 0 0 0 0 0 0 0 0 0.25 0"/>
<feBlend mode="normal" in2="BackgroundImageFix" result="effect1_dropShadow_4_3"/>
<feBlend mode="normal" in="SourceGraphic" in2="effect1_dropShadow_4_3" result="shape"/>
</filter>
<filter id="filter11_d_4_3" x="185.76" y="128.88" width="46.52" height="46.52" filterUnits="userSpaceOnUse" color-interpolation-filters="sRGB">
<feFlood flood-opacity="0" result="BackgroundImageFix"/>
<feColorMatrix in="SourceAlpha" type="matrix" values="0 0 0 0 0 0 0 0 0 0 0 0 0 0 0 0 0 0 127 0" result="hardAlpha"/>
<feOffset dy="4"/>
<feGaussianBlur stdDeviation="2"/>
<feComposite in2="hardAlpha" operator="out"/>
<feColorMatrix type="matrix" values="0 0 0 0 0 0 0 0 0 0 0 0 0 0 0 0 0 0 0.25 0"/>
<feBlend mode="normal" in2="BackgroundImageFix" result="effect1_dropShadow_4_3"/>
<feBlend mode="normal" in="SourceGraphic" in2="effect1_dropShadow_4_3" result="shape"/>
</filter>
<filter id="filter13_d_4_3" x="438.77" y="240.4" width="190.16" height="101.95" filterUnits="userSpaceOnUse" color-interpolation-filters="sRGB">
<feFlood flood-opacity="0" result="BackgroundImageFix"/>
<feColorMatrix in="SourceAlpha" type="matrix" values="0 0 0 0 0 0 0 0 0 0 0 0 0 0 0 0 0 0 127 0" result="hardAlpha"/>
<feOffset dx="2" dy="2"/>
<feGaussianBlur stdDeviation="3"/>
<feColorMatrix type="matrix" values="0 0 0 0 0 0 0 0 0 0 0 0 0 0 0 0 0 0 0.27 0"/>
<feBlend mode="normal" in2="BackgroundImageFix" result="effect1_dropShadow_4_3"/>
<feBlend mode="normal" in="SourceGraphic" in2="effect1_dropShadow_4_3" result="shape"/>
</filter>
<filter id="filter14_d_4_3" x="502.33" y="252.29" width="63.04" height="63.04" filterUnits="userSpaceOnUse" color-interpolation-filters="sRGB">
<feFlood flood-opacity="0" result="BackgroundImageFix"/>
<feColorMatrix in="SourceAlpha" type="matrix" values="0 0 0 0 0 0 0 0 0 0 0 0 0 0 0 0 0 0 127 0" result="hardAlpha"/>
<feOffset dx="2" dy="2"/>
<feGaussianBlur stdDeviation="3"/>
<feColorMatrix type="matrix" values="0 0 0 0 0 0 0 0 0 0 0 0 0 0 0 0 0 0 0.27 0"/>
<feBlend mode="normal" in2="BackgroundImageFix" result="effect1_dropShadow_4_3"/>
<feBlend mode="normal" in="SourceGraphic" in2="effect1_dropShadow_4_3" result="shape"/>
</filter>
<filter id="filter16_d_4_3" x="64" y="221" width="77.7" height="77.7" filterUnits="userSpaceOnUse" color-interpolation-filters="sRGB">
<feFlood flood-opacity="0" result="BackgroundImageFix"/>
<feColorMatrix in="SourceAlpha" type="matrix" values="0 0 0 0 0 0 0 0 0 0 0 0 0 0 0 0 0 0 127 0" result="hardAlpha"/>
<feOffset dx="2" dy="2"/>
<feGaussianBlur stdDeviation="3"/>
<feColorMatrix type="matrix" values="0 0 0 0 0 0 0 0 0 0 0 0 0 0 0 0 0 0 0.27 0"/>
<feBlend mode="normal" in2="BackgroundImageFix" result="effect1_dropShadow_4_3"/>
<feBlend mode="normal" in="SourceGraphic" in2="effect1_dropShadow_4_3" result="shape"/>
</filter>
<filter id="filter17_d_4_3" x="63.0306" y="222.251" width="79.3994" height="76.7394" filterUnits="userSpaceOnUse" color-interpolation-filters="sRGB">
<feFlood flood-opacity="0" result="BackgroundImageFix"/>
<feColorMatrix in="SourceAlpha" type="matrix" values="0 0 0 0 0 0 0 0 0 0 0 0 0 0 0 0 0 0 127 0" result="hardAlpha"/>
<feOffset dx="1" dy="1"/>
<feGaussianBlur stdDeviation="9"/>
<feColorMatrix type="matrix" values="0 0 0 0 0 0 0 0 0 0 0 0 0 0 0 0 0 0 0.65 0"/>
<feBlend mode="normal" in2="BackgroundImageFix" result="effect1_dropShadow_4_3"/>
<feBlend mode="normal" in="SourceGraphic" in2="effect1_dropShadow_4_3" result="shape"/>
</filter>
<filter id="filter18_d_4_3" x="575.35" y="304.15" width="73.7" height="73.7" filterUnits="userSpaceOnUse" color-interpolation-filters="sRGB">
<feFlood flood-opacity="0" result="BackgroundImageFix"/>
<feColorMatrix in="SourceAlpha" type="matrix" values="0 0 0 0 0 0 0 0 0 0 0 0 0 0 0 0 0 0 127 0" result="hardAlpha"/>
<feOffset dy="4"/>
<feGaussianBlur stdDeviation="2"/>
<feComposite in2="hardAlpha" operator="out"/>
<feColorMatrix type="matrix" values="0 0 0 0 0 0 0 0 0 0 0 0 0 0 0 0 0 0 0.25 0"/>
<feBlend mode="normal" in2="BackgroundImageFix" result="effect1_dropShadow_4_3"/>
<feBlend mode="normal" in="SourceGraphic" in2="effect1_dropShadow_4_3" result="shape"/>
</filter>
<filter id="filter19_d_4_3" x="592.83" y="317.87" width="38.74" height="46.26" filterUnits="userSpaceOnUse" color-interpolation-filters="sRGB">
<feFlood flood-opacity="0" result="BackgroundImageFix"/>
<feColorMatrix in="SourceAlpha" type="matrix" values="0 0 0 0 0 0 0 0 0 0 0 0 0 0 0 0 0 0 127 0" result="hardAlpha"/>
<feOffset dy="4"/>
<feGaussianBlur stdDeviation="2"/>
<feComposite in2="hardAlpha" operator="out"/>
<feColorMatrix type="matrix" values="0 0 0 0 0 0 0 0 0 0 0 0 0 0 0 0 0 0 0.25 0"/>
<feBlend mode="normal" in2="BackgroundImageFix" result="effect1_dropShadow_4_3"/>
<feBlend mode="normal" in="SourceGraphic" in2="effect1_dropShadow_4_3" result="shape"/>
</filter>
<filter id="filter21_d_4_3" x="516.21" y="351.49" width="77.7" height="77.7" filterUnits="userSpaceOnUse" color-interpolation-filters="sRGB">
<feFlood flood-opacity="0" result="BackgroundImageFix"/>
<feColorMatrix in="SourceAlpha" type="matrix" values="0 0 0 0 0 0 0 0 0 0 0 0 0 0 0 0 0 0 127 0" result="hardAlpha"/>
<feOffset dx="2" dy="2"/>
<feGaussianBlur stdDeviation="3"/>
<feColorMatrix type="matrix" values="0 0 0 0 0 0 0 0 0 0 0 0 0 0 0 0 0 0 0.27 0"/>
<feBlend mode="normal" in2="BackgroundImageFix" result="effect1_dropShadow_4_3"/>
<feBlend mode="normal" in="SourceGraphic" in2="effect1_dropShadow_4_3" result="shape"/>
</filter>
<filter id="filter22_d_4_3" x="516.21" y="351.49" width="77.7" height="77.7" filterUnits="userSpaceOnUse" color-interpolation-filters="sRGB">
<feFlood flood-opacity="0" result="BackgroundImageFix"/>
<feColorMatrix in="SourceAlpha" type="matrix" values="0 0 0 0 0 0 0 0 0 0 0 0 0 0 0 0 0 0 127 0" result="hardAlpha"/>
<feOffset dx="2" dy="2"/>
<feGaussianBlur stdDeviation="3"/>
<feColorMatrix type="matrix" values="0 0 0 0 0 0 0 0 0 0 0 0 0 0 0 0 0 0 0.27 0"/>
<feBlend mode="normal" in2="BackgroundImageFix" result="effect1_dropShadow_4_3"/>
<feBlend mode="normal" in="SourceGraphic" in2="effect1_dropShadow_4_3" result="shape"/>
</filter>
<filter id="filter24_d_4_3" x="57.65" y="335.77" width="78.45" height="73.9" filterUnits="userSpaceOnUse" color-interpolation-filters="sRGB">
<feFlood flood-opacity="0" result="BackgroundImageFix"/>
<feColorMatrix in="SourceAlpha" type="matrix" values="0 0 0 0 0 0 0 0 0 0 0 0 0 0 0 0 0 0 127 0" result="hardAlpha"/>
<feOffset dx="2" dy="2"/>
<feGaussianBlur stdDeviation="3"/>
<feColorMatrix type="matrix" values="0 0 0 0 0 0 0 0 0 0 0 0 0 0 0 0 0 0 0.27 0"/>
<feBlend mode="normal" in2="BackgroundImageFix" result="effect1_dropShadow_4_3"/>
<feBlend mode="normal" in="SourceGraphic" in2="effect1_dropShadow_4_3" result="shape"/>
</filter>
<filter id="filter25_d_4_3" x="587.68" y="160.76" width="113.69" height="108.36" filterUnits="userSpaceOnUse" color-interpolation-filters="sRGB">
<feFlood flood-opacity="0" result="BackgroundImageFix"/>
<feColorMatrix in="SourceAlpha" type="matrix" values="0 0 0 0 0 0 0 0 0 0 0 0 0 0 0 0 0 0 127 0" result="hardAlpha"/>
<feOffset dx="2" dy="2"/>
<feGaussianBlur stdDeviation="3"/>
<feColorMatrix type="matrix" values="0 0 0 0 0 0 0 0 0 0 0 0 0 0 0 0 0 0 0.27 0"/>
<feBlend mode="normal" in2="BackgroundImageFix" result="effect1_dropShadow_4_3"/>
<feBlend mode="normal" in="SourceGraphic" in2="effect1_dropShadow_4_3" result="shape"/>
</filter>
<filter id="filter26_d_4_3" x="161.63" y="372.46" width="91.55" height="52.16" filterUnits="userSpaceOnUse" color-interpolation-filters="sRGB">
<feFlood flood-opacity="0" result="BackgroundImageFix"/>
<feColorMatrix in="SourceAlpha" type="matrix" values="0 0 0 0 0 0 0 0 0 0 0 0 0 0 0 0 0 0 127 0" result="hardAlpha"/>
<feOffset dx="2" dy="2"/>
<feGaussianBlur stdDeviation="3"/>
<feColorMatrix type="matrix" values="0 0 0 0 0 0 0 0 0 0 0 0 0 0 0 0 0 0 0.27 0"/>
<feBlend mode="normal" in2="BackgroundImageFix" result="effect1_dropShadow_4_3"/>
<feBlend mode="normal" in="SourceGraphic" in2="effect1_dropShadow_4_3" result="shape"/>
</filter>
<filter id="filter27_d_4_3" x="161.63" y="372.46" width="91.55" height="52.16" filterUnits="userSpaceOnUse" color-interpolation-filters="sRGB">
<feFlood flood-opacity="0" result="BackgroundImageFix"/>
<feColorMatrix in="SourceAlpha" type="matrix" values="0 0 0 0 0 0 0 0 0 0 0 0 0 0 0 0 0 0 127 0" result="hardAlpha"/>
<feOffset dx="2" dy="2"/>
<feGaussianBlur stdDeviation="3"/>
<feColorMatrix type="matrix" values="0 0 0 0 0 0 0 0 0 0 0 0 0 0 0 0 0 0 0.27 0"/>
<feBlend mode="normal" in2="BackgroundImageFix" result="effect1_dropShadow_4_3"/>
<feBlend mode="normal" in="SourceGraphic" in2="effect1_dropShadow_4_3" result="shape"/>
</filter>
<filter id="filter30_d_4_3" x="118.32" y="254.07" width="121.12" height="113.65" filterUnits="userSpaceOnUse" color-interpolation-filters="sRGB">
<feFlood flood-opacity="0" result="BackgroundImageFix"/>
<feColorMatrix in="SourceAlpha" type="matrix" values="0 0 0 0 0 0 0 0 0 0 0 0 0 0 0 0 0 0 127 0" result="hardAlpha"/>
<feOffset dx="2" dy="2"/>
<feGaussianBlur stdDeviation="3"/>
<feColorMatrix type="matrix" values="0 0 0 0 0 0 0 0 0 0 0 0 0 0 0 0 0 0 0.27 0"/>
<feBlend mode="normal" in2="BackgroundImageFix" result="effect1_dropShadow_4_3"/>
<feBlend mode="normal" in="SourceGraphic" in2="effect1_dropShadow_4_3" result="shape"/>
</filter>
<filter id="filter31_d_4_3" x="139.74" y="264.23" width="78.29" height="78.28" filterUnits="userSpaceOnUse" color-interpolation-filters="sRGB">
<feFlood flood-opacity="0" result="BackgroundImageFix"/>
<feColorMatrix in="SourceAlpha" type="matrix" values="0 0 0 0 0 0 0 0 0 0 0 0 0 0 0 0 0 0 127 0" result="hardAlpha"/>
<feOffset dx="2" dy="2"/>
<feGaussianBlur stdDeviation="3"/>
<feColorMatrix type="matrix" values="0 0 0 0 0 0 0 0 0 0 0 0 0 0 0 0 0 0 0.27 0"/>
<feBlend mode="normal" in2="BackgroundImageFix" result="effect1_dropShadow_4_3"/>
<feBlend mode="normal" in="SourceGraphic" in2="effect1_dropShadow_4_3" result="shape"/>
</filter>
<linearGradient id="paint0_linear_4_3" x1="486.94" y1="436.34" x2="524.61" y2="398.67" gradientUnits="userSpaceOnUse">
<stop stop-color="#FFC72B"/>
<stop offset="0.23" stop-color="#FFC72B"/>
<stop offset="0.48" stop-color="#FFD675"/>
<stop offset="0.72" stop-color="#FF8E1B"/>
<stop offset="0.97" stop-color="#EBEBEB"/>
<stop offset="1" stop-color="#FFC72B"/>
</linearGradient>
<linearGradient id="paint1_linear_4_3" x1="273.33" y1="46.3771" x2="278.939" y2="127.403" gradientUnits="userSpaceOnUse">
<stop stop-color="#FFD899"/>
<stop offset="0.23" stop-color="#FFC552"/>
<stop offset="0.48" stop-color="#FFBF2A"/>
<stop offset="0.72" stop-color="#FFCD17"/>
<stop offset="0.97" stop-color="#FF8E1B"/>
<stop offset="1" stop-color="#FFA434"/>
</linearGradient>
<linearGradient id="paint2_linear_4_3" x1="360" y1="95.0002" x2="360" y2="441" gradientUnits="userSpaceOnUse">
<stop stop-color="#FFD675"/>
<stop offset="1" stop-color="#F86383"/>
</linearGradient>
<linearGradient id="paint3_linear_4_3" x1="339.63" y1="100.59" x2="368.38" y2="100.59" gradientUnits="userSpaceOnUse">
<stop stop-color="#CED5F5"/>
<stop offset="1" stop-color="#FCF9FE"/>
</linearGradient>
<linearGradient id="paint4_linear_4_3" x1="376.53" y1="100.59" x2="379.84" y2="100.59" gradientUnits="userSpaceOnUse">
<stop stop-color="#CED5F5"/>
<stop offset="1" stop-color="#FCF9FE"/>
</linearGradient>
<linearGradient id="paint5_linear_4_3" x1="525.02" y1="212.957" x2="525.02" y2="212.388" gradientUnits="userSpaceOnUse">
<stop stop-color="#FDBE00"/>
<stop offset="0.0144104" stop-color="#FCB403"/>
<stop offset="0.0655075" stop-color="#FA970C"/>
<stop offset="0.115908" stop-color="#F88113"/>
<stop offset="0.16485" stop-color="#F77417"/>
<stop offset="0.21063" stop-color="#F77018"/>
<stop offset="0.212194" stop-color="#F77019"/>
<stop offset="0.257601" stop-color="#F46440"/>
<stop offset="0.302744" stop-color="#F25A5D"/>
<stop offset="0.346993" stop-color="#F15373"/>
<stop offset="0.389939" stop-color="#F04F80"/>
<stop offset="0.430123" stop-color="#F04E84"/>
<stop offset="0.794173" stop-color="#1C83FB"/>
<stop offset="1" stop-color="#00F3E4"/>
</linearGradient>
<linearGradient id="paint6_linear_4_3" x1="525.02" y1="182.527" x2="525.02" y2="181.958" gradientUnits="userSpaceOnUse">
<stop stop-color="#FDBE00"/>
<stop offset="0.0144104" stop-color="#FCB403"/>
<stop offset="0.0655075" stop-color="#FA970C"/>
<stop offset="0.115908" stop-color="#F88113"/>
<stop offset="0.16485" stop-color="#F77417"/>
<stop offset="0.21063" stop-color="#F77018"/>
<stop offset="0.212194" stop-color="#F77019"/>
<stop offset="0.257601" stop-color="#F46440"/>
<stop offset="0.302744" stop-color="#F25A5D"/>
<stop offset="0.346993" stop-color="#F15373"/>
<stop offset="0.389939" stop-color="#F04F80"/>
<stop offset="0.430123" stop-color="#F04E84"/>
<stop offset="0.794173" stop-color="#1C83FB"/>
<stop offset="1" stop-color="#00F3E4"/>
</linearGradient>
<linearGradient id="paint7_linear_4_3" x1="525.02" y1="152.087" x2="525.02" y2="151.518" gradientUnits="userSpaceOnUse">
<stop stop-color="#FDBE00"/>
<stop offset="0.0144104" stop-color="#FCB403"/>
<stop offset="0.0655075" stop-color="#FA970C"/>
<stop offset="0.115908" stop-color="#F88113"/>
<stop offset="0.16485" stop-color="#F77417"/>
<stop offset="0.21063" stop-color="#F77018"/>
<stop offset="0.212194" stop-color="#F77019"/>
<stop offset="0.257601" stop-color="#F46440"/>
<stop offset="0.302744" stop-color="#F25A5D"/>
<stop offset="0.346993" stop-color="#F15373"/>
<stop offset="0.389939" stop-color="#F04F80"/>
<stop offset="0.430123" stop-color="#F04E84"/>
<stop offset="0.794173" stop-color="#1C83FB"/>
<stop offset="1" stop-color="#00F3E4"/>
</linearGradient>
<linearGradient id="paint8_linear_4_3" x1="525.02" y1="121.647" x2="525.02" y2="121.078" gradientUnits="userSpaceOnUse">
<stop stop-color="#FDBE00"/>
<stop offset="0.0144104" stop-color="#FCB403"/>
<stop offset="0.0655075" stop-color="#FA970C"/>
<stop offset="0.115908" stop-color="#F88113"/>
<stop offset="0.16485" stop-color="#F77417"/>
<stop offset="0.21063" stop-color="#F77018"/>
<stop offset="0.212194" stop-color="#F77019"/>
<stop offset="0.257601" stop-color="#F46440"/>
<stop offset="0.302744" stop-color="#F25A5D"/>
<stop offset="0.346993" stop-color="#F15373"/>
<stop offset="0.389939" stop-color="#F04F80"/>
<stop offset="0.430123" stop-color="#F04E84"/>
<stop offset="0.794173" stop-color="#1C83FB"/>
<stop offset="1" stop-color="#00F3E4"/>
</linearGradient>
<linearGradient id="paint9_linear_4_3" x1="525.02" y1="91.2166" x2="525.02" y2="90.6482" gradientUnits="userSpaceOnUse">
<stop stop-color="#FDBE00"/>
<stop offset="0.0144104" stop-color="#FCB403"/>
<stop offset="0.0655075" stop-color="#FA970C"/>
<stop offset="0.115908" stop-color="#F88113"/>
<stop offset="0.16485" stop-color="#F77417"/>
<stop offset="0.21063" stop-color="#F77018"/>
<stop offset="0.212194" stop-color="#F77019"/>
<stop offset="0.257601" stop-color="#F46440"/>
<stop offset="0.302744" stop-color="#F25A5D"/>
<stop offset="0.346993" stop-color="#F15373"/>
<stop offset="0.389939" stop-color="#F04F80"/>
<stop offset="0.430123" stop-color="#F04E84"/>
<stop offset="0.794173" stop-color="#1C83FB"/>
<stop offset="1" stop-color="#00F3E4"/>
</linearGradient>
<linearGradient id="paint10_linear_4_3" x1="496.73" y1="212.19" x2="496.73" y2="90.89" gradientUnits="userSpaceOnUse">
<stop stop-color="#CED5F5"/>
<stop offset="1" stop-color="#FCF9FE"/>
</linearGradient>
<linearGradient id="paint11_linear_4_3" x1="512.5" y1="212.19" x2="512.5" y2="90.89" gradientUnits="userSpaceOnUse">
<stop stop-color="#CED5F5"/>
<stop offset="1" stop-color="#FCF9FE"/>
</linearGradient>
<linearGradient id="paint12_linear_4_3" x1="528.26" y1="212.19" x2="528.26" y2="90.89" gradientUnits="userSpaceOnUse">
<stop stop-color="#CED5F5"/>
<stop offset="1" stop-color="#FCF9FE"/>
</linearGradient>
<linearGradient id="paint13_linear_4_3" x1="544.02" y1="212.19" x2="544.02" y2="90.89" gradientUnits="userSpaceOnUse">
<stop stop-color="#CED5F5"/>
<stop offset="1" stop-color="#FCF9FE"/>
</linearGradient>
<linearGradient id="paint14_linear_4_3" x1="559.78" y1="212.19" x2="559.78" y2="90.89" gradientUnits="userSpaceOnUse">
<stop stop-color="#CED5F5"/>
<stop offset="1" stop-color="#FCF9FE"/>
</linearGradient>
<linearGradient id="paint15_linear_4_3" x1="496.73" y1="212.19" x2="496.73" y2="156.5" gradientUnits="userSpaceOnUse">
<stop stop-color="#5A20BD"/>
<stop offset="1" stop-color="#A01EB8"/>
</linearGradient>
<linearGradient id="paint16_linear_4_3" x1="512.5" y1="1.44447e-05" x2="512.5" y2="172.13" gradientUnits="userSpaceOnUse">
<stop stop-color="#5A20BD"/>
<stop offset="1" stop-color="#A01EB8"/>
</linearGradient>
<linearGradient id="paint17_linear_4_3" x1="528.26" y1="3.67377e-05" x2="528.26" y2="127.79" gradientUnits="userSpaceOnUse">
<stop stop-color="#5A20BD"/>
<stop offset="1" stop-color="#A01EB8"/>
</linearGradient>
<linearGradient id="paint18_linear_4_3" x1="559.78" y1="1.82205e-06" x2="559.78" y2="179.65" gradientUnits="userSpaceOnUse">
<stop stop-color="#5A20BD"/>
<stop offset="1" stop-color="#A01EB8"/>
</linearGradient>
<linearGradient id="paint19_linear_4_3" x1="496.73" y1="110.82" x2="496.73" y2="90.89" gradientUnits="userSpaceOnUse">
<stop stop-color="#E06CB3"/>
<stop offset="1" stop-color="#EDB971"/>
</linearGradient>
<linearGradient id="paint20_linear_4_3" x1="512.5" y1="124.84" x2="512.5" y2="90.89" gradientUnits="userSpaceOnUse">
<stop stop-color="#E06CB3"/>
<stop offset="1" stop-color="#EDB971"/>
</linearGradient>
<linearGradient id="paint21_linear_4_3" x1="528.26" y1="106.9" x2="528.26" y2="90.89" gradientUnits="userSpaceOnUse">
<stop stop-color="#E06CB3"/>
<stop offset="1" stop-color="#EDB971"/>
</linearGradient>
<linearGradient id="paint22_linear_4_3" x1="544.02" y1="110.82" x2="544.02" y2="90.89" gradientUnits="userSpaceOnUse">
<stop stop-color="#E06CB3"/>
<stop offset="1" stop-color="#EDB971"/>
</linearGradient>
<linearGradient id="paint23_linear_4_3" x1="559.78" y1="124.84" x2="559.78" y2="90.89" gradientUnits="userSpaceOnUse">
<stop stop-color="#E06CB3"/>
<stop offset="1" stop-color="#EDB971"/>
</linearGradient>
<linearGradient id="paint24_linear_4_3" x1="110.44" y1="193.845" x2="282.7" y2="193.845" gradientUnits="userSpaceOnUse">
<stop offset="0.0192308" stop-color="#FF8E1B"/>
<stop offset="1" stop-color="#F86383"/>
</linearGradient>
<linearGradient id="paint25_linear_4_3" x1="506.33" y1="281.81" x2="557.38" y2="281.81" gradientUnits="userSpaceOnUse">
<stop stop-color="#FFA434"/>
<stop offset="1" stop-color="#F86383"/>
</linearGradient>
<linearGradient id="paint26_linear_4_3" x1="458.37" y1="318.5" x2="605.34" y2="318.5" gradientUnits="userSpaceOnUse">
<stop stop-color="#E06CB3"/>
<stop offset="1" stop-color="#EDB971"/>
</linearGradient>
<linearGradient id="paint27_linear_4_3" x1="70.09" y1="288.62" x2="131.61" y2="227.09" gradientUnits="userSpaceOnUse">
<stop stop-color="#FFA434"/>
<stop offset="1" stop-color="#F86383"/>
</linearGradient>
<linearGradient id="paint28_linear_4_3" x1="612.2" y1="304.15" x2="612.2" y2="369.85" gradientUnits="userSpaceOnUse">
<stop stop-color="#FFA434"/>
<stop offset="1" stop-color="#F86383"/>
</linearGradient>
<linearGradient id="paint29_linear_4_3" x1="520.21" y1="388.34" x2="585.9" y2="388.34" gradientUnits="userSpaceOnUse">
<stop stop-color="#E06CB3"/>
<stop offset="1" stop-color="#EDB971"/>
</linearGradient>
<linearGradient id="paint30_linear_4_3" x1="94.875" y1="339.77" x2="94.875" y2="401.67" gradientUnits="userSpaceOnUse">
<stop stop-color="#FFA434"/>
<stop offset="1" stop-color="#F86383"/>
</linearGradient>
<linearGradient id="paint31_linear_4_3" x1="591.68" y1="188.93" x2="693.38" y2="188.93" gradientUnits="userSpaceOnUse">
<stop stop-color="#FFA434"/>
<stop offset="1" stop-color="#F7F2FE"/>
</linearGradient>
<linearGradient id="paint32_linear_4_3" x1="642.68" y1="261.12" x2="642.68" y2="213.12" gradientUnits="userSpaceOnUse">
<stop stop-color="#E06CB3"/>
<stop offset="1" stop-color="#EDB971"/>
</linearGradient>
<linearGradient id="paint33_linear_4_3" x1="165.63" y1="396.54" x2="245.18" y2="396.54" gradientUnits="userSpaceOnUse">
<stop stop-color="#E06CB3"/>
<stop offset="1" stop-color="#EDB971"/>
</linearGradient>
</defs>
</svg>
