<?xml version="1.0" encoding="UTF-8"?>
<svg id="OBJECTS" xmlns="http://www.w3.org/2000/svg" xmlns:xlink="http://www.w3.org/1999/xlink" viewBox="0 0 750 500">
  <defs>
    <style>
      .cls-1 {
        fill: url(#Degradado_sin_nombre_71-11);
      }

      .cls-2 {
        fill: url(#Degradado_sin_nombre_39-6);
      }

      .cls-3 {
        filter: url(#drop-shadow-10);
      }

      .cls-4 {
        fill: url(#Degradado_sin_nombre_71-7);
      }

      .cls-5, .cls-6, .cls-7, .cls-8, .cls-9 {
        fill: #fff;
      }

      .cls-10 {
        fill: url(#Degradado_sin_nombre_71-17);
        filter: url(#drop-shadow-19);
      }

      .cls-11 {
        fill: url(#Degradado_sin_nombre_39);
      }

      .cls-12 {
        fill: url(#Degradado_sin_nombre_47);
      }

      .cls-6 {
        filter: url(#drop-shadow-8);
      }

      .cls-6, .cls-7, .cls-8, .cls-9 {
        opacity: .4;
      }

      .cls-13 {
        opacity: .92;
        stroke-dasharray: 0 1.78;
        stroke-width: .89px;
      }

      .cls-13, .cls-14 {
        fill: none;
        stroke: #fff;
        stroke-miterlimit: 10;
      }

      .cls-15 {
        filter: url(#drop-shadow-14);
      }

      .cls-15, .cls-16 {
        fill: #f3f3f3;
      }

      .cls-17 {
        filter: url(#drop-shadow-4);
      }

      .cls-18 {
        fill: url(#Degradado_sin_nombre_71-16);
      }

      .cls-19 {
        fill: url(#Degradado_sin_nombre_8-5);
      }

      .cls-20 {
        fill: url(#Degradado_sin_nombre_8-2);
      }

      .cls-21 {
        fill: url(#Degradado_sin_nombre_71-15);
        filter: url(#drop-shadow-16);
      }

      .cls-7 {
        filter: url(#drop-shadow-11);
      }

      .cls-22 {
        fill: url(#Degradado_sin_nombre_71-5);
      }

      .cls-23 {
        fill: url(#Degradado_sin_nombre_53-6);
      }

      .cls-24 {
        fill: url(#Degradado_sin_nombre_20);
        filter: url(#drop-shadow-17);
      }

      .cls-25 {
        fill: url(#Degradado_sin_nombre_53-10);
      }

      .cls-26 {
        fill: url(#Degradado_sin_nombre_71-12);
      }

      .cls-27 {
        filter: url(#drop-shadow-1);
      }

      .cls-28 {
        fill: url(#Degradado_sin_nombre_71-9);
      }

      .cls-29 {
        fill: url(#Degradado_sin_nombre_71);
      }

      .cls-14 {
        stroke-width: 2px;
      }

      .cls-30 {
        fill: url(#Degradado_sin_nombre_71-6);
      }

      .cls-31 {
        fill: url(#Degradado_sin_nombre_53-4);
      }

      .cls-32 {
        fill: url(#Degradado_sin_nombre_8-3);
      }

      .cls-33 {
        fill: url(#Degradado_sin_nombre_53);
        filter: url(#drop-shadow-5);
      }

      .cls-34 {
        fill: url(#Degradado_sin_nombre_25);
      }

      .cls-35 {
        fill: url(#Degradado_sin_nombre_53-9);
      }

      .cls-36 {
        fill: url(#Degradado_sin_nombre_71-2);
      }

      .cls-37 {
        fill: url(#Degradado_sin_nombre_2);
      }

      .cls-38 {
        fill: url(#Degradado_sin_nombre_53-11);
      }

      .cls-39 {
        fill: url(#Degradado_sin_nombre_27);
      }

      .cls-40 {
        fill: url(#Degradado_sin_nombre_71-8);
      }

      .cls-41 {
        filter: url(#drop-shadow-2);
      }

      .cls-42 {
        fill: url(#Degradado_sin_nombre_71-14);
        filter: url(#drop-shadow-13);
      }

      .cls-43 {
        fill: #ebebeb;
      }

      .cls-8 {
        filter: url(#drop-shadow-9);
      }

      .cls-44 {
        fill: url(#Degradado_sin_nombre_71-3);
      }

      .cls-45 {
        filter: url(#drop-shadow-18);
      }

      .cls-46 {
        fill: url(#Degradado_sin_nombre_53-3);
        filter: url(#drop-shadow-7);
      }

      .cls-47 {
        fill: url(#Degradado_sin_nombre_39-3);
      }

      .cls-48 {
        fill: url(#Degradado_sin_nombre_39-2);
      }

      .cls-49 {
        fill: url(#Degradado_sin_nombre_71-13);
      }

      .cls-50 {
        fill: url(#Degradado_sin_nombre_53-5);
      }

      .cls-51 {
        fill: url(#Degradado_sin_nombre_8-4);
      }

      .cls-52 {
        fill: url(#Degradado_sin_nombre_8);
      }

      .cls-9 {
        filter: url(#drop-shadow-3);
      }

      .cls-53 {
        fill: url(#Degradado_sin_nombre_71-10);
      }

      .cls-54 {
        fill: #1f1f1f;
      }

      .cls-55 {
        fill: url(#Degradado_sin_nombre_39-5);
      }

      .cls-56 {
        fill: url(#Degradado_sin_nombre_71-4);
      }

      .cls-57 {
        fill: url(#Degradado_sin_nombre_53-7);
      }

      .cls-58 {
        fill: url(#Degradado_sin_nombre_53-2);
        filter: url(#drop-shadow-6);
      }

      .cls-59 {
        fill: url(#Degradado_sin_nombre_53-8);
      }

      .cls-60 {
        filter: url(#drop-shadow-12);
      }

      .cls-61 {
        fill: url(#Degradado_sin_nombre_53-12);
        filter: url(#drop-shadow-15);
      }

      .cls-62 {
        fill: url(#Degradado_sin_nombre_39-7);
      }

      .cls-63 {
        fill: url(#Degradado_sin_nombre_39-4);
      }
    </style>
    <filter id="drop-shadow-1" filterUnits="userSpaceOnUse">
      <feOffset dx="1" dy="1"/>
      <feGaussianBlur result="blur" stdDeviation="2"/>
      <feFlood flood-color="#000" flood-opacity=".16"/>
      <feComposite in2="blur" operator="in"/>
      <feComposite in="SourceGraphic"/>
    </filter>
    <linearGradient id="Degradado_sin_nombre_27" data-name="Degradado sin nombre 27" x1="486.94" y1="436.34" x2="524.61" y2="398.67" gradientUnits="userSpaceOnUse">
      <stop offset="0" stop-color="#a01eb8"/>
      <stop offset=".23" stop-color="#9b1eb8"/>
      <stop offset=".48" stop-color="#8f1eb9"/>
      <stop offset=".72" stop-color="#7a1fba"/>
      <stop offset=".97" stop-color="#5d1fbc"/>
      <stop offset="1" stop-color="#5a20bd"/>
    </linearGradient>
    <filter id="drop-shadow-2" filterUnits="userSpaceOnUse">
      <feOffset dx="1" dy="1"/>
      <feGaussianBlur result="blur-2" stdDeviation="2"/>
      <feFlood flood-color="#000" flood-opacity=".16"/>
      <feComposite in2="blur-2" operator="in"/>
      <feComposite in="SourceGraphic"/>
    </filter>
    <linearGradient id="Degradado_sin_nombre_25" data-name="Degradado sin nombre 25" x1="235.32" y1="87.3" x2="316.54" y2="87.3" gradientTransform="translate(344.17 -194.41) rotate(86.04)" gradientUnits="userSpaceOnUse">
      <stop offset="0" stop-color="#a01eb8"/>
      <stop offset=".23" stop-color="#9b1eb8"/>
      <stop offset=".48" stop-color="#8f1eb9"/>
      <stop offset=".72" stop-color="#7a1fba"/>
      <stop offset=".97" stop-color="#5d1fbc"/>
      <stop offset="1" stop-color="#5a20bd"/>
    </linearGradient>
    <filter id="drop-shadow-3" filterUnits="userSpaceOnUse">
      <feOffset dx="2" dy="2"/>
      <feGaussianBlur result="blur-3" stdDeviation="3"/>
      <feFlood flood-color="#000" flood-opacity=".27"/>
      <feComposite in2="blur-3" operator="in"/>
      <feComposite in="SourceGraphic"/>
    </filter>
    <filter id="drop-shadow-4" filterUnits="userSpaceOnUse">
      <feOffset dx="3" dy="4"/>
      <feGaussianBlur result="blur-4" stdDeviation="3"/>
      <feFlood flood-color="#000" flood-opacity=".27"/>
      <feComposite in2="blur-4" operator="in"/>
      <feComposite in="SourceGraphic"/>
    </filter>
    <linearGradient id="Degradado_sin_nombre_71" data-name="Degradado sin nombre 71" x1="237.32" y1="390.55" x2="481.97" y2="145.9" gradientUnits="userSpaceOnUse">
      <stop offset="0" stop-color="#e06cb3"/>
      <stop offset="1" stop-color="#edb971"/>
    </linearGradient>
    <linearGradient id="Degradado_sin_nombre_47" data-name="Degradado sin nombre 47" x1="265.18" y1="268.22" x2="454.11" y2="268.22" gradientUnits="userSpaceOnUse">
      <stop offset="0" stop-color="#29004c"/>
      <stop offset=".31" stop-color="#45008d"/>
      <stop offset="1" stop-color="#29004c"/>
    </linearGradient>
    <linearGradient id="Degradado_sin_nombre_39" data-name="Degradado sin nombre 39" x1="339.54" y1="97.93" x2="368.29" y2="97.93" gradientUnits="userSpaceOnUse">
      <stop offset="0" stop-color="#ced5f5"/>
      <stop offset="1" stop-color="#fcf9fe"/>
    </linearGradient>
    <linearGradient id="Degradado_sin_nombre_39-2" data-name="Degradado sin nombre 39" x1="376.44" y1="97.93" x2="379.75" y2="97.93" xlink:href="#Degradado_sin_nombre_39"/>
    <linearGradient id="Degradado_sin_nombre_53" data-name="Degradado sin nombre 53" x1="288.37" y1="211.75" x2="349.9" y2="150.22" gradientUnits="userSpaceOnUse">
      <stop offset="0" stop-color="#a01eb8"/>
      <stop offset="1" stop-color="#5a20bd"/>
    </linearGradient>
    <filter id="drop-shadow-5" filterUnits="userSpaceOnUse">
      <feOffset dx="2" dy="2"/>
      <feGaussianBlur result="blur-5" stdDeviation="3"/>
      <feFlood flood-color="#000" flood-opacity=".27"/>
      <feComposite in2="blur-5" operator="in"/>
      <feComposite in="SourceGraphic"/>
    </filter>
    <linearGradient id="Degradado_sin_nombre_53-2" data-name="Degradado sin nombre 53" x1="369.39" y1="303.52" x2="430.91" y2="241.99" xlink:href="#Degradado_sin_nombre_53"/>
    <filter id="drop-shadow-6" filterUnits="userSpaceOnUse">
      <feOffset dx="2" dy="2"/>
      <feGaussianBlur result="blur-6" stdDeviation="3"/>
      <feFlood flood-color="#000" flood-opacity=".27"/>
      <feComposite in2="blur-6" operator="in"/>
      <feComposite in="SourceGraphic"/>
    </filter>
    <linearGradient id="Degradado_sin_nombre_53-3" data-name="Degradado sin nombre 53" x1="288.37" y1="395.29" x2="349.9" y2="333.76" xlink:href="#Degradado_sin_nombre_53"/>
    <filter id="drop-shadow-7" filterUnits="userSpaceOnUse">
      <feOffset dx="2" dy="2"/>
      <feGaussianBlur result="blur-7" stdDeviation="3"/>
      <feFlood flood-color="#000" flood-opacity=".27"/>
      <feComposite in2="blur-7" operator="in"/>
      <feComposite in="SourceGraphic"/>
    </filter>
    <linearGradient id="Degradado_sin_nombre_53-4" data-name="Degradado sin nombre 53" x1="480.21" y1="212.63" x2="569.83" y2="212.63" xlink:href="#Degradado_sin_nombre_53"/>
    <linearGradient id="Degradado_sin_nombre_53-5" data-name="Degradado sin nombre 53" x1="480.21" y1="182.2" x2="569.83" y2="182.2" xlink:href="#Degradado_sin_nombre_53"/>
    <linearGradient id="Degradado_sin_nombre_53-6" data-name="Degradado sin nombre 53" x1="480.21" y1="151.76" x2="569.83" y2="151.76" xlink:href="#Degradado_sin_nombre_53"/>
    <linearGradient id="Degradado_sin_nombre_53-7" data-name="Degradado sin nombre 53" x1="480.21" y1="121.32" x2="569.83" y2="121.32" xlink:href="#Degradado_sin_nombre_53"/>
    <linearGradient id="Degradado_sin_nombre_53-8" data-name="Degradado sin nombre 53" x1="480.21" y1="90.89" x2="569.83" y2="90.89" xlink:href="#Degradado_sin_nombre_53"/>
    <linearGradient id="Degradado_sin_nombre_39-3" data-name="Degradado sin nombre 39" x1="496.73" y1="212.19" x2="496.73" y2="90.89" xlink:href="#Degradado_sin_nombre_39"/>
    <linearGradient id="Degradado_sin_nombre_39-4" data-name="Degradado sin nombre 39" x1="512.5" y1="212.19" x2="512.5" y2="90.89" xlink:href="#Degradado_sin_nombre_39"/>
    <linearGradient id="Degradado_sin_nombre_39-5" data-name="Degradado sin nombre 39" x1="528.26" y1="212.19" x2="528.26" y2="90.89" xlink:href="#Degradado_sin_nombre_39"/>
    <linearGradient id="Degradado_sin_nombre_39-6" data-name="Degradado sin nombre 39" x1="544.02" y1="212.19" x2="544.02" y2="90.89" xlink:href="#Degradado_sin_nombre_39"/>
    <linearGradient id="Degradado_sin_nombre_39-7" data-name="Degradado sin nombre 39" x1="559.78" y1="212.19" x2="559.78" y2="90.89" xlink:href="#Degradado_sin_nombre_39"/>
    <linearGradient id="Degradado_sin_nombre_8" data-name="Degradado sin nombre 8" x1="496.73" y1="212.19" x2="496.73" y2="156.5" gradientUnits="userSpaceOnUse">
      <stop offset="0" stop-color="#5a20bd"/>
      <stop offset="1" stop-color="#a01eb8"/>
    </linearGradient>
    <linearGradient id="Degradado_sin_nombre_8-2" data-name="Degradado sin nombre 8" x1="512.5" x2="512.5" y2="172.13" xlink:href="#Degradado_sin_nombre_8"/>
    <linearGradient id="Degradado_sin_nombre_8-3" data-name="Degradado sin nombre 8" x1="528.26" x2="528.26" y2="127.79" xlink:href="#Degradado_sin_nombre_8"/>
    <linearGradient id="Degradado_sin_nombre_8-4" data-name="Degradado sin nombre 8" x1="544.02" x2="544.02" y2="143.62" xlink:href="#Degradado_sin_nombre_8"/>
    <linearGradient id="Degradado_sin_nombre_8-5" data-name="Degradado sin nombre 8" x1="559.78" x2="559.78" y2="179.65" xlink:href="#Degradado_sin_nombre_8"/>
    <linearGradient id="Degradado_sin_nombre_71-2" data-name="Degradado sin nombre 71" x1="496.73" y1="110.82" x2="496.73" y2="90.89" xlink:href="#Degradado_sin_nombre_71"/>
    <linearGradient id="Degradado_sin_nombre_71-3" data-name="Degradado sin nombre 71" x1="512.5" y1="124.84" x2="512.5" y2="90.89" xlink:href="#Degradado_sin_nombre_71"/>
    <linearGradient id="Degradado_sin_nombre_71-4" data-name="Degradado sin nombre 71" x1="528.26" y1="106.9" x2="528.26" y2="90.89" xlink:href="#Degradado_sin_nombre_71"/>
    <linearGradient id="Degradado_sin_nombre_71-5" data-name="Degradado sin nombre 71" x1="544.02" y1="110.82" x2="544.02" y2="90.89" xlink:href="#Degradado_sin_nombre_71"/>
    <linearGradient id="Degradado_sin_nombre_71-6" data-name="Degradado sin nombre 71" x1="559.78" y1="124.84" x2="559.78" y2="90.89" xlink:href="#Degradado_sin_nombre_71"/>
    <filter id="drop-shadow-8" filterUnits="userSpaceOnUse">
      <feOffset dx="2" dy="2"/>
      <feGaussianBlur result="blur-8" stdDeviation="3"/>
      <feFlood flood-color="#000" flood-opacity=".27"/>
      <feComposite in2="blur-8" operator="in"/>
      <feComposite in="SourceGraphic"/>
    </filter>
    <linearGradient id="Degradado_sin_nombre_53-9" data-name="Degradado sin nombre 53" x1="110.44" y1="193.85" x2="282.69" y2="193.85" xlink:href="#Degradado_sin_nombre_53"/>
    <linearGradient id="Degradado_sin_nombre_71-7" data-name="Degradado sin nombre 71" x1="209.02" y1="167.4" x2="209.02" y2="128.88" xlink:href="#Degradado_sin_nombre_71"/>
    <filter id="drop-shadow-9" filterUnits="userSpaceOnUse">
      <feOffset dx="2" dy="2"/>
      <feGaussianBlur result="blur-9" stdDeviation="3"/>
      <feFlood flood-color="#000" flood-opacity=".27"/>
      <feComposite in2="blur-9" operator="in"/>
      <feComposite in="SourceGraphic"/>
    </filter>
    <filter id="drop-shadow-10" filterUnits="userSpaceOnUse">
      <feOffset dx="2" dy="2"/>
      <feGaussianBlur result="blur-10" stdDeviation="3"/>
      <feFlood flood-color="#000" flood-opacity=".27"/>
      <feComposite in2="blur-10" operator="in"/>
      <feComposite in="SourceGraphic"/>
    </filter>
    <linearGradient id="Degradado_sin_nombre_71-8" data-name="Degradado sin nombre 71" x1="506.33" y1="281.81" x2="557.38" y2="281.81" xlink:href="#Degradado_sin_nombre_71"/>
    <linearGradient id="Degradado_sin_nombre_71-9" data-name="Degradado sin nombre 71" x1="458.37" y1="318.5" x2="605.34" y2="318.5" xlink:href="#Degradado_sin_nombre_71"/>
    <filter id="drop-shadow-11" filterUnits="userSpaceOnUse">
      <feOffset dx="2" dy="2"/>
      <feGaussianBlur result="blur-11" stdDeviation="3"/>
      <feFlood flood-color="#000" flood-opacity=".27"/>
      <feComposite in2="blur-11" operator="in"/>
      <feComposite in="SourceGraphic"/>
    </filter>
    <filter id="drop-shadow-12" filterUnits="userSpaceOnUse">
      <feOffset dx="2" dy="2"/>
      <feGaussianBlur result="blur-12" stdDeviation="3"/>
      <feFlood flood-color="#000" flood-opacity=".27"/>
      <feComposite in2="blur-12" operator="in"/>
      <feComposite in="SourceGraphic"/>
    </filter>
    <linearGradient id="Degradado_sin_nombre_71-10" data-name="Degradado sin nombre 71" x1="143.74" y1="284.79" x2="176.88" y2="284.79" xlink:href="#Degradado_sin_nombre_71"/>
    <linearGradient id="Degradado_sin_nombre_71-11" data-name="Degradado sin nombre 71" x1="172.29" y1="317.94" x2="210.03" y2="317.94" xlink:href="#Degradado_sin_nombre_71"/>
    <linearGradient id="Degradado_sin_nombre_53-10" data-name="Degradado sin nombre 53" x1="143.74" y1="315.64" x2="176.88" y2="315.64" xlink:href="#Degradado_sin_nombre_53"/>
    <linearGradient id="Degradado_sin_nombre_71-12" data-name="Degradado sin nombre 71" x1="189.4" y1="343.99" x2="199.52" y2="343.99" xlink:href="#Degradado_sin_nombre_71"/>
    <linearGradient id="Degradado_sin_nombre_53-11" data-name="Degradado sin nombre 53" x1="189.4" y1="351.62" x2="199.52" y2="351.62" xlink:href="#Degradado_sin_nombre_53"/>
    <linearGradient id="Degradado_sin_nombre_71-13" data-name="Degradado sin nombre 71" x1="203.99" y1="351.62" x2="214.11" y2="351.62" xlink:href="#Degradado_sin_nombre_71"/>
    <linearGradient id="Degradado_sin_nombre_71-14" data-name="Degradado sin nombre 71" x1="58.71" y1="288.84" x2="120.23" y2="227.31" xlink:href="#Degradado_sin_nombre_71"/>
    <filter id="drop-shadow-13" filterUnits="userSpaceOnUse">
      <feOffset dx="2" dy="2"/>
      <feGaussianBlur result="blur-13" stdDeviation="3"/>
      <feFlood flood-color="#000" flood-opacity=".27"/>
      <feComposite in2="blur-13" operator="in"/>
      <feComposite in="SourceGraphic"/>
    </filter>
    <filter id="drop-shadow-14" filterUnits="userSpaceOnUse">
      <feOffset dx="1" dy="1"/>
      <feGaussianBlur result="blur-14" stdDeviation="9"/>
      <feFlood flood-color="#000" flood-opacity=".65"/>
      <feComposite in2="blur-14" operator="in"/>
      <feComposite in="SourceGraphic"/>
    </filter>
    <linearGradient id="Degradado_sin_nombre_53-12" data-name="Degradado sin nombre 53" x1="581.44" y1="367.77" x2="642.96" y2="306.24" xlink:href="#Degradado_sin_nombre_53"/>
    <filter id="drop-shadow-15" filterUnits="userSpaceOnUse">
      <feOffset dx="2" dy="2"/>
      <feGaussianBlur result="blur-15" stdDeviation="3"/>
      <feFlood flood-color="#000" flood-opacity=".27"/>
      <feComposite in2="blur-15" operator="in"/>
      <feComposite in="SourceGraphic"/>
    </filter>
    <linearGradient id="Degradado_sin_nombre_71-15" data-name="Degradado sin nombre 71" x1="520.21" y1="388.34" x2="585.9" y2="388.34" xlink:href="#Degradado_sin_nombre_71"/>
    <filter id="drop-shadow-16" filterUnits="userSpaceOnUse">
      <feOffset dx="2" dy="2"/>
      <feGaussianBlur result="blur-16" stdDeviation="3"/>
      <feFlood flood-color="#000" flood-opacity=".27"/>
      <feComposite in2="blur-16" operator="in"/>
      <feComposite in="SourceGraphic"/>
    </filter>
    <linearGradient id="Degradado_sin_nombre_20" data-name="Degradado sin nombre 20" x1="64.36" y1="401.23" x2="125.39" y2="340.21" gradientUnits="userSpaceOnUse">
      <stop offset="0" stop-color="#a01eb8"/>
      <stop offset="1" stop-color="#5a20bd"/>
    </linearGradient>
    <filter id="drop-shadow-17" filterUnits="userSpaceOnUse">
      <feOffset dx="2" dy="2"/>
      <feGaussianBlur result="blur-17" stdDeviation="3"/>
      <feFlood flood-color="#000" flood-opacity=".27"/>
      <feComposite in2="blur-17" operator="in"/>
      <feComposite in="SourceGraphic"/>
    </filter>
    <filter id="drop-shadow-18" filterUnits="userSpaceOnUse">
      <feOffset dx="2" dy="2"/>
      <feGaussianBlur result="blur-18" stdDeviation="3"/>
      <feFlood flood-color="#000" flood-opacity=".27"/>
      <feComposite in2="blur-18" operator="in"/>
      <feComposite in="SourceGraphic"/>
    </filter>
    <linearGradient id="Degradado_sin_nombre_2" data-name="Degradado sin nombre 2" x1="591.68" y1="188.93" x2="693.38" y2="188.93" gradientUnits="userSpaceOnUse">
      <stop offset="0" stop-color="#703af5"/>
      <stop offset="1" stop-color="#f7f2fe"/>
    </linearGradient>
    <linearGradient id="Degradado_sin_nombre_71-16" data-name="Degradado sin nombre 71" x1="642.68" y1="261.12" x2="642.68" y2="213.12" xlink:href="#Degradado_sin_nombre_71"/>
    <linearGradient id="Degradado_sin_nombre_71-17" data-name="Degradado sin nombre 71" x1="165.63" y1="396.54" x2="245.18" y2="396.54" xlink:href="#Degradado_sin_nombre_71"/>
    <filter id="drop-shadow-19" filterUnits="userSpaceOnUse">
      <feOffset dx="2" dy="2"/>
      <feGaussianBlur result="blur-19" stdDeviation="3"/>
      <feFlood flood-color="#000" flood-opacity=".27"/>
      <feComposite in2="blur-19" operator="in"/>
      <feComposite in="SourceGraphic"/>
    </filter>
  </defs>
  <g class="cls-27">
    <path class="cls-39" d="m524.48,422.9l7.84.06.09-10.49-7.84-.06c-.41-1.52-1-2.97-1.75-4.32l5.59-5.5-7.36-7.48-5.59,5.5c-1.34-.77-2.78-1.38-4.29-1.82l.06-7.84-10.49-.09-.06,7.84c-1.52.41-2.97,1-4.32,1.75l-5.5-5.59-7.48,7.36,5.5,5.59c-.77,1.34-1.38,2.78-1.82,4.29l-7.84-.06-.09,10.49,7.84.06c.41,1.52,1,2.97,1.75,4.32l-5.59,5.5,7.36,7.48,5.59-5.5c1.34.77,2.78,1.38,4.29,1.82l-.06,7.84,10.49.09.06-7.84c1.52-.41,2.97-1,4.32-1.75l5.5,5.59,7.48-7.36-5.5-5.59c.77-1.34,1.38-2.78,1.82-4.29Zm-18.78,3.2c-4.75-.04-8.57-3.92-8.53-8.67.04-4.75,3.92-8.57,8.67-8.53,4.75.04,8.57,3.92,8.53,8.67-.04,4.75-3.92,8.57-8.67,8.53Z"/>
  </g>
  <g class="cls-41">
    <path class="cls-34" d="m269.9,115.92l.73,11.93,15.97-.97-.73-11.93c2.27-.79,4.41-1.84,6.39-3.11l8.95,7.92,10.6-11.98-8.95-7.92c1.03-2.12,1.81-4.37,2.32-6.72l11.93-.73-.97-15.97-11.93.73c-.79-2.27-1.84-4.41-3.11-6.39l7.92-8.95-11.98-10.6-7.92,8.95c-2.12-1.03-4.37-1.81-6.72-2.32l-.73-11.93-15.97.97.73,11.93c-2.27.79-4.41,1.84-6.39,3.11l-8.95-7.92-10.6,11.98,8.95,7.92c-1.03,2.12-1.81,4.37-2.32,6.72l-11.93.73.97,15.97,11.93-.73c.79,2.27,1.84,4.41,3.11,6.39l-7.92,8.95,11.98,10.6,7.92-8.95c2.12,1.03,4.37,1.81,6.72,2.32Zm-6.84-28.23c-.44-7.23,5.06-13.44,12.29-13.88,7.23-.44,13.44,5.06,13.88,12.29.44,7.23-5.06,13.44-12.29,13.88-7.23.44-13.44-5.06-13.88-12.29Z"/>
  </g>
  <rect class="cls-9" x="470.46" y="77.53" width="109.12" height="148.46" rx="8.83" ry="8.83"/>
  <g>
    <g class="cls-17">
      <rect class="cls-29" x="272.27" y="95.03" width="174.74" height="346.38" rx="27.16" ry="27.16"/>
      <path class="cls-12" d="m418.19,86.77h-117.09c-19.84,0-35.92,16.08-35.92,35.92v291.06c0,19.84,16.08,35.92,35.92,35.92h117.09c19.84,0,35.92-16.08,35.92-35.92V122.69c0-19.84-16.08-35.92-35.92-35.92Zm28.83,327.48c0,15-12.16,27.16-27.16,27.16h-120.42c-15,0-27.16-12.16-27.16-27.16V122.19c0-15,12.16-27.16,27.16-27.16h120.42c15,0,27.16,12.16,27.16,27.16v292.06Z"/>
      <g>
        <path class="cls-54" d="m379.49,107.23h-39.69c-8.22,0-14.89-6.66-14.89-14.89h69.47c0,8.22-6.66,14.89-14.89,14.89Z"/>
        <g>
          <rect class="cls-11" x="339.54" y="96.76" width="28.75" height="2.34"/>
          <path class="cls-48" d="m379.75,97.93c0,.91-.74,1.65-1.65,1.65s-1.65-.74-1.65-1.65.74-1.65,1.65-1.65,1.65.74,1.65,1.65Z"/>
        </g>
      </g>
    </g>
    <rect class="cls-33" x="286.29" y="148.14" width="65.7" height="65.7" rx="7.13" ry="7.13"/>
    <rect class="cls-13" x="367.3" y="148.14" width="65.7" height="65.7" rx="7.13" ry="7.13"/>
    <rect class="cls-13" x="286.29" y="239.91" width="65.7" height="65.7" rx="7.13" ry="7.13"/>
    <rect class="cls-58" x="367.3" y="239.91" width="65.7" height="65.7" rx="7.13" ry="7.13"/>
    <rect class="cls-46" x="286.29" y="331.68" width="65.7" height="65.7" rx="7.13" ry="7.13"/>
    <rect class="cls-13" x="367.3" y="331.68" width="65.7" height="65.7" rx="7.13" ry="7.13"/>
    <polygon class="cls-16" points="345.28 172.77 320.42 162.06 295.57 172.77 302.22 172.77 302.22 199.91 315.78 199.91 315.78 185.04 325.07 185.04 325.07 199.91 338.62 199.91 338.62 172.77 345.28 172.77"/>
    <g>
      <rect class="cls-16" x="379.58" y="275.7" width="8.99" height="19.09"/>
      <rect class="cls-16" x="395.37" y="263.25" width="8.99" height="31.54"/>
      <rect class="cls-16" x="411.73" y="251.59" width="8.99" height="43.2"/>
    </g>
    <path class="cls-16" d="m334.32,348.97h-30.37c-3.66,0-6.63,2.97-6.63,6.63v15.24c0,2.8,1.74,5.19,4.2,6.16h-.01l3.87,7.73,4.18-7.27h24.76c3.66,0,6.63-2.97,6.63-6.63v-15.24c0-3.66-2.97-6.63-6.63-6.63Zm-27.03,18.49c-2.39,0-4.33-1.94-4.33-4.33s1.94-4.33,4.33-4.33,4.33,1.94,4.33,4.33-1.94,4.33-4.33,4.33Zm11.85,0c-2.39,0-4.33-1.94-4.33-4.33s1.94-4.33,4.33-4.33,4.33,1.94,4.33,4.33-1.94,4.33-4.33,4.33Zm11.85,0c-2.39,0-4.33-1.94-4.33-4.33s1.94-4.33,4.33-4.33,4.33,1.94,4.33,4.33-1.94,4.33-4.33,4.33Z"/>
  </g>
  <g>
    <rect class="cls-31" x="480.21" y="212.29" width="89.62" height=".68"/>
    <rect class="cls-50" x="480.21" y="181.86" width="89.62" height=".68"/>
    <rect class="cls-23" x="480.21" y="151.42" width="89.62" height=".68"/>
    <rect class="cls-57" x="480.21" y="120.98" width="89.62" height=".68"/>
    <rect class="cls-59" x="480.21" y="90.55" width="89.62" height=".68"/>
    <g>
      <rect class="cls-47" x="493.73" y="90.89" width="6.01" height="121.31"/>
      <rect class="cls-63" x="509.49" y="90.89" width="6.01" height="121.31"/>
      <rect class="cls-55" x="525.25" y="90.89" width="6.01" height="121.31"/>
      <rect class="cls-2" x="541.01" y="90.89" width="6.01" height="121.31"/>
      <rect class="cls-62" x="556.78" y="90.89" width="6.01" height="121.31"/>
      <rect class="cls-52" x="493.73" y="156.5" width="6.01" height="55.69"/>
      <rect class="cls-20" x="509.49" y="172.13" width="6.01" height="40.06"/>
      <rect class="cls-32" x="525.25" y="127.79" width="6.01" height="84.4"/>
      <rect class="cls-51" x="541.01" y="143.62" width="6.01" height="68.57"/>
      <rect class="cls-19" x="556.78" y="179.65" width="6.01" height="32.55"/>
      <rect class="cls-36" x="493.73" y="90.89" width="6.01" height="19.93"/>
      <rect class="cls-44" x="509.49" y="90.89" width="6.01" height="33.95"/>
      <rect class="cls-56" x="525.25" y="90.89" width="6.01" height="16.01"/>
      <rect class="cls-22" x="541.01" y="90.89" width="6.01" height="19.93"/>
      <rect class="cls-30" x="556.78" y="90.89" width="6.01" height="33.95"/>
    </g>
  </g>
  <rect class="cls-6" x="102.59" y="107.23" width="189.07" height="124.33" rx="10.91" ry="10.91"/>
  <path class="cls-35" d="m110.44,222.51c1.1-1.38,57.33-57.33,57.33-57.33l40.79,42.99,27.84-31.14,46.3,45.47H110.44Z"/>
  <circle class="cls-4" cx="209.02" cy="148.14" r="19.26"/>
  <g>
    <rect class="cls-8" x="442.77" y="244.4" width="178.16" height="89.95" rx="8.83" ry="8.83"/>
    <g>
      <g class="cls-3">
        <circle class="cls-40" cx="531.85" cy="281.81" r="25.52"/>
        <polygon class="cls-5" points="523.44 268.91 545.79 281.81 523.44 294.72 523.44 268.91"/>
      </g>
      <g>
        <path class="cls-28" d="m603.38,320.46h-143.06c-1.08,0-1.96-.88-1.96-1.96h0c0-1.08.88-1.96,1.96-1.96h143.06c1.08,0,1.96.88,1.96,1.96h0c0,1.08-.88,1.96-1.96,1.96Z"/>
        <path class="cls-5" d="m491.1,318.5c0,2.47-2,4.48-4.48,4.48s-4.48-2-4.48-4.48,2-4.48,4.48-4.48,4.48,2,4.48,4.48Z"/>
      </g>
    </g>
  </g>
  <g>
    <rect class="cls-7" x="122.32" y="258.07" width="109.12" height="101.65" rx="8.83" ry="8.83"/>
    <g class="cls-60">
      <path class="cls-53" d="m161.84,301.37h-18.1c0-18.28,14.87-33.14,33.14-33.14v18.1c-8.29,0-15.04,6.75-15.04,15.04Z"/>
      <path class="cls-1" d="m191.92,301.37c0,8.29-6.75,15.04-15.04,15.04l-4.6,9.05,4.6,9.05c18.28,0,33.14-14.87,33.14-33.14h-18.1Z"/>
      <path class="cls-25" d="m161.84,301.37h0l-9.05-4.6-9.05,4.6h0c0,18.28,14.87,33.14,33.14,33.14v-18.1c-8.29,0-15.04-6.75-15.04-15.04Z"/>
      <path class="cls-16" d="m210.03,301.37h0c0-18.28-14.87-33.14-33.14-33.14v18.1c8.29,0,15.04,6.75,15.04,15.04h0,0s0,0,0,0l9.05,4.6,9.05-4.6Z"/>
    </g>
    <rect class="cls-16" x="131.88" y="342.34" width="49.03" height="3.31"/>
    <rect class="cls-16" x="131.88" y="349.97" width="49.03" height="3.31"/>
    <rect class="cls-26" x="189.4" y="342.34" width="10.12" height="3.31"/>
    <rect class="cls-16" x="203.99" y="342.34" width="10.12" height="3.31"/>
    <rect class="cls-38" x="189.4" y="349.97" width="10.12" height="3.31"/>
    <rect class="cls-49" x="203.99" y="349.97" width="10.12" height="3.31"/>
  </g>
  <g>
    <rect class="cls-42" x="56.62" y="225.22" width="65.7" height="65.7" rx="7.13" ry="7.13"/>
    <path class="cls-15" d="m95.57,243.53c-6.69-5.92-16.94-5.29-22.86,1.4-5.92,6.69-5.29,16.94,1.4,22.86,5.93,5.24,14.65,5.34,20.68.64l13.32,11.78,3.94-4.45-13.32-11.78c3.93-6.56,2.77-15.2-3.15-20.44Zm-1.24,20.53c-4.63,5.23-12.66,5.72-17.89,1.09-5.23-4.63-5.72-12.65-1.09-17.89,4.63-5.23,12.66-5.72,17.89-1.09,5.23,4.63,5.72,12.66,1.09,17.89Z"/>
  </g>
  <g>
    <rect class="cls-61" x="579.35" y="304.15" width="65.7" height="65.7" rx="7.13" ry="7.13"/>
    <g>
      <path class="cls-5" d="m622.3,327.67c0,5.41-4.52,9.8-10.1,9.8s-10.1-4.39-10.1-9.8,4.52-9.8,10.1-9.8,10.1,4.39,10.1,9.8Z"/>
      <path class="cls-5" d="m596.83,355.1c0,.35.08.69.11,1.03h30.52c.03-.35.11-.68.11-1.03,0-8.04-6.58-14.55-14.79-14.85h-1.15c-8.22.3-14.79,6.81-14.79,14.85Z"/>
    </g>
  </g>
  <g>
    <rect class="cls-21" x="520.21" y="355.49" width="65.7" height="65.7" rx="7.13" ry="7.13"/>
    <path class="cls-5" d="m553.06,364.77c-9.78,0-17.72,7.93-17.72,17.72s17.72,29.42,17.72,29.42c0,0,17.72-19.63,17.72-29.42s-7.93-17.72-17.72-17.72Zm0,26.09c-4.57,0-8.27-3.7-8.27-8.27s3.7-8.27,8.27-8.27,8.27,3.7,8.27,8.27-3.7,8.27-8.27,8.27Z"/>
  </g>
  <g>
    <rect class="cls-24" x="61.65" y="339.77" width="66.45" height="61.9" rx="5.38" ry="5.38"/>
    <g>
      <g>
        <rect class="cls-16" x="87.29" y="389.78" width="15.6" height="6.01"/>
        <path class="cls-16" d="m106.81,374.93l-10.92-22.42c-.1-.21-.41-.13-.41.1v17.35c.99.27,1.69,1.25,1.5,2.37-.15.83-.83,1.52-1.66,1.67-1.32.23-2.46-.77-2.46-2.04,0-.96.65-1.75,1.53-2v-17.33c0-.23-.31-.3-.41-.09l-10.92,22.42c-.52,1.07-.54,2.32-.06,3.41l4.37,9.83,7.64-.12v-.02l7.51.12,4.37-9.83c.48-1.09.46-2.34-.06-3.41Z"/>
      </g>
      <g>
        <g>
          <g>
            <path class="cls-16" d="m71.64,348.91c0,1.12-.91,2.03-2.03,2.03s-2.03-.91-2.03-2.03.91-2.03,2.03-2.03,2.03.91,2.03,2.03Z"/>
            <path class="cls-16" d="m122.53,348.91c0,1.12-.91,2.03-2.03,2.03s-2.03-.91-2.03-2.03.91-2.03,2.03-2.03,2.03.91,2.03,2.03Z"/>
          </g>
          <rect class="cls-16" x="93.29" y="347.2" width="3.3" height="3.3"/>
          <path class="cls-16" d="m120.5,349.19c-.49,0-49.4-.08-50.87,0l-.03-.55c1.49-.08,48.88,0,50.9,0v.56Z"/>
        </g>
        <path class="cls-16" d="m115.49,364.29c-2.83-9.03-11.09-15.09-20.56-15.09s-17.73,6.07-20.56,15.09l-.53-.17c2.9-9.26,11.38-15.48,21.09-15.48s18.19,6.22,21.09,15.48l-.53.17Z"/>
        <rect class="cls-16" x="113.59" y="362.38" width="3.3" height="3.3"/>
        <rect class="cls-16" x="72.74" y="362.38" width="3.3" height="3.3"/>
      </g>
    </g>
  </g>
  <g>
    <polyline class="cls-14" points="122.3 245.58 248.72 245.58 248.72 273.56 321.88 273.56"/>
    <circle class="cls-5" cx="320.69" cy="273.77" r="3.81"/>
    <circle class="cls-5" cx="125.62" cy="246" r="3.81"/>
  </g>
  <g>
    <path class="cls-5" d="m404.45,180.31c0,2.11-1.71,3.81-3.81,3.81s-3.81-1.71-3.81-3.81,1.71-3.81,3.81-3.81,3.81,1.71,3.81,3.81Z"/>
    <path class="cls-5" d="m654.05,339.64c0,2.11-1.71,3.82-3.81,3.82s-3.82-1.71-3.82-3.82,1.71-3.81,3.82-3.81,3.81,1.71,3.81,3.81Z"/>
    <polyline class="cls-14" points="400.64 180.31 400.64 233.7 683.32 233.7 683.32 340.23 649.94 340.23"/>
  </g>
  <g class="cls-45">
    <path class="cls-37" d="m677.65,181.67c-3.39,0-6.52,1.08-9.09,2.91.02-.33.05-.66.05-.99,0-8.68-7.04-15.72-15.72-15.72-5.82,0-10.89,3.17-13.61,7.87-2.01-6.37-7.96-10.98-14.99-10.98-8.68,0-15.72,7.04-15.72,15.72,0,.43.03.85.06,1.26-.41-.03-.81-.06-1.23-.06-8.68,0-15.72,7.04-15.72,15.72s7.04,15.72,15.72,15.72h70.25c8.68,0,15.72-7.04,15.72-15.72s-7.04-15.72-15.72-15.72Z"/>
    <polygon class="cls-18" points="634.82 213.12 626.04 237.51 640.09 237.51 633.07 261.12 659.31 231.98 645.16 232.05 655.5 213.12 634.82 213.12"/>
  </g>
  <g>
    <circle class="cls-5" cx="399.61" cy="364.18" r="3.82"/>
    <path class="cls-5" d="m511.94,373.86c1.24-1.71,3.62-2.09,5.33-.85,1.71,1.24,2.09,3.62.85,5.33-1.24,1.71-3.62,2.09-5.33.85s-2.09-3.62-.85-5.33Z"/>
    <polyline class="cls-14" points="399.61 364.18 489.28 364.18 489.28 376 515.34 376"/>
  </g>
  <g>
    <rect class="cls-10" x="165.63" y="376.46" width="79.55" height="40.16" rx="3.94" ry="3.94"/>
    <g>
      <path class="cls-43" d="m193.46,408.37c-.37,0-.75-.13-1.05-.4l-11.94-10.47c-.35-.3-.54-.74-.54-1.2s.2-.9.54-1.2l11.94-10.47c.66-.58,1.67-.51,2.25.15.58.66.51,1.67-.15,2.25l-10.57,9.27,10.57,9.27c.66.58.73,1.59.15,2.25-.32.36-.76.54-1.2.54Z"/>
      <path class="cls-43" d="m217.35,408.37c-.44,0-.88-.18-1.2-.54-.58-.66-.51-1.67.15-2.25l10.57-9.27-10.57-9.27c-.66-.58-.73-1.59-.15-2.25.58-.66,1.59-.73,2.25-.15l11.94,10.47c.35.3.54.74.54,1.2s-.2.9-.54,1.2l-11.94,10.47c-.3.27-.68.4-1.05.4Z"/>
      <path class="cls-43" d="m201.88,412.28c-.14,0-.27-.02-.41-.05-.85-.23-1.36-1.1-1.13-1.95l7.54-28.28c.23-.85,1.1-1.36,1.95-1.13.85.23,1.36,1.1,1.13,1.95l-7.54,28.28c-.19.71-.84,1.19-1.54,1.19Z"/>
    </g>
  </g>
</svg>