<?xml version="1.0" encoding="UTF-8" standalone="no" ?>
<!DOCTYPE svg PUBLIC "-//W3C//DTD SVG 1.1//EN" "http://www.w3.org/Graphics/SVG/1.1/DTD/svg11.dtd">
<svg xmlns="http://www.w3.org/2000/svg" xmlns:xlink="http://www.w3.org/1999/xlink" version="1.1" width="1280" height="1024" viewBox="0 0 1280 1024" xml:space="preserve">
<desc>Created with Fabric.js 5.3.0</desc>
<defs>
</defs>
<g transform="matrix(1 0 0 1 640 512)" id="background-logo"  >
<rect style="stroke: none; stroke-width: 0; stroke-dasharray: none; stroke-linecap: butt; stroke-dashoffset: 0; stroke-linejoin: miter; stroke-miterlimit: 4; fill: rgb(255,255,255); fill-opacity: 0; fill-rule: nonzero; opacity: 1;"  paint-order="stroke"  x="-640" y="-512" rx="0" ry="0" width="1280" height="1024" />
</g>
<g transform="matrix(1.9211538461538462 0 0 1.9211538461538462 640 405.88833030817466)" id="logo-logo"  >
<g style=""  paint-order="stroke"   >
		<g transform="matrix(0.28197377813400726 0 0 0.2819737781340073 -24.122260119542204 67.68516451695854)"  >
<linearGradient id="SVGID_1_175765" gradientUnits="userSpaceOnUse" gradientTransform="matrix(1 0 0 1 0 0)"  x1="414.4521179" y1="774.9248047" x2="414.4521179" y2="283.9557495">
<stop offset="0%" style="stop-color:rgb(253,190,0);stop-opacity: 1"/>
<stop offset="1.44104%" style="stop-color:rgb(252,180,3);stop-opacity: 1"/>
<stop offset="6.55075%" style="stop-color:rgb(250,151,12);stop-opacity: 1"/>
<stop offset="11.5908%" style="stop-color:rgb(248,129,19);stop-opacity: 1"/>
<stop offset="16.485030000000002%" style="stop-color:rgb(247,116,23);stop-opacity: 1"/>
<stop offset="21.06301%" style="stop-color:rgb(247,112,24);stop-opacity: 1"/>
<stop offset="21.21942%" style="stop-color:rgb(247,112,25);stop-opacity: 1"/>
<stop offset="25.76015%" style="stop-color:rgb(244,100,64);stop-opacity: 1"/>
<stop offset="30.274420000000003%" style="stop-color:rgb(242,90,93);stop-opacity: 1"/>
<stop offset="34.699259999999995%" style="stop-color:rgb(241,83,115);stop-opacity: 1"/>
<stop offset="38.99391%" style="stop-color:rgb(240,79,128);stop-opacity: 1"/>
<stop offset="43.01229%" style="stop-color:rgb(240,78,132);stop-opacity: 1"/>
<stop offset="79.41726%" style="stop-color:rgb(28,131,251);stop-opacity: 1"/>
<stop offset="100%" style="stop-color:rgb(0,243,228);stop-opacity: 1"/>
</linearGradient>
<path style="stroke: none; stroke-width: 1; stroke-dasharray: none; stroke-linecap: butt; stroke-dashoffset: 0; stroke-linejoin: miter; stroke-miterlimit: 4; fill: url(#SVGID_1_175765); fill-rule: nonzero; opacity: 1;"  paint-order="stroke"  transform=" translate(-414.4521234989444, -740.0406188999999)" d="M 595.3573608 769.0300903 C 598.1954345 773.9453735 598.9487304 779.6709594 597.4802246 785.1531372 C 596.0117187000001 790.6352539 592.4945679 795.2176513999999 587.5792847 798.0557250999999 C 584.3056031 799.9445800999999 580.6724243 800.9108886999999 576.9916382 800.9108886999999 C 575.1445923 800.9108886999999 573.288086 800.6674194999998 571.4562378 800.1766967999998 C 565.9741211 798.7081908999999 561.3917236000001 795.1910400999998 558.5555420000001 790.2776488999998 C 555.8751221000001 785.6356810999998 555.1718750000001 780.3965453999998 556.1469116000001 775.5124510999998 L 416.545166 694.9129028 L 281.57861330000003 772.8364257 L 511.46215820000003 772.8364257 L 535.0786743 786.4713134 L 500 786.4713134 L 230.69104 786.4713134 L 416.545166 679.1703491 L 562.9390258999999 763.6892089999999 C 563.9700317999999 762.7844848999999 565.0996094 761.9634399999999 566.3317261 761.2520141999998 L 566.3336181999999 761.2520141999998 C 576.4837646 755.3932495 589.5004883 758.8894653 595.3573608 769.0300903 z" stroke-linecap="round" />
</g>
		<g transform="matrix(0.28197377813400726 0 0 0.2819737781340073 57.54476231555691 18.935292135433826)"  >
<linearGradient id="SVGID_2_175766" gradientUnits="userSpaceOnUse" gradientTransform="matrix(1 0 0 1 0 0)"  x1="704.0784302" y1="774.9248047" x2="704.0784302" y2="283.9557495">
<stop offset="0%" style="stop-color:rgb(253,190,0);stop-opacity: 1"/>
<stop offset="1.44104%" style="stop-color:rgb(252,180,3);stop-opacity: 1"/>
<stop offset="6.55075%" style="stop-color:rgb(250,151,12);stop-opacity: 1"/>
<stop offset="11.5908%" style="stop-color:rgb(248,129,19);stop-opacity: 1"/>
<stop offset="16.485030000000002%" style="stop-color:rgb(247,116,23);stop-opacity: 1"/>
<stop offset="21.06301%" style="stop-color:rgb(247,112,24);stop-opacity: 1"/>
<stop offset="21.21942%" style="stop-color:rgb(247,112,25);stop-opacity: 1"/>
<stop offset="25.76015%" style="stop-color:rgb(244,100,64);stop-opacity: 1"/>
<stop offset="30.274420000000003%" style="stop-color:rgb(242,90,93);stop-opacity: 1"/>
<stop offset="34.699259999999995%" style="stop-color:rgb(241,83,115);stop-opacity: 1"/>
<stop offset="38.99391%" style="stop-color:rgb(240,79,128);stop-opacity: 1"/>
<stop offset="43.01229%" style="stop-color:rgb(240,78,132);stop-opacity: 1"/>
<stop offset="79.41726%" style="stop-color:rgb(28,131,251);stop-opacity: 1"/>
<stop offset="100%" style="stop-color:rgb(0,243,228);stop-opacity: 1"/>
</linearGradient>
<path style="stroke: none; stroke-width: 1; stroke-dasharray: none; stroke-linecap: butt; stroke-dashoffset: 0; stroke-linejoin: miter; stroke-miterlimit: 4; fill: url(#SVGID_2_175766); fill-rule: nonzero; opacity: 1;"  paint-order="stroke"  transform=" translate(-704.0784248363941, -567.1526549760764)" d="M 606.7800293 418.917511 C 612.6387939 408.77499389999997 625.6536255 405.2825623 635.8056641000001 411.14132689999997 C 640.7209473 413.97750849999994 644.2362061 418.5598755 645.7047120000001 424.04202269999996 C 647.1732179 429.52413939999997 646.419922 435.25167849999997 643.5818482000001 440.16503909999994 C 640.9779664000001 444.67776489999994 636.8918458 447.9892578999999 631.9993897 449.64129639999993 L 631.9993897 610.8320312999999 L 766.9659424 688.7536011 L 652.0238037 489.6706543 L 652.0238037 462.3998108 L 804.2185669 726.0062256 L 618.3644409000001 618.7033081 L 618.3644409000001 449.6254883 C 617.0602417000001 449.1800232 615.7783813000001 448.64801029999995 614.5581055000001 447.9431153 C 604.4118042 442.0862427 600.9231567 429.0638123 606.7800293 418.917511 z" stroke-linecap="round" />
</g>
		<g transform="matrix(0.28197377813400726 0 0 0.2819737781340073 -36.41594151059121 -22.045706089183966)"  >
<linearGradient id="SVGID_3_175767" gradientUnits="userSpaceOnUse" gradientTransform="matrix(1 0 0 1 0 0)"  x1="370.8534546" y1="774.9248047" x2="370.8534546" y2="283.9557495">
<stop offset="0%" style="stop-color:rgb(253,190,0);stop-opacity: 1"/>
<stop offset="1.44104%" style="stop-color:rgb(252,180,3);stop-opacity: 1"/>
<stop offset="6.55075%" style="stop-color:rgb(250,151,12);stop-opacity: 1"/>
<stop offset="11.5908%" style="stop-color:rgb(248,129,19);stop-opacity: 1"/>
<stop offset="16.485030000000002%" style="stop-color:rgb(247,116,23);stop-opacity: 1"/>
<stop offset="21.06301%" style="stop-color:rgb(247,112,24);stop-opacity: 1"/>
<stop offset="21.21942%" style="stop-color:rgb(247,112,25);stop-opacity: 1"/>
<stop offset="25.76015%" style="stop-color:rgb(244,100,64);stop-opacity: 1"/>
<stop offset="30.274420000000003%" style="stop-color:rgb(242,90,93);stop-opacity: 1"/>
<stop offset="34.699259999999995%" style="stop-color:rgb(241,83,115);stop-opacity: 1"/>
<stop offset="38.99391%" style="stop-color:rgb(240,79,128);stop-opacity: 1"/>
<stop offset="43.01229%" style="stop-color:rgb(240,78,132);stop-opacity: 1"/>
<stop offset="79.41726%" style="stop-color:rgb(28,131,251);stop-opacity: 1"/>
<stop offset="100%" style="stop-color:rgb(0,243,228);stop-opacity: 1"/>
</linearGradient>
<path style="stroke: none; stroke-width: 1; stroke-dasharray: none; stroke-linecap: butt; stroke-dashoffset: 0; stroke-linejoin: miter; stroke-miterlimit: 4; fill: url(#SVGID_3_175767); fill-rule: nonzero; opacity: 1;"  paint-order="stroke"  transform=" translate(-370.8534546, -421.8164521000001)" d="M 276.6157837 562.8339233 C 276.6157837 551.1182861000001 286.1476746 541.5863647 297.8633118 541.5863647 C 303.2233582 541.5863647 308.1119995 543.5971069 311.8540955 546.883728 L 451.45617680000004 466.2840881 L 451.45617680000004 310.4371338 L 336.513916 509.5222168 L 312.8963623 523.157898 L 465.09112550000003 259.55148320000006 L 465.09112550000003 474.1553956000001 L 318.69677740000003 558.6779786000001 C 318.96463020000004 560.0229493 319.11083990000003 561.4113770000001 319.11083990000003 562.8339234000001 C 319.11083990000003 574.5494996000001 309.578949 584.0814210000001 297.8633118 584.0814210000001 C 286.1476746 584.0814210000001 276.6157837 574.5494995 276.6157837 562.8339233 z" stroke-linecap="round" />
</g>
		<g transform="matrix(0.28197377813400726 0 0 0.2819737781340073 0 -2.0357908150944297)"  >
<linearGradient id="SVGID_4_175768" gradientUnits="userSpaceOnUse" gradientTransform="matrix(1 0 0 1 0 0)"  x1="500" y1="774.9248047" x2="500" y2="283.9557495">
<stop offset="0%" style="stop-color:rgb(253,190,0);stop-opacity: 1"/>
<stop offset="1.44104%" style="stop-color:rgb(252,180,3);stop-opacity: 1"/>
<stop offset="6.55075%" style="stop-color:rgb(250,151,12);stop-opacity: 1"/>
<stop offset="11.5908%" style="stop-color:rgb(248,129,19);stop-opacity: 1"/>
<stop offset="16.485030000000002%" style="stop-color:rgb(247,116,23);stop-opacity: 1"/>
<stop offset="21.06301%" style="stop-color:rgb(247,112,24);stop-opacity: 1"/>
<stop offset="21.21942%" style="stop-color:rgb(247,112,25);stop-opacity: 1"/>
<stop offset="25.76015%" style="stop-color:rgb(244,100,64);stop-opacity: 1"/>
<stop offset="30.274420000000003%" style="stop-color:rgb(242,90,93);stop-opacity: 1"/>
<stop offset="34.699259999999995%" style="stop-color:rgb(241,83,115);stop-opacity: 1"/>
<stop offset="38.99391%" style="stop-color:rgb(240,79,128);stop-opacity: 1"/>
<stop offset="43.01229%" style="stop-color:rgb(240,78,132);stop-opacity: 1"/>
<stop offset="79.41726%" style="stop-color:rgb(28,131,251);stop-opacity: 1"/>
<stop offset="100%" style="stop-color:rgb(0,243,228);stop-opacity: 1"/>
</linearGradient>
<path style="stroke: none; stroke-width: 1; stroke-dasharray: none; stroke-linecap: butt; stroke-dashoffset: 0; stroke-linejoin: miter; stroke-miterlimit: 4; fill: url(#SVGID_4_175768); fill-rule: nonzero; opacity: 1;"  paint-order="stroke"  transform=" translate(-500.0000077, -492.78019704999997)" d="M 825.4893799 786.4700317 L 839.1245728 786.4700317 L 832.3066407 774.6609497000001 L 548.5443115 610.8312988 L 548.5443115 310.4380798 L 576.6359253 359.0934143 L 576.6359253 573.6727295000001 C 571.9190674 575.2703247000001 567.7335205 578.4983521 565.0534668 583.1398316000001 C 559.1965942 593.2861329000001 562.6852417 606.3067017000001 572.8296509 612.1654664000001 C 576.1679688 614.0924073000001 579.8145142000001 615.0073243000002 583.4172363 615.0073243000002 C 590.767334 615.0073243000002 597.9252929 611.1953126000002 601.8552856 604.3873902000001 C 604.6933593 599.4721070000002 605.4465942 593.7464600000002 603.9780883 588.2643433000002 C 602.5095824 582.7841187000001 598.9924315999999 578.2017212000002 594.0771483999999 575.3636475000002 C 592.8452758 574.6519776000002 591.5697021 574.0839844000002 590.2708739999999 573.6433716000001 L 590.2708739999999 355.44119260000014 L 534.9093627999999 259.5505066000001 L 534.9093627999999 514.4660034000001 L 506.81771849999996 530.6847534000001 L 506.81771849999996 210.8976898 L 500 199.0890808 L 493.1827698 210.8968506 L 493.1827698 538.5568848 L 233.0345612 688.7536011 L 261.1261902 640.0992431999999 L 446.9559326 532.8095093 C 450.6976929 536.0962525 455.5860901 538.1072387999999 460.94622799999996 538.1072387999999 C 472.66186519999997 538.1072387999999 482.19378659999995 528.5753173999999 482.19378659999995 516.8596801999998 C 482.19378659999995 505.1440734999998 472.66186519999997 495.61218259999987 460.94622799999996 495.61218259999987 C 449.23062129999994 495.61218259999987 439.700592 505.1440734999999 439.700592 516.8596801999998 C 439.700592 518.2818603999998 439.84658809999996 519.6698608999999 440.1143188 521.0144653999998 L 251.1434631 630.1165161 L 195.7819366 726.0062256 L 416.5449218 598.5487061 L 444.6376342 614.7680054 L 167.6931458 774.6615601 L 160.87544259999999 786.4700318 L 174.51121529999998 786.4700318 L 458.27305609999996 622.6403809000001 L 718.4199676999999 772.8364258000001 L 662.2366791 772.8364258000001 L 476.4077759 665.5471802 C 477.3828736 660.6630249 476.67953489999996 655.4240113 473.999115 650.7819824 C 471.16293340000004 645.8685912999999 466.58053590000003 642.3514404 461.0984192 640.8829344999999 C 455.6143799 639.4125366 449.890686 640.1677245 444.97540280000004 643.0038450999999 C 440.06011960000006 645.8419187999999 436.54486080000004 650.4243162999999 435.07635490000007 655.906494 C 433.60595700000005 661.3886107 434.3592528000001 667.1141965999999 437.19732660000005 672.0294798 C 441.12915030000005 678.8374632 448.28521720000003 682.6475217999999 455.6353149 682.6475217999999 C 459.2380676 682.6475217999999 462.88647460000004 681.7326048 466.22293090000005 679.807556 C 467.45507810000004 679.0961302 468.58462520000006 678.2752074 469.61550900000003 677.3704832 L 658.5844726 786.4713133 L 769.3074951 786.4713133 L 548.5443115 659.0136108 L 548.5443115 626.5761718 L 825.4893799 786.4700317 z M 534.9093628 651.1414795 L 430.18035890000004 590.6762084999999 L 534.9093628 530.2108764999999 L 534.9093628 651.1414795 z" stroke-linecap="round" />
</g>
</g>
</g>
<g transform="matrix(1.9211538461538462 0 0 1.9211538461538462 640 661.5958177037684)" id="text-logo"  >
<g style=""  paint-order="stroke"   >
		<g transform="matrix(1 0 0 1 0 0)" id="text-logo-path-0"  >
<path style="stroke: none; stroke-width: 0; stroke-dasharray: none; stroke-linecap: butt; stroke-dashoffset: 0; stroke-linejoin: miter; stroke-miterlimit: 4; fill: rgb(28,131,251); fill-rule: nonzero; opacity: 1;"  paint-order="stroke"  transform=" translate(-226.04500000000002, 18.549999999999997)" d="M 2.12 0 L 30.21 0 L 30.21 -6.36 L 8.48 -6.36 L 8.48 -16.7 L 24.91 -16.7 L 24.91 -23.05 L 8.48 -23.05 L 8.48 -30.74 L 30.21 -30.74 L 30.21 -37.1 L 2.12 -37.1 Z M 66.36 -5.14 L 61.9 -9.7 C 59.52 -7.31 56.76 -6.09 53.21 -6.09 C 45.84 -6.09 40.81 -11.24 40.81 -18.6 C 40.81 -25.86 45.84 -31 53.21 -31 C 56.76 -31 59.52 -29.79 61.9 -27.4 L 66.36 -31.96 C 63.02 -35.24 58.35 -37.37 53.21 -37.37 C 42.77 -37.37 34.45 -28.94 34.45 -18.6 C 34.45 -8.16 42.77 0.27 53.21 0.27 C 58.35 0.27 63.02 -1.85 66.36 -5.14 Z M 80.14 0 L 80.14 -15.37 L 98.69 -15.37 L 98.69 0 L 105.05 0 L 105.05 -37.1 L 98.69 -37.1 L 98.69 -21.73 L 80.14 -21.73 L 80.14 -37.1 L 73.78 -37.1 L 73.78 0 Z M 131.23 -6.09 C 123.86 -6.09 118.83 -11.18 118.83 -18.6 C 118.83 -25.97 123.86 -31 131.23 -31 C 138.59 -31 143.63 -25.97 143.63 -18.6 C 143.63 -11.18 138.59 -6.09 131.23 -6.09 Z M 112.47 -18.6 C 112.47 -8.11 120.79 0.27 131.23 0.27 C 141.67 0.27 149.99 -8.11 149.99 -18.6 C 149.99 -29.04 141.67 -37.37 131.23 -37.37 C 120.79 -37.37 112.47 -29.04 112.47 -18.6 Z M 189.32 -5.14 L 184.86 -9.7 C 182.48 -7.31 179.72 -6.09 176.17 -6.09 C 168.81 -6.09 163.77 -11.24 163.77 -18.6 C 163.77 -25.86 168.81 -31 176.17 -31 C 179.72 -31 182.48 -29.79 184.86 -27.4 L 189.32 -31.96 C 185.98 -35.24 181.31 -37.37 176.17 -37.37 C 165.73 -37.37 157.41 -28.94 157.41 -18.6 C 157.41 -8.16 165.73 0.27 176.17 0.27 C 181.31 0.27 185.98 -1.85 189.32 -5.14 Z M 213.38 -6.09 C 206.01 -6.09 200.98 -11.18 200.98 -18.6 C 200.98 -25.97 206.01 -31 213.38 -31 C 220.75 -31 225.78 -25.97 225.78 -18.6 C 225.78 -11.18 220.75 -6.09 213.38 -6.09 Z M 194.62 -18.6 C 194.62 -8.11 202.94 0.27 213.38 0.27 C 223.82 0.27 232.14 -8.11 232.14 -18.6 C 232.14 -29.04 223.82 -37.37 213.38 -37.37 C 202.94 -37.37 194.62 -29.04 194.62 -18.6 Z M 239.56 0 L 253.39 0 C 268.02 0 273.8 -5.19 273.8 -18.6 C 273.8 -31.32 267.81 -37.1 253.39 -37.1 L 239.56 -37.1 Z M 245.92 -6.36 L 245.92 -30.74 L 253.39 -30.74 C 264.79 -30.74 267.44 -28.2 267.44 -18.6 C 267.44 -8.48 265.11 -6.36 253.39 -6.36 Z M 281.22 0 L 309.31 0 L 309.31 -6.36 L 287.58 -6.36 L 287.58 -16.7 L 304.01 -16.7 L 304.01 -23.05 L 287.58 -23.05 L 287.58 -30.74 L 309.31 -30.74 L 309.31 -37.1 L 281.22 -37.1 Z M 316.73 0 L 323.09 0 L 323.09 -6.36 L 316.73 -6.36 Z M 337.4 0 L 339.78 -5.83 L 358.33 -5.83 L 360.72 0 L 367.61 0 L 352.5 -37.1 L 345.61 -37.1 L 330.51 0 Z M 342.38 -12.19 L 349.06 -28.62 L 355.74 -12.19 Z M 381.39 0 L 381.39 -14.04 L 397.24 -14.04 C 403.54 -14.04 408.79 -19.24 408.79 -25.55 C 408.79 -31.91 403.54 -37.1 397.24 -37.1 L 375.03 -37.1 L 375.03 0 Z M 381.39 -20.41 L 381.39 -30.74 L 397.24 -30.74 C 400.47 -30.74 402.43 -28.83 402.43 -25.55 C 402.43 -22.31 400.47 -20.41 397.24 -20.41 Z M 422.57 0 L 422.57 -14.04 L 438.42 -14.04 C 444.72 -14.04 449.97 -19.24 449.97 -25.55 C 449.97 -31.91 444.72 -37.1 438.42 -37.1 L 416.21 -37.1 L 416.21 0 Z M 422.57 -20.41 L 422.57 -30.74 L 438.42 -30.74 C 441.65 -30.74 443.61 -28.83 443.61 -25.55 C 443.61 -22.31 441.65 -20.41 438.42 -20.41 Z" stroke-linecap="round" />
</g>
</g>
</g>
<g transform="matrix(1.9211538461538462 0 0 1.9211538461538462 640.0389033653845 750.2231785499223)" id="tagline-1d7e4b57-2e88-4da7-8ff2-7c98f9f65a42-logo"  >
<g style=""  paint-order="stroke"   >
		<g transform="matrix(1 0 0 1 0 0)" id="tagline-1d7e4b57-2e88-4da7-8ff2-7c98f9f65a42-logo-path-0"  >
<path style="stroke: none; stroke-width: 0; stroke-dasharray: none; stroke-linecap: butt; stroke-dashoffset: 0; stroke-linejoin: miter; stroke-miterlimit: 4; fill: rgb(0,243,228); fill-rule: nonzero; opacity: 1;"  paint-order="stroke"  transform=" translate(-236.77500000000003, 9.45)" d="M 1.08 0 L 12.39 0 C 15.61 0 18.28 -2.65 18.28 -5.89 C 18.28 -7.64 17.5 -9.21 16.25 -10.29 C 17.04 -11.21 17.52 -12.42 17.52 -13.72 C 17.52 -16.58 15.2 -18.9 12.31 -18.9 L 1.08 -18.9 Z M 4.32 -3.24 L 4.32 -8.51 L 12.31 -8.51 L 12.39 -8.51 C 14.04 -8.51 15.04 -7.53 15.04 -5.89 C 15.04 -4.21 14.04 -3.24 12.39 -3.24 Z M 4.32 -11.74 L 4.32 -15.66 L 12.31 -15.66 C 13.63 -15.66 14.28 -15.01 14.28 -13.72 C 14.28 -12.42 13.63 -11.74 12.31 -11.74 Z M 33.94 0 L 48.25 0 L 48.25 -3.24 L 37.18 -3.24 L 37.18 -8.51 L 45.55 -8.51 L 45.55 -11.74 L 37.18 -11.74 L 37.18 -15.66 L 48.25 -15.66 L 48.25 -18.9 L 33.94 -18.9 Z M 74.41 -14.23 L 77.65 -14.23 C 77.65 -17.31 75.38 -19.04 71.14 -19.04 C 67.26 -19.04 64.69 -17.52 64.69 -14.23 C 64.69 -11.26 66.55 -9.8 70.79 -8.88 C 75.14 -7.94 75.95 -7.67 75.95 -5.99 C 75.95 -3.65 75.01 -3.1 71.14 -3.1 C 68.36 -3.1 67.31 -3.54 66.72 -4.59 L 63.91 -3.02 C 65.12 -0.86 67.55 0.14 71.14 0.14 C 76.14 0.14 79.19 -1.59 79.19 -5.99 C 79.19 -10.02 76.14 -11.04 71.5 -12.07 C 68.34 -12.74 67.93 -12.99 67.93 -14.23 C 67.93 -15.53 68.39 -15.79 71.14 -15.79 C 73.98 -15.79 74.41 -15.5 74.41 -14.23 Z M 102.82 0 L 102.82 -15.66 L 109.43 -15.66 L 109.43 -18.9 L 92.96 -18.9 L 92.96 -15.66 L 99.58 -15.66 L 99.58 0 Z M 147.5 0 L 148.72 -2.97 L 158.17 -2.97 L 159.38 0 L 162.89 0 L 155.2 -18.9 L 151.69 -18.9 L 143.99 0 Z M 150.04 -6.21 L 153.44 -14.58 L 156.84 -6.21 Z M 181.79 0 L 181.79 -7.16 L 189.86 -7.16 C 193.08 -7.16 195.75 -9.8 195.75 -13.01 C 195.75 -16.25 193.08 -18.9 189.86 -18.9 L 178.55 -18.9 L 178.55 0 Z M 181.79 -10.39 L 181.79 -15.66 L 189.86 -15.66 C 191.51 -15.66 192.51 -14.69 192.51 -13.01 C 192.51 -11.37 191.51 -10.39 189.86 -10.39 Z M 214.65 0 L 214.65 -7.16 L 222.72 -7.16 C 225.94 -7.16 228.61 -9.8 228.61 -13.01 C 228.61 -16.25 225.94 -18.9 222.72 -18.9 L 211.41 -18.9 L 211.41 0 Z M 214.65 -10.39 L 214.65 -15.66 L 222.72 -15.66 C 224.37 -15.66 225.37 -14.69 225.37 -13.01 C 225.37 -11.37 224.37 -10.39 222.72 -10.39 Z M 254.77 -14.23 L 258.01 -14.23 C 258.01 -17.31 255.74 -19.04 251.5 -19.04 C 247.62 -19.04 245.05 -17.52 245.05 -14.23 C 245.05 -11.26 246.91 -9.8 251.15 -8.88 C 255.5 -7.94 256.31 -7.67 256.31 -5.99 C 256.31 -3.65 255.37 -3.1 251.5 -3.1 C 248.72 -3.1 247.67 -3.54 247.08 -4.59 L 244.27 -3.02 C 245.48 -0.86 247.91 0.14 251.5 0.14 C 256.5 0.14 259.55 -1.59 259.55 -5.99 C 259.55 -10.02 256.5 -11.04 251.86 -12.07 C 248.7 -12.74 248.29 -12.99 248.29 -14.23 C 248.29 -15.53 248.75 -15.79 251.5 -15.79 C 254.34 -15.79 254.77 -15.5 254.77 -14.23 Z M 297.35 0 L 297.35 -18.9 L 294.11 -18.9 L 294.11 0 Z M 323.51 -14.23 L 326.75 -14.23 C 326.75 -17.31 324.49 -19.04 320.25 -19.04 C 316.36 -19.04 313.79 -17.52 313.79 -14.23 C 313.79 -11.26 315.66 -9.8 319.9 -8.88 C 324.24 -7.94 325.05 -7.67 325.05 -5.99 C 325.05 -3.65 324.11 -3.1 320.25 -3.1 C 317.47 -3.1 316.41 -3.54 315.82 -4.59 L 313.01 -3.02 C 314.23 -0.86 316.66 0.14 320.25 0.14 C 325.24 0.14 328.29 -1.59 328.29 -5.99 C 328.29 -10.02 325.24 -11.04 320.6 -12.07 C 317.44 -12.74 317.03 -12.99 317.03 -14.23 C 317.03 -15.53 317.49 -15.79 320.25 -15.79 C 323.08 -15.79 323.51 -15.5 323.51 -14.23 Z M 366.09 0 L 366.09 -7.83 L 375.54 -7.83 L 375.54 0 L 378.78 0 L 378.78 -18.9 L 375.54 -18.9 L 375.54 -11.07 L 366.09 -11.07 L 366.09 -18.9 L 362.85 -18.9 L 362.85 0 Z M 394.44 0 L 408.75 0 L 408.75 -3.24 L 397.68 -3.24 L 397.68 -8.51 L 406.05 -8.51 L 406.05 -11.74 L 397.68 -11.74 L 397.68 -15.66 L 408.75 -15.66 L 408.75 -18.9 L 394.44 -18.9 Z M 427.65 0 L 427.65 -7.16 L 434.38 -7.16 L 438.72 0 L 442.5 0 L 437.91 -7.59 C 440.07 -8.45 441.61 -10.56 441.61 -13.01 C 441.61 -16.25 438.94 -18.9 435.73 -18.9 L 424.41 -18.9 L 424.41 0 Z M 427.65 -10.39 L 427.65 -15.66 L 435.73 -15.66 C 437.37 -15.66 438.37 -14.69 438.37 -13.01 C 438.37 -11.37 437.37 -10.39 435.73 -10.39 Z M 458.16 0 L 472.47 0 L 472.47 -3.24 L 461.4 -3.24 L 461.4 -8.51 L 469.77 -8.51 L 469.77 -11.74 L 461.4 -11.74 L 461.4 -15.66 L 472.47 -15.66 L 472.47 -18.9 L 458.16 -18.9 Z" stroke-linecap="round" />
</g>
</g>
</g>
</svg>