<svg xmlns="http://www.w3.org/2000/svg" width="750" height="500" fill="none" viewBox="0 0 750 500"><g filter="url(#a)"><path fill="url(#b)" d="m524.48 422.9 7.84.06.09-10.49-7.84-.06c-.41-1.52-1-2.97-1.75-4.32l5.59-5.5-7.36-7.48-5.59 5.5c-1.34-.77-2.78-1.38-4.29-1.82l.06-7.84-10.49-.09-.06 7.84c-1.52.41-2.97 1-4.32 1.75l-5.5-5.59-7.48 7.36 5.5 5.59c-.77 1.34-1.38 2.78-1.82 4.29l-7.84-.06-.09 10.49 7.84.06c.41 1.52 1 2.97 1.75 4.32l-5.59 5.5 7.36 7.48 5.59-5.5c1.34.77 2.78 1.38 4.29 1.82l-.06 7.84 10.49.09.06-7.84c1.52-.41 2.97-1 4.32-1.75l5.5 5.59 7.48-7.36-5.5-5.59c.77-1.34 1.38-2.78 1.82-4.29m-18.78 3.2c-4.75-.04-8.57-3.92-8.53-8.67s3.92-8.57 8.67-8.53 8.57 3.92 8.53 8.67-3.92 8.57-8.67 8.53"/></g><g filter="url(#c)"><path fill="url(#d)" d="m269.9 115.92.73 11.93 15.97-.97-.73-11.93c2.27-.79 4.41-1.84 6.39-3.11l8.95 7.92 10.6-11.98-8.95-7.92a29.8 29.8 0 0 0 2.32-6.72l11.93-.73-.97-15.97-11.93.73c-.79-2.27-1.84-4.41-3.11-6.39l7.92-8.95-11.98-10.6-7.92 8.95a29.8 29.8 0 0 0-6.72-2.32l-.73-11.93-15.97.97.73 11.93c-2.27.79-4.41 1.84-6.39 3.11l-8.95-7.92L240.49 66l8.95 7.92a29.8 29.8 0 0 0-2.32 6.72l-11.93.73.97 15.97 11.93-.73c.79 2.27 1.84 4.41 3.11 6.39l-7.92 8.95 11.98 10.6 7.92-8.95a29.8 29.8 0 0 0 6.72 2.32m-6.84-28.23c-.44-7.23 5.06-13.44 12.29-13.88s13.44 5.06 13.88 12.29-5.06 13.44-12.29 13.88-13.44-5.06-13.88-12.29"/></g><rect width="109.12" height="148.46" x="470.46" y="77.53" fill="#000" fill-opacity=".01" rx="12"/><g filter="url(#e)" opacity=".4"><path fill="#fff" d="M570.75 77.53h-91.46a8.83 8.83 0 0 0-8.83 8.83v130.8a8.83 8.83 0 0 0 8.83 8.83h91.46a8.83 8.83 0 0 0 8.83-8.83V86.36a8.83 8.83 0 0 0-8.83-8.83"/></g><rect width="188.93" height="362.9" x="265.18" y="86.77" fill="#000" fill-opacity=".01" rx="35"/><g filter="url(#f)"><path fill="url(#g)" d="M419.85 95.03H299.43c-15 0-27.16 12.16-27.16 27.16v292.06c0 15 12.16 27.16 27.16 27.16h120.42c15 0 27.16-12.16 27.16-27.16V122.19c0-15-12.16-27.16-27.16-27.16"/><path fill="#000" fill-opacity=".96" d="M418.19 86.77H301.1c-19.84 0-35.92 16.08-35.92 35.92v291.06c0 19.84 16.08 35.92 35.92 35.92h117.09c19.84 0 35.92-16.08 35.92-35.92V122.69c0-19.84-16.08-35.92-35.92-35.92m28.83 327.48c0 15-12.16 27.16-27.16 27.16H299.44c-15 0-27.16-12.16-27.16-27.16V122.19c0-15 12.16-27.16 27.16-27.16h120.42c15 0 27.16 12.16 27.16 27.16z"/><path fill="#000" fill-opacity=".96" d="M379.58 109.89h-39.69c-8.22 0-14.89-6.66-14.89-14.89h69.47c0 8.22-6.66 14.89-14.89 14.89"/><path fill="url(#h)" d="M368.38 99.42h-28.75v2.34h28.75z"/><path fill="url(#i)" d="M379.84 100.59c0 .91-.74 1.65-1.65 1.65s-1.65-.74-1.65-1.65.74-1.65 1.65-1.65 1.65.74 1.65 1.65"/></g><rect width="65.7" height="65.7" x="286.29" y="148.14" fill="#000" fill-opacity=".01" rx="12"/><path fill="#fff" fill-opacity=".12" d="M344.86 148.14h-51.44a7.13 7.13 0 0 0-7.13 7.13v51.44a7.13 7.13 0 0 0 7.13 7.13h51.44a7.13 7.13 0 0 0 7.13-7.13v-51.44a7.13 7.13 0 0 0-7.13-7.13"/><path stroke="#fff" stroke-miterlimit="10" stroke-width=".89" d="M425.87 148.14h-51.44a7.13 7.13 0 0 0-7.13 7.13v51.44a7.13 7.13 0 0 0 7.13 7.13h51.44a7.13 7.13 0 0 0 7.13-7.13v-51.44a7.13 7.13 0 0 0-7.13-7.13Zm-81.01 91.77h-51.44a7.13 7.13 0 0 0-7.13 7.13v51.44a7.13 7.13 0 0 0 7.13 7.13h51.44a7.13 7.13 0 0 0 7.13-7.13v-51.44a7.13 7.13 0 0 0-7.13-7.13Z" opacity=".92"/><rect width="65.7" height="65.7" x="367.3" y="239.91" fill="#000" fill-opacity=".01" rx="12"/><path fill="#f9ffe5" fill-opacity=".21" d="M425.87 239.91h-51.44a7.13 7.13 0 0 0-7.13 7.13v51.44a7.13 7.13 0 0 0 7.13 7.13h51.44a7.13 7.13 0 0 0 7.13-7.13v-51.44a7.13 7.13 0 0 0-7.13-7.13"/><rect width="65.7" height="65.7" x="286.29" y="331.68" fill="#000" fill-opacity=".01" rx="12"/><path fill="#fff" fill-opacity=".12" d="M344.86 331.68h-51.44a7.13 7.13 0 0 0-7.13 7.13v51.44a7.13 7.13 0 0 0 7.13 7.13h51.44a7.13 7.13 0 0 0 7.13-7.13v-51.44a7.13 7.13 0 0 0-7.13-7.13"/><path stroke="#fff" stroke-miterlimit="10" stroke-width=".89" d="M425.87 331.68h-51.44a7.13 7.13 0 0 0-7.13 7.13v51.44a7.13 7.13 0 0 0 7.13 7.13h51.44a7.13 7.13 0 0 0 7.13-7.13v-51.44a7.13 7.13 0 0 0-7.13-7.13Z" opacity=".92"/><path fill="#f3f3f3" d="m345.28 172.77-24.86-10.71-24.85 10.71h6.65v27.14h13.56v-14.87h9.29v14.87h13.55v-27.14zm43.29 102.93h-8.99v19.09h8.99zm15.79-12.45h-8.99v31.54h8.99zm16.36-11.66h-8.99v43.2h8.99zm-86.4 97.38h-30.37c-3.66 0-6.63 2.97-6.63 6.63v15.24c0 2.8 1.74 5.19 4.2 6.16h-.01l3.87 7.73 4.18-7.27h24.76c3.66 0 6.63-2.97 6.63-6.63v-15.24c0-3.66-2.97-6.63-6.63-6.63zm-27.03 18.49c-2.39 0-4.33-1.94-4.33-4.33s1.94-4.33 4.33-4.33 4.33 1.94 4.33 4.33-1.94 4.33-4.33 4.33m11.85 0c-2.39 0-4.33-1.94-4.33-4.33s1.94-4.33 4.33-4.33 4.33 1.94 4.33 4.33-1.94 4.33-4.33 4.33m11.85 0c-2.39 0-4.33-1.94-4.33-4.33s1.94-4.33 4.33-4.33 4.33 1.94 4.33 4.33-1.94 4.33-4.33 4.33"/><path fill="url(#j)" d="M569.83 212.29h-89.62v.68h89.62z"/><path fill="url(#k)" d="M569.83 181.86h-89.62v.68h89.62z"/><path fill="url(#l)" d="M569.83 151.42h-89.62v.68h89.62z"/><path fill="url(#m)" d="M569.83 120.98h-89.62v.68h89.62z"/><path fill="url(#n)" d="M569.83 90.55h-89.62v.68h89.62z"/><path fill="url(#o)" d="M499.74 90.89h-6.01V212.2h6.01z"/><path fill="url(#p)" d="M515.5 90.89h-6.01V212.2h6.01z"/><path fill="url(#q)" d="M531.26 90.89h-6.01V212.2h6.01z"/><path fill="url(#r)" d="M547.02 90.89h-6.01V212.2h6.01z"/><path fill="url(#s)" d="M562.79 90.89h-6.01V212.2h6.01z"/><path fill="url(#t)" d="M499.74 156.5h-6.01v55.69h6.01z"/><path fill="url(#u)" d="M515.5 172.13h-6.01v40.06h6.01z"/><path fill="url(#v)" d="M531.26 127.79h-6.01v84.4h6.01z"/><path fill="url(#w)" d="M547.02 143.62h-6.01v68.57h6.01z"/><path fill="url(#x)" d="M562.79 179.65h-6.01v32.55h6.01z"/><path fill="url(#y)" d="M499.74 90.89h-6.01v19.93h6.01z"/><path fill="url(#z)" d="M515.5 90.89h-6.01v33.95h6.01z"/><path fill="url(#A)" d="M531.26 90.89h-6.01v16.01h6.01z"/><path fill="url(#B)" d="M547.02 90.89h-6.01v19.93h6.01z"/><path fill="url(#C)" d="M562.79 90.89h-6.01v33.95h6.01z"/><rect width="189.07" height="124.33" x="102.59" y="107.23" fill="#000" fill-opacity=".01" rx="15"/><path fill="#fff" d="M280.75 107.23H113.5c-6.025 0-10.91 4.885-10.91 10.91v102.51c0 6.025 4.885 10.91 10.91 10.91h167.25c6.025 0 10.91-4.885 10.91-10.91V118.14c0-6.025-4.885-10.91-10.91-10.91" opacity=".4"/><g filter="url(#D)"><path fill="url(#E)" d="M110.44 222.503q0 .005.002.004c.985-1.22 41.262-41.334 53.705-53.721a4.99 4.99 0 0 1 7.147.108l33.53 35.338a5 5 0 0 0 7.354-.109l20.73-23.187a5 5 0 0 1 7.231-.234l33.837 33.231c3.194 3.136.973 8.567-3.503 8.567h-160.03q-.003 0-.003.003"/></g><g filter="url(#F)"><path fill="#ff8e1b" d="M209.02 167.4c10.637 0 19.26-8.623 19.26-19.26s-8.623-19.26-19.26-19.26-19.26 8.623-19.26 19.26 8.623 19.26 19.26 19.26"/></g><rect width="178.16" height="89.95" x="442.77" y="244.4" fill="#000" fill-opacity=".01" rx="12"/><g filter="url(#G)" opacity=".4"><path fill="#fff" d="M612.1 244.4H451.6a8.83 8.83 0 0 0-8.83 8.83v72.29a8.83 8.83 0 0 0 8.83 8.83h160.5a8.83 8.83 0 0 0 8.83-8.83v-72.29a8.83 8.83 0 0 0-8.83-8.83"/></g><g filter="url(#H)"><path fill="url(#I)" d="M531.85 307.33c14.094 0 25.52-11.426 25.52-25.52s-11.426-25.52-25.52-25.52-25.52 11.426-25.52 25.52 11.426 25.52 25.52 25.52"/><path fill="#fff" d="m523.44 268.91 22.35 12.9-22.35 12.91z"/></g><path fill="url(#J)" d="M603.38 320.46H460.32c-1.08 0-1.96-.88-1.96-1.96s.88-1.96 1.96-1.96h143.06c1.08 0 1.96.88 1.96 1.96s-.88 1.96-1.96 1.96"/><path fill="#fff" d="M491.1 318.5c0 2.47-2 4.48-4.48 4.48s-4.48-2-4.48-4.48 2-4.48 4.48-4.48 4.48 2 4.48 4.48"/><rect width="65.7" height="65.7" x="68" y="225" fill="#000" fill-opacity=".01" rx="12"/><g filter="url(#K)"><path fill="url(#L)" d="M126.57 225H75.13a7.13 7.13 0 0 0-7.13 7.13v51.44a7.13 7.13 0 0 0 7.13 7.13h51.44a7.13 7.13 0 0 0 7.13-7.13v-51.44a7.13 7.13 0 0 0-7.13-7.13"/></g><g filter="url(#M)"><path fill="#f3f3f3" d="M106.95 243.31c-6.69-5.92-16.94-5.29-22.86 1.4s-5.29 16.94 1.4 22.86c5.93 5.24 14.65 5.34 20.68.64l13.32 11.78 3.94-4.45-13.32-11.78c3.93-6.56 2.77-15.2-3.15-20.44zm-1.24 20.53c-4.63 5.23-12.66 5.72-17.89 1.09s-5.72-12.65-1.09-17.89c4.63-5.23 12.66-5.72 17.89-1.09s5.72 12.66 1.09 17.89"/></g><g filter="url(#N)"><path fill="url(#O)" d="M637.92 304.15h-51.44a7.13 7.13 0 0 0-7.13 7.13v51.44a7.13 7.13 0 0 0 7.13 7.13h51.44a7.13 7.13 0 0 0 7.13-7.13v-51.44a7.13 7.13 0 0 0-7.13-7.13"/></g><g fill="#fff" filter="url(#P)"><path d="M622.3 327.67c0 5.41-4.52 9.8-10.1 9.8s-10.1-4.39-10.1-9.8 4.52-9.8 10.1-9.8 10.1 4.39 10.1 9.8m-25.47 27.43c0 .35.08.69.11 1.03h30.52c.03-.35.11-.68.11-1.03 0-8.04-6.58-14.55-14.79-14.85h-1.15c-8.22.3-14.79 6.81-14.79 14.85z"/></g><rect width="65.7" height="65.7" x="520.21" y="355.49" fill="#000" fill-opacity=".01" rx="12"/><g filter="url(#Q)"><path fill="#a231ff" fill-opacity=".65" d="M578.78 355.49h-51.44a7.13 7.13 0 0 0-7.13 7.13v51.44a7.13 7.13 0 0 0 7.13 7.13h51.44a7.13 7.13 0 0 0 7.13-7.13v-51.44a7.13 7.13 0 0 0-7.13-7.13"/></g><path fill="#fff" d="M553.06 364.77c-9.78 0-17.72 7.93-17.72 17.72s17.72 29.42 17.72 29.42 17.72-19.63 17.72-29.42-7.93-17.72-17.72-17.72m0 26.09c-4.57 0-8.27-3.7-8.27-8.27s3.7-8.27 8.27-8.27 8.27 3.7 8.27 8.27-3.7 8.27-8.27 8.27"/><g filter="url(#R)"><path fill="url(#S)" d="M578.78 355.49h-51.44a7.13 7.13 0 0 0-7.13 7.13v51.44a7.13 7.13 0 0 0 7.13 7.13h51.44a7.13 7.13 0 0 0 7.13-7.13v-51.44a7.13 7.13 0 0 0-7.13-7.13"/></g><path fill="#fff" d="M553.06 364.77c-9.78 0-17.72 7.93-17.72 17.72s17.72 29.42 17.72 29.42 17.72-19.63 17.72-29.42-7.93-17.72-17.72-17.72m0 26.09c-4.57 0-8.27-3.7-8.27-8.27s3.7-8.27 8.27-8.27 8.27 3.7 8.27 8.27-3.7 8.27-8.27 8.27"/><rect width="66.45" height="61.9" x="61.65" y="339.77" fill="#000" fill-opacity=".01" rx="12"/><g filter="url(#T)"><path fill="url(#U)" d="M122.72 339.77H67.03a5.38 5.38 0 0 0-5.38 5.38v51.14a5.38 5.38 0 0 0 5.38 5.38h55.69a5.38 5.38 0 0 0 5.38-5.38v-51.14a5.38 5.38 0 0 0-5.38-5.38"/></g><path fill="#f3f3f3" d="M102.89 389.78h-15.6v6.01h15.6zm3.92-14.85-10.92-22.42c-.1-.21-.41-.13-.41.1v17.35c.99.27 1.69 1.25 1.5 2.37-.15.83-.83 1.52-1.66 1.67-1.32.23-2.46-.77-2.46-2.04 0-.96.65-1.75 1.53-2v-17.33c0-.23-.31-.3-.41-.09l-10.92 22.42a4.06 4.06 0 0 0-.06 3.41l4.37 9.83 7.64-.12v-.02l7.51.12 4.37-9.83c.48-1.09.46-2.34-.06-3.41zm-35.17-26.02c0 1.12-.91 2.03-2.03 2.03s-2.03-.91-2.03-2.03.91-2.03 2.03-2.03 2.03.91 2.03 2.03m50.89 0c0 1.12-.91 2.03-2.03 2.03s-2.03-.91-2.03-2.03.91-2.03 2.03-2.03 2.03.91 2.03 2.03m-25.94-1.71h-3.3v3.3h3.3z"/><path fill="#f3f3f3" d="M120.5 349.19c-.49 0-49.4-.08-50.87 0l-.03-.55c1.49-.08 48.88 0 50.9 0v.56z"/><path fill="#f3f3f3" d="M115.49 364.29c-2.83-9.03-11.09-15.09-20.56-15.09s-17.73 6.07-20.56 15.09l-.53-.17c2.9-9.26 11.38-15.48 21.09-15.48s18.19 6.22 21.09 15.48z"/><path fill="#f3f3f3" d="M116.89 362.38h-3.3v3.3h3.3zm-40.85 0h-3.3v3.3h3.3z"/><path stroke="#fff" stroke-miterlimit="10" stroke-width="2" d="M122.3 245.58h126.42v27.98h73.16"/><path fill="#fff" d="M320.69 277.58a3.81 3.81 0 1 0 0-7.62 3.81 3.81 0 0 0 0 7.62m-195.07-27.77a3.81 3.81 0 1 0 0-7.62 3.81 3.81 0 0 0 0 7.62m278.83-69.5a3.809 3.809 0 1 1-7.618.002 3.809 3.809 0 0 1 7.618-.002m249.6 159.33c0 2.11-1.71 3.82-3.81 3.82s-3.82-1.71-3.82-3.82 1.71-3.81 3.82-3.81 3.81 1.71 3.81 3.81"/><path stroke="#fff" stroke-miterlimit="10" stroke-width="2" d="M400.64 180.31v53.39h282.68v106.53h-33.38"/><g filter="url(#V)"><path fill="url(#W)" d="M677.65 181.67c-3.39 0-6.52 1.08-9.09 2.91.02-.33.05-.66.05-.99 0-8.68-7.04-15.72-15.72-15.72-5.82 0-10.89 3.17-13.61 7.87-2.01-6.37-7.96-10.98-14.99-10.98-8.68 0-15.72 7.04-15.72 15.72 0 .43.03.85.06 1.26-.41-.03-.81-.06-1.23-.06-8.68 0-15.72 7.04-15.72 15.72s7.04 15.72 15.72 15.72h70.25c8.68 0 15.72-7.04 15.72-15.72s-7.04-15.72-15.72-15.72z"/><path fill="url(#X)" d="m634.82 213.12-8.78 24.39h14.05l-7.02 23.61 26.24-29.14-14.15.07 10.34-18.93z"/></g><path fill="#fff" d="M399.61 368a3.82 3.82 0 1 0 0-7.64 3.82 3.82 0 0 0 0 7.64m112.33 5.86a3.81 3.81 0 0 1 5.33-.85 3.81 3.81 0 0 1 .85 5.33 3.81 3.81 0 0 1-5.33.85 3.81 3.81 0 0 1-.85-5.33"/><path stroke="#fff" stroke-miterlimit="10" stroke-width="2" d="M399.61 364.18h89.67V376h26.06"/><g filter="url(#Y)"><path fill="#ff31e0" fill-opacity=".65" d="M241.24 376.46h-71.67a3.94 3.94 0 0 0-3.94 3.94v32.28a3.94 3.94 0 0 0 3.94 3.94h71.67a3.94 3.94 0 0 0 3.94-3.94V380.4a3.94 3.94 0 0 0-3.94-3.94"/></g><path fill="#ebebeb" d="M193.46 408.37c-.37 0-.75-.13-1.05-.4l-11.94-10.47a1.607 1.607 0 0 1 0-2.4l11.94-10.47c.66-.58 1.67-.51 2.25.15s.51 1.67-.15 2.25l-10.57 9.27 10.57 9.27c.66.58.73 1.59.15 2.25-.32.36-.76.54-1.2.54zm23.89 0c-.44 0-.88-.18-1.2-.54-.58-.66-.51-1.67.15-2.25l10.57-9.27-10.57-9.27c-.66-.58-.73-1.59-.15-2.25s1.59-.73 2.25-.15l11.94 10.47a1.607 1.607 0 0 1 0 2.4l-11.94 10.47c-.3.27-.68.4-1.05.4zm-15.47 3.91c-.14 0-.27-.02-.41-.05-.85-.23-1.36-1.1-1.13-1.95l7.54-28.28a1.593 1.593 0 1 1 3.08.82l-7.54 28.28c-.19.71-.84 1.19-1.54 1.19z"/><g filter="url(#Z)"><path fill="url(#aa)" d="M241.24 376.46h-71.67a3.94 3.94 0 0 0-3.94 3.94v32.28a3.94 3.94 0 0 0 3.94 3.94h71.67a3.94 3.94 0 0 0 3.94-3.94V380.4a3.94 3.94 0 0 0-3.94-3.94"/></g><path fill="#ebebeb" d="M193.46 408.37c-.37 0-.75-.13-1.05-.4l-11.94-10.47a1.607 1.607 0 0 1 0-2.4l11.94-10.47c.66-.58 1.67-.51 2.25.15s.51 1.67-.15 2.25l-10.57 9.27 10.57 9.27c.66.58.73 1.59.15 2.25-.32.36-.76.54-1.2.54zm23.89 0c-.44 0-.88-.18-1.2-.54-.58-.66-.51-1.67.15-2.25l10.57-9.27-10.57-9.27c-.66-.58-.73-1.59-.15-2.25s1.59-.73 2.25-.15l11.94 10.47a1.607 1.607 0 0 1 0 2.4l-11.94 10.47c-.3.27-.68.4-1.05.4zm-15.47 3.91c-.14 0-.27-.02-.41-.05-.85-.23-1.36-1.1-1.13-1.95l7.54-28.28a1.593 1.593 0 1 1 3.08.82l-7.54 28.28c-.19.71-.84 1.19-1.54 1.19z"/><rect width="109.12" height="101.65" x="122.32" y="258.07" fill="#000" fill-opacity=".01" rx="38"/><rect width="109.12" height="101.65" x="122.32" y="258.07" fill="#000" fill-opacity=".01" rx="12"/><g filter="url(#ab)" opacity=".4"><path fill="#fff" d="M222.61 258.07h-91.46a8.83 8.83 0 0 0-8.83 8.83v83.99a8.83 8.83 0 0 0 8.83 8.83h91.46a8.83 8.83 0 0 0 8.83-8.83V266.9a8.83 8.83 0 0 0-8.83-8.83"/></g><g filter="url(#ac)"><path fill="#ff9e1a" d="M161.84 301.37h-18.1c0-18.28 14.87-33.14 33.14-33.14v18.1c-8.29 0-15.04 6.75-15.04 15.04"/><path fill="#ffc906" d="M191.92 301.37c0 8.29-6.75 15.04-15.04 15.04l-4.6 9.05 4.6 9.05c18.28 0 33.14-14.87 33.14-33.14z"/><path fill="#ff8e1b" d="m161.84 301.37-9.05-4.6-9.05 4.6c0 18.28 14.87 33.14 33.14 33.14v-18.1c-8.29 0-15.04-6.75-15.04-15.04"/><path fill="#f74285" d="M210.03 301.37c0-18.28-14.87-33.14-33.14-33.14v18.1c8.29 0 15.04 6.75 15.04 15.04l9.05 4.6z"/></g><path fill="url(#ad)" d="M180.91 342.34h-49.03v3.31h49.03z"/><path fill="url(#ae)" d="M180.91 349.97h-49.03v3.31h49.03z"/><path fill="#ff9e1a" d="M199.52 342.34H189.4v3.31h10.12z"/><path fill="#f74285" d="M214.11 342.34h-10.12v3.31h10.12z"/><path fill="#ff8e1b" d="M199.52 349.97H189.4v3.31h10.12z"/><path fill="#ffc906" d="M214.11 349.97h-10.12v3.31h10.12z"/><defs><linearGradient id="b" x1="486.94" x2="524.61" y1="436.34" y2="398.67" gradientUnits="userSpaceOnUse"><stop stop-color="#ffc72b"/><stop offset=".23" stop-color="#ffc72b"/><stop offset=".48" stop-color="#ffd675"/><stop offset=".72" stop-color="#ff8e1b"/><stop offset=".97" stop-color="#ebebeb"/><stop offset="1" stop-color="#ffc72b"/></linearGradient><linearGradient id="d" x1="273.33" x2="278.939" y1="46.377" y2="127.403" gradientUnits="userSpaceOnUse"><stop stop-color="#ffd899"/><stop offset=".23" stop-color="#ffc552"/><stop offset=".48" stop-color="#ffbf2a"/><stop offset=".72" stop-color="#ffcd17"/><stop offset=".97" stop-color="#ff8e1b"/><stop offset="1" stop-color="#ffa434"/></linearGradient><linearGradient id="g" x1="360" x2="360" y1="95" y2="441" gradientUnits="userSpaceOnUse"><stop stop-color="#ffc906"/><stop offset="1" stop-color="#f74285"/></linearGradient><linearGradient id="h" x1="339.63" x2="368.38" y1="100.59" y2="100.59" gradientUnits="userSpaceOnUse"><stop stop-color="#ced5f5"/><stop offset="1" stop-color="#fcf9fe"/></linearGradient><linearGradient id="i" x1="376.53" x2="379.84" y1="100.59" y2="100.59" gradientUnits="userSpaceOnUse"><stop stop-color="#ced5f5"/><stop offset="1" stop-color="#fcf9fe"/></linearGradient><linearGradient id="j" x1="525.02" x2="525.02" y1="212.957" y2="212.388" gradientUnits="userSpaceOnUse"><stop stop-color="#fdbe00"/><stop offset=".014" stop-color="#fcb403"/><stop offset=".066" stop-color="#fa970c"/><stop offset=".116" stop-color="#f88113"/><stop offset=".165" stop-color="#f77417"/><stop offset=".211" stop-color="#f77018"/><stop offset=".212" stop-color="#f77019"/><stop offset=".258" stop-color="#f46440"/><stop offset=".303" stop-color="#f25a5d"/><stop offset=".347" stop-color="#f15373"/><stop offset=".39" stop-color="#f04f80"/><stop offset=".43" stop-color="#f04e84"/><stop offset=".794" stop-color="#1c83fb"/><stop offset="1" stop-color="#00f3e4"/></linearGradient><linearGradient id="k" x1="525.02" x2="525.02" y1="182.527" y2="181.958" gradientUnits="userSpaceOnUse"><stop stop-color="#fdbe00"/><stop offset=".014" stop-color="#fcb403"/><stop offset=".066" stop-color="#fa970c"/><stop offset=".116" stop-color="#f88113"/><stop offset=".165" stop-color="#f77417"/><stop offset=".211" stop-color="#f77018"/><stop offset=".212" stop-color="#f77019"/><stop offset=".258" stop-color="#f46440"/><stop offset=".303" stop-color="#f25a5d"/><stop offset=".347" stop-color="#f15373"/><stop offset=".39" stop-color="#f04f80"/><stop offset=".43" stop-color="#f04e84"/><stop offset=".794" stop-color="#1c83fb"/><stop offset="1" stop-color="#00f3e4"/></linearGradient><linearGradient id="l" x1="525.02" x2="525.02" y1="152.087" y2="151.518" gradientUnits="userSpaceOnUse"><stop stop-color="#fdbe00"/><stop offset=".014" stop-color="#fcb403"/><stop offset=".066" stop-color="#fa970c"/><stop offset=".116" stop-color="#f88113"/><stop offset=".165" stop-color="#f77417"/><stop offset=".211" stop-color="#f77018"/><stop offset=".212" stop-color="#f77019"/><stop offset=".258" stop-color="#f46440"/><stop offset=".303" stop-color="#f25a5d"/><stop offset=".347" stop-color="#f15373"/><stop offset=".39" stop-color="#f04f80"/><stop offset=".43" stop-color="#f04e84"/><stop offset=".794" stop-color="#1c83fb"/><stop offset="1" stop-color="#00f3e4"/></linearGradient><linearGradient id="m" x1="525.02" x2="525.02" y1="121.647" y2="121.078" gradientUnits="userSpaceOnUse"><stop stop-color="#fdbe00"/><stop offset=".014" stop-color="#fcb403"/><stop offset=".066" stop-color="#fa970c"/><stop offset=".116" stop-color="#f88113"/><stop offset=".165" stop-color="#f77417"/><stop offset=".211" stop-color="#f77018"/><stop offset=".212" stop-color="#f77019"/><stop offset=".258" stop-color="#f46440"/><stop offset=".303" stop-color="#f25a5d"/><stop offset=".347" stop-color="#f15373"/><stop offset=".39" stop-color="#f04f80"/><stop offset=".43" stop-color="#f04e84"/><stop offset=".794" stop-color="#1c83fb"/><stop offset="1" stop-color="#00f3e4"/></linearGradient><linearGradient id="n" x1="525.02" x2="525.02" y1="91.217" y2="90.648" gradientUnits="userSpaceOnUse"><stop stop-color="#fdbe00"/><stop offset=".014" stop-color="#fcb403"/><stop offset=".066" stop-color="#fa970c"/><stop offset=".116" stop-color="#f88113"/><stop offset=".165" stop-color="#f77417"/><stop offset=".211" stop-color="#f77018"/><stop offset=".212" stop-color="#f77019"/><stop offset=".258" stop-color="#f46440"/><stop offset=".303" stop-color="#f25a5d"/><stop offset=".347" stop-color="#f15373"/><stop offset=".39" stop-color="#f04f80"/><stop offset=".43" stop-color="#f04e84"/><stop offset=".794" stop-color="#1c83fb"/><stop offset="1" stop-color="#00f3e4"/></linearGradient><linearGradient id="o" x1="496.73" x2="496.73" y1="212.19" y2="90.89" gradientUnits="userSpaceOnUse"><stop stop-color="#ced5f5"/><stop offset="1" stop-color="#fcf9fe"/></linearGradient><linearGradient id="p" x1="512.5" x2="512.5" y1="212.19" y2="90.89" gradientUnits="userSpaceOnUse"><stop stop-color="#ced5f5"/><stop offset="1" stop-color="#fcf9fe"/></linearGradient><linearGradient id="q" x1="528.26" x2="528.26" y1="212.19" y2="90.89" gradientUnits="userSpaceOnUse"><stop stop-color="#ced5f5"/><stop offset="1" stop-color="#fcf9fe"/></linearGradient><linearGradient id="r" x1="544.02" x2="544.02" y1="212.19" y2="90.89" gradientUnits="userSpaceOnUse"><stop stop-color="#ced5f5"/><stop offset="1" stop-color="#fcf9fe"/></linearGradient><linearGradient id="s" x1="559.78" x2="559.78" y1="212.19" y2="90.89" gradientUnits="userSpaceOnUse"><stop stop-color="#ced5f5"/><stop offset="1" stop-color="#fcf9fe"/></linearGradient><linearGradient id="t" x1="496.735" x2="496.735" y1="156.5" y2="212.19" gradientUnits="userSpaceOnUse"><stop stop-color="#f74285"/><stop offset="1" stop-color="#ffc906"/></linearGradient><linearGradient id="u" x1="512.495" x2="512.495" y1="172.13" y2="212.19" gradientUnits="userSpaceOnUse"><stop stop-color="#f74285"/><stop offset="1" stop-color="#ffc906"/></linearGradient><linearGradient id="v" x1="528.255" x2="528.255" y1="127.79" y2="212.19" gradientUnits="userSpaceOnUse"><stop stop-color="#f74285"/><stop offset="1" stop-color="#ffc906"/></linearGradient><linearGradient id="w" x1="544.015" x2="544.015" y1="143.62" y2="212.19" gradientUnits="userSpaceOnUse"><stop stop-color="#f74285"/><stop offset="1" stop-color="#ffc906"/></linearGradient><linearGradient id="x" x1="559.785" x2="559.785" y1="179.65" y2="212.2" gradientUnits="userSpaceOnUse"><stop stop-color="#f74285"/><stop offset="1" stop-color="#ffc906"/></linearGradient><linearGradient id="y" x1="496.73" x2="496.73" y1="110.82" y2="90.89" gradientUnits="userSpaceOnUse"><stop stop-color="#ffc906"/><stop offset="1" stop-color="#f74285"/></linearGradient><linearGradient id="z" x1="512.5" x2="512.5" y1="124.84" y2="90.89" gradientUnits="userSpaceOnUse"><stop stop-color="#ffc906"/><stop offset="1" stop-color="#f74285"/></linearGradient><linearGradient id="A" x1="528.26" x2="528.26" y1="106.9" y2="90.89" gradientUnits="userSpaceOnUse"><stop stop-color="#ffc906"/><stop offset="1" stop-color="#f74285"/></linearGradient><linearGradient id="B" x1="544.02" x2="544.02" y1="110.82" y2="90.89" gradientUnits="userSpaceOnUse"><stop stop-color="#ffc906"/><stop offset="1" stop-color="#f74285"/></linearGradient><linearGradient id="C" x1="559.78" x2="559.78" y1="124.84" y2="90.89" gradientUnits="userSpaceOnUse"><stop stop-color="#ffc906"/><stop offset="1" stop-color="#f74285"/></linearGradient><linearGradient id="E" x1="110.44" x2="282.7" y1="193.845" y2="193.845" gradientUnits="userSpaceOnUse"><stop offset=".019" stop-color="#ff8e1b"/><stop offset="1" stop-color="#f74285"/></linearGradient><linearGradient id="I" x1="506.33" x2="557.38" y1="281.81" y2="281.81" gradientUnits="userSpaceOnUse"><stop stop-color="#ffa434"/><stop offset="1" stop-color="#f74285"/></linearGradient><linearGradient id="J" x1="458.37" x2="605.34" y1="318.5" y2="318.5" gradientUnits="userSpaceOnUse"><stop stop-color="#f74285"/><stop offset="1" stop-color="#edb971"/></linearGradient><linearGradient id="L" x1="70.09" x2="131.61" y1="288.62" y2="227.09" gradientUnits="userSpaceOnUse"><stop stop-color="#ffa434"/><stop offset="1" stop-color="#f74285"/></linearGradient><linearGradient id="O" x1="612.2" x2="612.2" y1="304.15" y2="369.85" gradientUnits="userSpaceOnUse"><stop stop-color="#ffa434"/><stop offset="1" stop-color="#f74285"/></linearGradient><linearGradient id="S" x1="520.21" x2="585.9" y1="388.34" y2="388.34" gradientUnits="userSpaceOnUse"><stop stop-color="#f74285"/><stop offset="1" stop-color="#edb971"/></linearGradient><linearGradient id="U" x1="94.875" x2="94.875" y1="339.77" y2="401.67" gradientUnits="userSpaceOnUse"><stop stop-color="#ffa434"/><stop offset="1" stop-color="#f74285"/></linearGradient><linearGradient id="W" x1="591.68" x2="693.38" y1="188.93" y2="188.93" gradientUnits="userSpaceOnUse"><stop stop-color="#ff8e1b"/><stop offset="1" stop-color="#f7f2fe"/></linearGradient><linearGradient id="X" x1="642.68" x2="642.68" y1="261.12" y2="213.12" gradientUnits="userSpaceOnUse"><stop stop-color="#f74285"/><stop offset="1" stop-color="#edb971"/></linearGradient><linearGradient id="aa" x1="165.63" x2="245.18" y1="396.54" y2="396.54" gradientUnits="userSpaceOnUse"><stop stop-color="#f74285"/><stop offset="1" stop-color="#edb971"/></linearGradient><linearGradient id="ad" x1="131.88" x2="180.91" y1="343.995" y2="343.995" gradientUnits="userSpaceOnUse"><stop stop-color="#ff9e1a"/><stop offset="1" stop-color="#f74285"/></linearGradient><linearGradient id="ae" x1="131.88" x2="180.91" y1="351.625" y2="351.625" gradientUnits="userSpaceOnUse"><stop stop-color="#ff8e1b"/><stop offset="1" stop-color="#ffc906"/></linearGradient><filter id="a" width="61.28" height="61.28" x="476.13" y="387.86" color-interpolation-filters="sRGB" filterUnits="userSpaceOnUse"><feFlood flood-opacity="0" result="BackgroundImageFix"/><feColorMatrix in="SourceAlpha" result="hardAlpha" values="0 0 0 0 0 0 0 0 0 0 0 0 0 0 0 0 0 0 127 0"/><feOffset dx="1" dy="1"/><feGaussianBlur stdDeviation="2"/><feColorMatrix values="0 0 0 0 0 0 0 0 0 0 0 0 0 0 0 0 0 0 0.16 0"/><feBlend in2="BackgroundImageFix" result="effect1_dropShadow_17_124"/><feBlend in="SourceGraphic" in2="effect1_dropShadow_17_124" result="shape"/></filter><filter id="c" width="89.92" height="89.92" x="232.19" y="42.93" color-interpolation-filters="sRGB" filterUnits="userSpaceOnUse"><feFlood flood-opacity="0" result="BackgroundImageFix"/><feColorMatrix in="SourceAlpha" result="hardAlpha" values="0 0 0 0 0 0 0 0 0 0 0 0 0 0 0 0 0 0 127 0"/><feOffset dx="1" dy="1"/><feGaussianBlur stdDeviation="2"/><feColorMatrix values="0 0 0 0 0 0 0 0 0 0 0 0 0 0 0 0 0 0 0.16 0"/><feBlend in2="BackgroundImageFix" result="effect1_dropShadow_17_124"/><feBlend in="SourceGraphic" in2="effect1_dropShadow_17_124" result="shape"/></filter><filter id="e" width="121.12" height="160.46" x="466.46" y="73.53" color-interpolation-filters="sRGB" filterUnits="userSpaceOnUse"><feFlood flood-opacity="0" result="BackgroundImageFix"/><feColorMatrix in="SourceAlpha" result="hardAlpha" values="0 0 0 0 0 0 0 0 0 0 0 0 0 0 0 0 0 0 127 0"/><feOffset dx="2" dy="2"/><feGaussianBlur stdDeviation="3"/><feColorMatrix values="0 0 0 0 0 0 0 0 0 0 0 0 0 0 0 0 0 0 0.27 0"/><feBlend in2="BackgroundImageFix" result="effect1_dropShadow_17_124"/><feBlend in="SourceGraphic" in2="effect1_dropShadow_17_124" result="shape"/></filter><filter id="f" width="200.93" height="374.9" x="262.18" y="84.77" color-interpolation-filters="sRGB" filterUnits="userSpaceOnUse"><feFlood flood-opacity="0" result="BackgroundImageFix"/><feColorMatrix in="SourceAlpha" result="hardAlpha" values="0 0 0 0 0 0 0 0 0 0 0 0 0 0 0 0 0 0 127 0"/><feOffset dx="3" dy="4"/><feGaussianBlur stdDeviation="3"/><feColorMatrix values="0 0 0 0 0 0 0 0 0 0 0 0 0 0 0 0 0 0 0.27 0"/><feBlend in2="BackgroundImageFix" result="effect1_dropShadow_17_124"/><feBlend in="SourceGraphic" in2="effect1_dropShadow_17_124" result="shape"/></filter><filter id="D" width="180.443" height="70.575" x="102.74" y="163.633" color-interpolation-filters="sRGB" filterUnits="userSpaceOnUse"><feFlood flood-opacity="0" result="BackgroundImageFix"/><feColorMatrix in="SourceAlpha" result="hardAlpha" values="0 0 0 0 0 0 0 0 0 0 0 0 0 0 0 0 0 0 127 0"/><feOffset dy="4"/><feGaussianBlur stdDeviation="3.85"/><feComposite in2="hardAlpha" operator="out"/><feColorMatrix values="0 0 0 0 0 0 0 0 0 0 0 0 0 0 0 0 0 0 0.25 0"/><feBlend in2="BackgroundImageFix" result="effect1_dropShadow_17_124"/><feBlend in="SourceGraphic" in2="effect1_dropShadow_17_124" result="shape"/></filter><filter id="F" width="46.52" height="46.52" x="185.76" y="128.88" color-interpolation-filters="sRGB" filterUnits="userSpaceOnUse"><feFlood flood-opacity="0" result="BackgroundImageFix"/><feColorMatrix in="SourceAlpha" result="hardAlpha" values="0 0 0 0 0 0 0 0 0 0 0 0 0 0 0 0 0 0 127 0"/><feOffset dy="4"/><feGaussianBlur stdDeviation="2"/><feComposite in2="hardAlpha" operator="out"/><feColorMatrix values="0 0 0 0 0 0 0 0 0 0 0 0 0 0 0 0 0 0 0.25 0"/><feBlend in2="BackgroundImageFix" result="effect1_dropShadow_17_124"/><feBlend in="SourceGraphic" in2="effect1_dropShadow_17_124" result="shape"/></filter><filter id="G" width="190.16" height="101.95" x="438.77" y="240.4" color-interpolation-filters="sRGB" filterUnits="userSpaceOnUse"><feFlood flood-opacity="0" result="BackgroundImageFix"/><feColorMatrix in="SourceAlpha" result="hardAlpha" values="0 0 0 0 0 0 0 0 0 0 0 0 0 0 0 0 0 0 127 0"/><feOffset dx="2" dy="2"/><feGaussianBlur stdDeviation="3"/><feColorMatrix values="0 0 0 0 0 0 0 0 0 0 0 0 0 0 0 0 0 0 0.27 0"/><feBlend in2="BackgroundImageFix" result="effect1_dropShadow_17_124"/><feBlend in="SourceGraphic" in2="effect1_dropShadow_17_124" result="shape"/></filter><filter id="H" width="63.04" height="63.04" x="502.33" y="252.29" color-interpolation-filters="sRGB" filterUnits="userSpaceOnUse"><feFlood flood-opacity="0" result="BackgroundImageFix"/><feColorMatrix in="SourceAlpha" result="hardAlpha" values="0 0 0 0 0 0 0 0 0 0 0 0 0 0 0 0 0 0 127 0"/><feOffset dx="2" dy="2"/><feGaussianBlur stdDeviation="3"/><feColorMatrix values="0 0 0 0 0 0 0 0 0 0 0 0 0 0 0 0 0 0 0.27 0"/><feBlend in2="BackgroundImageFix" result="effect1_dropShadow_17_124"/><feBlend in="SourceGraphic" in2="effect1_dropShadow_17_124" result="shape"/></filter><filter id="K" width="77.7" height="77.7" x="64" y="221" color-interpolation-filters="sRGB" filterUnits="userSpaceOnUse"><feFlood flood-opacity="0" result="BackgroundImageFix"/><feColorMatrix in="SourceAlpha" result="hardAlpha" values="0 0 0 0 0 0 0 0 0 0 0 0 0 0 0 0 0 0 127 0"/><feOffset dx="2" dy="2"/><feGaussianBlur stdDeviation="3"/><feColorMatrix values="0 0 0 0 0 0 0 0 0 0 0 0 0 0 0 0 0 0 0.27 0"/><feBlend in2="BackgroundImageFix" result="effect1_dropShadow_17_124"/><feBlend in="SourceGraphic" in2="effect1_dropShadow_17_124" result="shape"/></filter><filter id="M" width="79.399" height="76.739" x="63.031" y="222.251" color-interpolation-filters="sRGB" filterUnits="userSpaceOnUse"><feFlood flood-opacity="0" result="BackgroundImageFix"/><feColorMatrix in="SourceAlpha" result="hardAlpha" values="0 0 0 0 0 0 0 0 0 0 0 0 0 0 0 0 0 0 127 0"/><feOffset dx="1" dy="1"/><feGaussianBlur stdDeviation="9"/><feColorMatrix values="0 0 0 0 0 0 0 0 0 0 0 0 0 0 0 0 0 0 0.65 0"/><feBlend in2="BackgroundImageFix" result="effect1_dropShadow_17_124"/><feBlend in="SourceGraphic" in2="effect1_dropShadow_17_124" result="shape"/></filter><filter id="N" width="73.7" height="73.7" x="575.35" y="304.15" color-interpolation-filters="sRGB" filterUnits="userSpaceOnUse"><feFlood flood-opacity="0" result="BackgroundImageFix"/><feColorMatrix in="SourceAlpha" result="hardAlpha" values="0 0 0 0 0 0 0 0 0 0 0 0 0 0 0 0 0 0 127 0"/><feOffset dy="4"/><feGaussianBlur stdDeviation="2"/><feComposite in2="hardAlpha" operator="out"/><feColorMatrix values="0 0 0 0 0 0 0 0 0 0 0 0 0 0 0 0 0 0 0.25 0"/><feBlend in2="BackgroundImageFix" result="effect1_dropShadow_17_124"/><feBlend in="SourceGraphic" in2="effect1_dropShadow_17_124" result="shape"/></filter><filter id="P" width="38.74" height="46.26" x="592.83" y="317.87" color-interpolation-filters="sRGB" filterUnits="userSpaceOnUse"><feFlood flood-opacity="0" result="BackgroundImageFix"/><feColorMatrix in="SourceAlpha" result="hardAlpha" values="0 0 0 0 0 0 0 0 0 0 0 0 0 0 0 0 0 0 127 0"/><feOffset dy="4"/><feGaussianBlur stdDeviation="2"/><feComposite in2="hardAlpha" operator="out"/><feColorMatrix values="0 0 0 0 0 0 0 0 0 0 0 0 0 0 0 0 0 0 0.25 0"/><feBlend in2="BackgroundImageFix" result="effect1_dropShadow_17_124"/><feBlend in="SourceGraphic" in2="effect1_dropShadow_17_124" result="shape"/></filter><filter id="Q" width="77.7" height="77.7" x="516.21" y="351.49" color-interpolation-filters="sRGB" filterUnits="userSpaceOnUse"><feFlood flood-opacity="0" result="BackgroundImageFix"/><feColorMatrix in="SourceAlpha" result="hardAlpha" values="0 0 0 0 0 0 0 0 0 0 0 0 0 0 0 0 0 0 127 0"/><feOffset dx="2" dy="2"/><feGaussianBlur stdDeviation="3"/><feColorMatrix values="0 0 0 0 0 0 0 0 0 0 0 0 0 0 0 0 0 0 0.27 0"/><feBlend in2="BackgroundImageFix" result="effect1_dropShadow_17_124"/><feBlend in="SourceGraphic" in2="effect1_dropShadow_17_124" result="shape"/></filter><filter id="R" width="77.7" height="77.7" x="516.21" y="351.49" color-interpolation-filters="sRGB" filterUnits="userSpaceOnUse"><feFlood flood-opacity="0" result="BackgroundImageFix"/><feColorMatrix in="SourceAlpha" result="hardAlpha" values="0 0 0 0 0 0 0 0 0 0 0 0 0 0 0 0 0 0 127 0"/><feOffset dx="2" dy="2"/><feGaussianBlur stdDeviation="3"/><feColorMatrix values="0 0 0 0 0 0 0 0 0 0 0 0 0 0 0 0 0 0 0.27 0"/><feBlend in2="BackgroundImageFix" result="effect1_dropShadow_17_124"/><feBlend in="SourceGraphic" in2="effect1_dropShadow_17_124" result="shape"/></filter><filter id="T" width="78.45" height="73.9" x="57.65" y="335.77" color-interpolation-filters="sRGB" filterUnits="userSpaceOnUse"><feFlood flood-opacity="0" result="BackgroundImageFix"/><feColorMatrix in="SourceAlpha" result="hardAlpha" values="0 0 0 0 0 0 0 0 0 0 0 0 0 0 0 0 0 0 127 0"/><feOffset dx="2" dy="2"/><feGaussianBlur stdDeviation="3"/><feColorMatrix values="0 0 0 0 0 0 0 0 0 0 0 0 0 0 0 0 0 0 0.27 0"/><feBlend in2="BackgroundImageFix" result="effect1_dropShadow_17_124"/><feBlend in="SourceGraphic" in2="effect1_dropShadow_17_124" result="shape"/></filter><filter id="V" width="113.69" height="108.36" x="587.68" y="160.76" color-interpolation-filters="sRGB" filterUnits="userSpaceOnUse"><feFlood flood-opacity="0" result="BackgroundImageFix"/><feColorMatrix in="SourceAlpha" result="hardAlpha" values="0 0 0 0 0 0 0 0 0 0 0 0 0 0 0 0 0 0 127 0"/><feOffset dx="2" dy="2"/><feGaussianBlur stdDeviation="3"/><feColorMatrix values="0 0 0 0 0 0 0 0 0 0 0 0 0 0 0 0 0 0 0.27 0"/><feBlend in2="BackgroundImageFix" result="effect1_dropShadow_17_124"/><feBlend in="SourceGraphic" in2="effect1_dropShadow_17_124" result="shape"/></filter><filter id="Y" width="91.55" height="52.16" x="161.63" y="372.46" color-interpolation-filters="sRGB" filterUnits="userSpaceOnUse"><feFlood flood-opacity="0" result="BackgroundImageFix"/><feColorMatrix in="SourceAlpha" result="hardAlpha" values="0 0 0 0 0 0 0 0 0 0 0 0 0 0 0 0 0 0 127 0"/><feOffset dx="2" dy="2"/><feGaussianBlur stdDeviation="3"/><feColorMatrix values="0 0 0 0 0 0 0 0 0 0 0 0 0 0 0 0 0 0 0.27 0"/><feBlend in2="BackgroundImageFix" result="effect1_dropShadow_17_124"/><feBlend in="SourceGraphic" in2="effect1_dropShadow_17_124" result="shape"/></filter><filter id="Z" width="91.55" height="52.16" x="161.63" y="372.46" color-interpolation-filters="sRGB" filterUnits="userSpaceOnUse"><feFlood flood-opacity="0" result="BackgroundImageFix"/><feColorMatrix in="SourceAlpha" result="hardAlpha" values="0 0 0 0 0 0 0 0 0 0 0 0 0 0 0 0 0 0 127 0"/><feOffset dx="2" dy="2"/><feGaussianBlur stdDeviation="3"/><feColorMatrix values="0 0 0 0 0 0 0 0 0 0 0 0 0 0 0 0 0 0 0.27 0"/><feBlend in2="BackgroundImageFix" result="effect1_dropShadow_17_124"/><feBlend in="SourceGraphic" in2="effect1_dropShadow_17_124" result="shape"/></filter><filter id="ab" width="121.12" height="113.65" x="118.32" y="254.07" color-interpolation-filters="sRGB" filterUnits="userSpaceOnUse"><feFlood flood-opacity="0" result="BackgroundImageFix"/><feColorMatrix in="SourceAlpha" result="hardAlpha" values="0 0 0 0 0 0 0 0 0 0 0 0 0 0 0 0 0 0 127 0"/><feOffset dx="2" dy="2"/><feGaussianBlur stdDeviation="3"/><feColorMatrix values="0 0 0 0 0 0 0 0 0 0 0 0 0 0 0 0 0 0 0.27 0"/><feBlend in2="BackgroundImageFix" result="effect1_dropShadow_17_124"/><feBlend in="SourceGraphic" in2="effect1_dropShadow_17_124" result="shape"/></filter><filter id="ac" width="78.29" height="78.28" x="139.74" y="264.23" color-interpolation-filters="sRGB" filterUnits="userSpaceOnUse"><feFlood flood-opacity="0" result="BackgroundImageFix"/><feColorMatrix in="SourceAlpha" result="hardAlpha" values="0 0 0 0 0 0 0 0 0 0 0 0 0 0 0 0 0 0 127 0"/><feOffset dx="2" dy="2"/><feGaussianBlur stdDeviation="3"/><feColorMatrix values="0 0 0 0 0 0 0 0 0 0 0 0 0 0 0 0 0 0 0.27 0"/><feBlend in2="BackgroundImageFix" result="effect1_dropShadow_17_124"/><feBlend in="SourceGraphic" in2="effect1_dropShadow_17_124" result="shape"/></filter></defs></svg>