<svg width="390" height="844" viewBox="0 0 390 844" fill="none" xmlns="http://www.w3.org/2000/svg">
<g clip-path="url(#clip0_45_1242)">
<rect width="390" height="844" rx="30" fill="#EEEEF3"/>
<g filter="url(#filter0_b_45_1242)">
<path d="M120.942 65.16H125.454C127.118 65.16 128.51 65.368 129.63 65.784C130.094 65.96 130.534 66.184 130.95 66.456C131.366 66.712 131.758 67.024 132.126 67.392C133.006 68.272 133.678 69.328 134.142 70.56C134.606 71.792 134.838 73.08 134.838 74.424C134.838 77.416 133.982 79.768 132.27 81.48C130.542 83.16 128.174 84 125.166 84H120.942V65.16ZM124.71 66.816H122.838V82.344H125.934C127.742 82.344 129.27 81.72 130.518 80.472C131.974 79.016 132.702 76.992 132.702 74.4C132.702 73.888 132.67 73.408 132.606 72.96C132.558 72.512 132.478 72.08 132.366 71.664C132.014 70.448 131.39 69.408 130.494 68.544C129.838 67.92 129.078 67.472 128.214 67.2C127.382 66.944 126.214 66.816 124.71 66.816ZM148.387 77.064H138.619C138.619 78.904 139.043 80.312 139.891 81.288C140.755 82.248 141.883 82.728 143.275 82.728C144.331 82.728 145.347 82.392 146.323 81.72C146.595 81.544 146.883 81.328 147.187 81.072C147.491 80.8 147.819 80.488 148.171 80.136V82.224C147.787 82.512 147.427 82.768 147.091 82.992C146.771 83.2 146.467 83.376 146.179 83.52C145.171 84.048 144.163 84.312 143.155 84.312C141.411 84.312 139.931 83.712 138.715 82.512C137.403 81.248 136.747 79.608 136.747 77.592C136.747 75.688 137.339 74.096 138.523 72.816C139.723 71.52 141.203 70.872 142.963 70.872C144.675 70.872 146.035 71.496 147.043 72.744C147.939 73.88 148.387 75.32 148.387 77.064ZM138.859 75.6H146.371C146.179 74.512 145.763 73.704 145.123 73.176C144.499 72.632 143.739 72.36 142.843 72.36C141.851 72.36 141.011 72.672 140.323 73.296C139.683 73.872 139.195 74.64 138.859 75.6ZM149.607 71.16H151.551L155.631 82.176L159.807 71.16H161.535L156.399 84H154.743L149.607 71.16ZM163.167 71.16H164.895V84H163.167V71.16ZM164.007 65.736C164.343 65.736 164.623 65.848 164.847 66.072C165.071 66.296 165.183 66.616 165.183 67.032C165.183 67.448 165.079 67.768 164.871 67.992C164.663 68.216 164.375 68.328 164.007 68.328C163.639 68.328 163.351 68.2 163.143 67.944C162.951 67.688 162.855 67.392 162.855 67.056C162.855 66.528 162.975 66.176 163.215 66C163.455 65.824 163.719 65.736 164.007 65.736ZM177.595 72.288V74.544C176.699 73.696 175.779 73.088 174.835 72.72C174.563 72.608 174.283 72.536 173.995 72.504C173.707 72.456 173.419 72.432 173.131 72.432C171.803 72.432 170.715 72.928 169.867 73.92C169.019 74.944 168.595 76.16 168.595 77.568C168.595 79.008 169.035 80.24 169.915 81.264C170.795 82.24 171.899 82.728 173.227 82.728C174.059 82.728 174.819 82.552 175.507 82.2C176.195 81.832 176.891 81.288 177.595 80.568V82.848C176.747 83.376 175.979 83.752 175.291 83.976C174.603 84.2 173.907 84.312 173.203 84.312C171.411 84.312 169.875 83.672 168.595 82.392C167.347 81.064 166.723 79.464 166.723 77.592C166.723 75.752 167.339 74.168 168.571 72.84C169.819 71.528 171.371 70.872 173.227 70.872C174.171 70.872 175.051 71.032 175.867 71.352C176.347 71.528 176.923 71.84 177.595 72.288ZM190.833 77.064H181.065C181.065 78.904 181.489 80.312 182.337 81.288C183.201 82.248 184.329 82.728 185.721 82.728C186.777 82.728 187.793 82.392 188.769 81.72C189.041 81.544 189.329 81.328 189.633 81.072C189.937 80.8 190.265 80.488 190.617 80.136V82.224C190.233 82.512 189.873 82.768 189.537 82.992C189.217 83.2 188.913 83.376 188.625 83.52C187.617 84.048 186.609 84.312 185.601 84.312C183.857 84.312 182.377 83.712 181.161 82.512C179.849 81.248 179.193 79.608 179.193 77.592C179.193 75.688 179.785 74.096 180.969 72.816C182.169 71.52 183.649 70.872 185.409 70.872C187.121 70.872 188.481 71.496 189.489 72.744C190.385 73.88 190.833 75.32 190.833 77.064ZM181.305 75.6H188.817C188.625 74.512 188.209 73.704 187.569 73.176C186.945 72.632 186.185 72.36 185.289 72.36C184.297 72.36 183.457 72.672 182.769 73.296C182.129 73.872 181.641 74.64 181.305 75.6ZM200.172 82.896V80.808C201.164 81.608 202.172 82.168 203.196 82.488C203.5 82.568 203.796 82.632 204.084 82.68C204.372 82.712 204.668 82.728 204.972 82.728C205.948 82.728 206.756 82.504 207.396 82.056C208.052 81.576 208.38 81.04 208.38 80.448C208.38 80.128 208.26 79.8 208.02 79.464C207.684 79.048 206.788 78.672 205.332 78.336C203.604 77.904 202.452 77.544 201.876 77.256C200.756 76.616 200.196 75.72 200.196 74.568C200.196 73.496 200.66 72.616 201.588 71.928C202.532 71.224 203.708 70.872 205.116 70.872C205.756 70.872 206.332 70.928 206.844 71.04C207.356 71.152 207.836 71.304 208.284 71.496C208.732 71.672 209.148 71.896 209.532 72.168V74.256C208.86 73.696 208.156 73.256 207.42 72.936C206.684 72.6 205.908 72.432 205.092 72.432C204.276 72.432 203.572 72.616 202.98 72.984C202.372 73.352 202.068 73.832 202.068 74.424C202.068 75.208 202.788 75.832 204.228 76.296C204.9 76.488 205.564 76.68 206.22 76.872C206.876 77.064 207.54 77.256 208.212 77.448C209.668 78.072 210.396 79.016 210.396 80.28C210.396 81.352 209.892 82.296 208.884 83.112C207.86 83.912 206.588 84.312 205.068 84.312C204.396 84.312 203.74 84.24 203.1 84.096C202.076 83.872 201.1 83.472 200.172 82.896ZM223.598 77.064H213.83C213.83 78.904 214.254 80.312 215.102 81.288C215.966 82.248 217.094 82.728 218.486 82.728C219.542 82.728 220.558 82.392 221.534 81.72C221.806 81.544 222.094 81.328 222.398 81.072C222.702 80.8 223.03 80.488 223.382 80.136V82.224C222.998 82.512 222.638 82.768 222.302 82.992C221.982 83.2 221.678 83.376 221.39 83.52C220.382 84.048 219.374 84.312 218.366 84.312C216.622 84.312 215.142 83.712 213.926 82.512C212.614 81.248 211.958 79.608 211.958 77.592C211.958 75.688 212.55 74.096 213.734 72.816C214.934 71.52 216.414 70.872 218.174 70.872C219.886 70.872 221.246 71.496 222.254 72.744C223.15 73.88 223.598 75.32 223.598 77.064ZM214.07 75.6H221.582C221.39 74.512 220.974 73.704 220.334 73.176C219.71 72.632 218.95 72.36 218.054 72.36C217.062 72.36 216.222 72.672 215.534 73.296C214.894 73.872 214.406 74.64 214.07 75.6ZM235.474 75.696V81.744C235.474 82.016 235.53 82.256 235.642 82.464C235.77 82.656 235.994 82.752 236.314 82.752C236.41 82.752 236.49 82.752 236.554 82.752C236.618 82.736 236.682 82.72 236.746 82.704C236.842 82.672 236.922 82.64 236.986 82.608C237.066 82.576 237.13 82.552 237.178 82.536V83.88C236.89 83.976 236.602 84.04 236.314 84.072C236.026 84.12 235.802 84.144 235.642 84.144C234.826 84.144 234.29 83.928 234.034 83.496C233.826 83.224 233.722 82.64 233.722 81.744C233.514 82.096 233.306 82.408 233.098 82.68C232.89 82.936 232.682 83.152 232.474 83.328C231.642 83.984 230.674 84.312 229.57 84.312C228.402 84.312 227.386 83.968 226.522 83.28C225.626 82.544 225.178 81.608 225.178 80.472C225.178 79.048 225.898 78 227.338 77.328C227.866 77.072 228.562 76.848 229.426 76.656C230.306 76.464 231.354 76.288 232.57 76.128L233.722 76.008C233.722 74.888 233.434 74.016 232.858 73.392C232.298 72.752 231.466 72.432 230.362 72.432C229.946 72.432 229.53 72.488 229.114 72.6C228.714 72.696 228.306 72.856 227.89 73.08C227.666 73.208 227.418 73.36 227.146 73.536C226.874 73.712 226.578 73.936 226.258 74.208V72.24C227.618 71.328 229.082 70.872 230.65 70.872C232.25 70.872 233.482 71.376 234.346 72.384C235.098 73.264 235.474 74.368 235.474 75.696ZM233.722 78.216V77.448L232.906 77.544C230.906 77.752 229.498 78.032 228.682 78.384C227.594 78.816 227.05 79.52 227.05 80.496C227.05 80.784 227.114 81.064 227.242 81.336C227.37 81.592 227.546 81.824 227.77 82.032C227.994 82.24 228.266 82.408 228.586 82.536C228.922 82.664 229.29 82.728 229.69 82.728C230.778 82.728 231.73 82.288 232.546 81.408C233.33 80.512 233.722 79.448 233.722 78.216ZM245.948 71.16V72.888C245.772 72.824 245.628 72.776 245.516 72.744C245.404 72.696 245.308 72.664 245.228 72.648C245.148 72.632 245.06 72.624 244.964 72.624C244.884 72.608 244.772 72.6 244.628 72.6C243.46 72.6 242.5 73.168 241.748 74.304C241.108 75.344 240.788 76.504 240.788 77.784V84H239.06V71.16H240.644L240.764 73.368C241.164 72.696 241.54 72.216 241.892 71.928C242.612 71.336 243.476 71.04 244.484 71.04C244.756 71.04 245.004 71.048 245.228 71.064C245.468 71.08 245.708 71.112 245.948 71.16ZM257.986 72.288V74.544C257.09 73.696 256.17 73.088 255.226 72.72C254.954 72.608 254.674 72.536 254.386 72.504C254.098 72.456 253.81 72.432 253.522 72.432C252.194 72.432 251.106 72.928 250.258 73.92C249.41 74.944 248.986 76.16 248.986 77.568C248.986 79.008 249.426 80.24 250.306 81.264C251.186 82.24 252.29 82.728 253.618 82.728C254.45 82.728 255.21 82.552 255.898 82.2C256.586 81.832 257.282 81.288 257.986 80.568V82.848C257.138 83.376 256.37 83.752 255.682 83.976C254.994 84.2 254.298 84.312 253.594 84.312C251.802 84.312 250.266 83.672 248.986 82.392C247.738 81.064 247.114 79.464 247.114 77.592C247.114 75.752 247.73 74.168 248.962 72.84C250.21 71.528 251.762 70.872 253.618 70.872C254.562 70.872 255.442 71.032 256.258 71.352C256.738 71.528 257.314 71.84 257.986 72.288ZM259.943 65.184H261.671V73.464C262.071 72.824 262.559 72.288 263.135 71.856C264.015 71.2 264.999 70.872 266.087 70.872C266.759 70.872 267.359 70.968 267.887 71.16C268.431 71.352 268.927 71.632 269.375 72C270.319 72.832 270.791 74 270.791 75.504V84H269.039V75.744C269.039 74.816 268.743 74.032 268.151 73.392C267.559 72.752 266.839 72.432 265.991 72.432C264.759 72.432 263.735 72.92 262.919 73.896C262.087 74.904 261.671 76.056 261.671 77.352V84H259.943V65.184Z" fill="#101011"/>
<path d="M354 69V74H354.582M369.938 76C369.446 72.0537 366.08 69 362 69C358.643 69 355.768 71.0682 354.582 74M354.582 74H359M370 85V80H369.418M369.418 80C368.232 82.9318 365.357 85 362 85C357.92 85 354.554 81.9463 354.062 78M369.418 80H365" stroke="#21272A" stroke-width="1.5" stroke-linecap="round" stroke-linejoin="round"/>
</g>
<g filter="url(#filter1_d_45_1242)">
<path d="M16 763.5C16 752.802 16 747.454 17.2662 743.087C20.3205 732.555 28.5552 724.32 39.0874 721.266C43.4537 720 48.8025 720 59.5 720H330.5C341.198 720 346.546 720 350.913 721.266C361.445 724.32 369.68 732.555 372.734 743.087C374 747.454 374 752.802 374 763.5C374 774.198 374 779.546 372.734 783.913C369.68 794.445 361.445 802.68 350.913 805.734C346.546 807 341.198 807 330.5 807H59.5C48.8025 807 43.4537 807 39.0874 805.734C28.5552 802.68 20.3205 794.445 17.2662 783.913C16 779.546 16 774.198 16 763.5Z" fill="white" shape-rendering="crispEdges"/>
<path d="M76 743.444C76 742.094 77.0233 741 78.2857 741H89.7143C90.9767 741 92 742.094 92 743.444V761.331C92 762.087 91.1946 762.569 90.5285 762.213L84.9431 759.227C84.3538 758.911 83.6462 758.911 83.0569 759.227L77.4715 762.213C76.8054 762.569 76 762.087 76 761.331V743.444Z" stroke="#21272A" stroke-width="1.5" stroke-linecap="round" stroke-linejoin="round"/>
<path d="M56.1076 773.71V774.72C55.9342 774.573 55.7576 774.443 55.5776 774.33C55.4042 774.217 55.2309 774.123 55.0576 774.05C54.6576 773.863 54.2509 773.77 53.8376 773.77C53.3176 773.77 52.8876 773.9 52.5476 774.16C52.2009 774.427 52.0276 774.743 52.0276 775.11C52.0276 775.643 52.4209 776.043 53.2076 776.31C53.5742 776.437 53.9376 776.56 54.2976 776.68C54.6642 776.793 55.0342 776.91 55.4076 777.03C56.2009 777.41 56.5976 777.977 56.5976 778.73C56.5976 779.463 56.3142 780.053 55.7476 780.5C55.2076 780.92 54.5376 781.13 53.7376 781.13C53.2042 781.13 52.6909 781.027 52.1976 780.82C51.9109 780.707 51.5709 780.52 51.1776 780.26V779.24C51.6909 779.7 52.2109 780.023 52.7376 780.21C52.9109 780.277 53.0809 780.323 53.2476 780.35C53.4142 780.377 53.5809 780.39 53.7476 780.39C54.2809 780.39 54.7309 780.257 55.0976 779.99C55.5042 779.697 55.7076 779.313 55.7076 778.84C55.7076 778.267 55.3209 777.83 54.5476 777.53C54.1742 777.417 53.8076 777.3 53.4476 777.18C53.0876 777.06 52.7276 776.943 52.3676 776.83C51.5876 776.47 51.1976 775.917 51.1976 775.17C51.1976 774.543 51.4442 774.033 51.9376 773.64C52.4442 773.233 53.0776 773.03 53.8376 773.03C54.3042 773.03 54.7709 773.117 55.2376 773.29C55.4776 773.37 55.7676 773.51 56.1076 773.71ZM61.6959 777.54V780.06C61.6959 780.173 61.7193 780.273 61.7659 780.36C61.8193 780.44 61.9126 780.48 62.0459 780.48C62.0859 780.48 62.1193 780.48 62.1459 780.48C62.1726 780.473 62.1993 780.467 62.2259 780.46C62.2659 780.447 62.2993 780.433 62.3259 780.42C62.3593 780.407 62.3859 780.397 62.4059 780.39V780.95C62.2859 780.99 62.1659 781.017 62.0459 781.03C61.9259 781.05 61.8326 781.06 61.7659 781.06C61.4259 781.06 61.2026 780.97 61.0959 780.79C61.0093 780.677 60.9659 780.433 60.9659 780.06C60.8793 780.207 60.7926 780.337 60.7059 780.45C60.6193 780.557 60.5326 780.647 60.4459 780.72C60.0993 780.993 59.6959 781.13 59.2359 781.13C58.7493 781.13 58.3259 780.987 57.9659 780.7C57.5926 780.393 57.4059 780.003 57.4059 779.53C57.4059 778.937 57.7059 778.5 58.3059 778.22C58.5259 778.113 58.8159 778.02 59.1759 777.94C59.5426 777.86 59.9793 777.787 60.4859 777.72L60.9659 777.67C60.9659 777.203 60.8459 776.84 60.6059 776.58C60.3726 776.313 60.0259 776.18 59.5659 776.18C59.3926 776.18 59.2193 776.203 59.0459 776.25C58.8793 776.29 58.7093 776.357 58.5359 776.45C58.4426 776.503 58.3393 776.567 58.2259 776.64C58.1126 776.713 57.9893 776.807 57.8559 776.92V776.1C58.4226 775.72 59.0326 775.53 59.6859 775.53C60.3526 775.53 60.8659 775.74 61.2259 776.16C61.5393 776.527 61.6959 776.987 61.6959 777.54ZM60.9659 778.59V778.27L60.6259 778.31C59.7926 778.397 59.2059 778.513 58.8659 778.66C58.4126 778.84 58.1859 779.133 58.1859 779.54C58.1859 779.66 58.2126 779.777 58.2659 779.89C58.3193 779.997 58.3926 780.093 58.4859 780.18C58.5793 780.267 58.6926 780.337 58.8259 780.39C58.9659 780.443 59.1193 780.47 59.2859 780.47C59.7393 780.47 60.1359 780.287 60.4759 779.92C60.8026 779.547 60.9659 779.103 60.9659 778.59ZM62.9102 775.65H63.7202L65.4202 780.24L67.1602 775.65H67.8802L65.7402 781H65.0502L62.9102 775.65ZM73.3102 778.11H69.2402C69.2402 778.877 69.4168 779.463 69.7702 779.87C70.1302 780.27 70.6002 780.47 71.1802 780.47C71.6202 780.47 72.0435 780.33 72.4502 780.05C72.5635 779.977 72.6835 779.887 72.8102 779.78C72.9368 779.667 73.0735 779.537 73.2202 779.39V780.26C73.0602 780.38 72.9102 780.487 72.7702 780.58C72.6368 780.667 72.5102 780.74 72.3902 780.8C71.9702 781.02 71.5502 781.13 71.1302 781.13C70.4035 781.13 69.7868 780.88 69.2802 780.38C68.7335 779.853 68.4602 779.17 68.4602 778.33C68.4602 777.537 68.7068 776.873 69.2002 776.34C69.7002 775.8 70.3168 775.53 71.0502 775.53C71.7635 775.53 72.3302 775.79 72.7502 776.31C73.1235 776.783 73.3102 777.383 73.3102 778.11ZM69.3402 777.5H72.4702C72.3902 777.047 72.2168 776.71 71.9502 776.49C71.6902 776.263 71.3735 776.15 71.0002 776.15C70.5868 776.15 70.2368 776.28 69.9502 776.54C69.6835 776.78 69.4802 777.1 69.3402 777.5ZM77.8384 773.16H78.6084V781H77.9184L77.8484 780.13C77.7551 780.263 77.6618 780.383 77.5684 780.49C77.4751 780.59 77.3818 780.677 77.2884 780.75C76.9551 781.003 76.5684 781.13 76.1284 781.13C75.4418 781.13 74.8718 780.863 74.4184 780.33C73.9718 779.797 73.7484 779.15 73.7484 778.39C73.7484 777.603 73.9851 776.933 74.4584 776.38C74.9384 775.813 75.5384 775.53 76.2584 775.53C76.5584 775.53 76.8384 775.583 77.0984 775.69C77.1918 775.73 77.2984 775.783 77.4184 775.85C77.5451 775.917 77.6851 775.997 77.8384 776.09V773.16ZM77.8384 778.41V776.87C77.5251 776.597 77.2518 776.413 77.0184 776.32C76.7851 776.227 76.5584 776.18 76.3384 776.18C75.7918 776.18 75.3484 776.41 75.0084 776.87C74.6884 777.303 74.5284 777.807 74.5284 778.38C74.5284 778.993 74.7051 779.503 75.0584 779.91C75.3851 780.283 75.7718 780.47 76.2184 780.47C76.6584 780.47 77.0384 780.277 77.3584 779.89C77.6784 779.503 77.8384 779.01 77.8384 778.41ZM82.812 773.15H84.692C85.3853 773.15 85.9653 773.237 86.432 773.41C86.6253 773.483 86.8086 773.577 86.982 773.69C87.1553 773.797 87.3186 773.927 87.472 774.08C87.8386 774.447 88.1186 774.887 88.312 775.4C88.5053 775.913 88.602 776.45 88.602 777.01C88.602 778.257 88.2453 779.237 87.532 779.95C86.812 780.65 85.8253 781 84.572 781H82.812V773.15ZM84.382 773.84H83.602V780.31H84.892C85.6453 780.31 86.282 780.05 86.802 779.53C87.4086 778.923 87.712 778.08 87.712 777C87.712 776.787 87.6986 776.587 87.672 776.4C87.652 776.213 87.6186 776.033 87.572 775.86C87.4253 775.353 87.1653 774.92 86.792 774.56C86.5186 774.3 86.202 774.113 85.842 774C85.4953 773.893 85.0086 773.84 84.382 773.84ZM94.2477 778.11H90.1777C90.1777 778.877 90.3543 779.463 90.7077 779.87C91.0677 780.27 91.5377 780.47 92.1177 780.47C92.5577 780.47 92.981 780.33 93.3877 780.05C93.501 779.977 93.621 779.887 93.7477 779.78C93.8743 779.667 94.011 779.537 94.1577 779.39V780.26C93.9977 780.38 93.8477 780.487 93.7077 780.58C93.5743 780.667 93.4477 780.74 93.3277 780.8C92.9077 781.02 92.4877 781.13 92.0677 781.13C91.341 781.13 90.7243 780.88 90.2177 780.38C89.671 779.853 89.3977 779.17 89.3977 778.33C89.3977 777.537 89.6443 776.873 90.1377 776.34C90.6377 775.8 91.2543 775.53 91.9877 775.53C92.701 775.53 93.2677 775.79 93.6877 776.31C94.061 776.783 94.2477 777.383 94.2477 778.11ZM90.2777 777.5H93.4077C93.3277 777.047 93.1543 776.71 92.8877 776.49C92.6277 776.263 92.311 776.15 91.9377 776.15C91.5243 776.15 91.1743 776.28 90.8877 776.54C90.621 776.78 90.4177 777.1 90.2777 777.5ZM94.7559 775.65H95.5659L97.2659 780.24L99.0059 775.65H99.7259L97.5859 781H96.8959L94.7559 775.65ZM100.406 775.65H101.126V781H100.406V775.65ZM100.756 773.39C100.896 773.39 101.013 773.437 101.106 773.53C101.199 773.623 101.246 773.757 101.246 773.93C101.246 774.103 101.203 774.237 101.116 774.33C101.029 774.423 100.909 774.47 100.756 774.47C100.603 774.47 100.483 774.417 100.396 774.31C100.316 774.203 100.276 774.08 100.276 773.94C100.276 773.72 100.326 773.573 100.426 773.5C100.526 773.427 100.636 773.39 100.756 773.39ZM106.418 776.12V777.06C106.044 776.707 105.661 776.453 105.268 776.3C105.154 776.253 105.038 776.223 104.918 776.21C104.798 776.19 104.678 776.18 104.558 776.18C104.004 776.18 103.551 776.387 103.198 776.8C102.844 777.227 102.668 777.733 102.668 778.32C102.668 778.92 102.851 779.433 103.218 779.86C103.584 780.267 104.044 780.47 104.598 780.47C104.944 780.47 105.261 780.397 105.548 780.25C105.834 780.097 106.124 779.87 106.418 779.57V780.52C106.064 780.74 105.744 780.897 105.458 780.99C105.171 781.083 104.881 781.13 104.588 781.13C103.841 781.13 103.201 780.863 102.668 780.33C102.148 779.777 101.888 779.11 101.888 778.33C101.888 777.563 102.144 776.903 102.658 776.35C103.178 775.803 103.824 775.53 104.598 775.53C104.991 775.53 105.358 775.597 105.698 775.73C105.898 775.803 106.138 775.933 106.418 776.12ZM111.933 778.11H107.863C107.863 778.877 108.04 779.463 108.393 779.87C108.753 780.27 109.223 780.47 109.803 780.47C110.243 780.47 110.667 780.33 111.073 780.05C111.187 779.977 111.307 779.887 111.433 779.78C111.56 779.667 111.697 779.537 111.843 779.39V780.26C111.683 780.38 111.533 780.487 111.393 780.58C111.26 780.667 111.133 780.74 111.013 780.8C110.593 781.02 110.173 781.13 109.753 781.13C109.027 781.13 108.41 780.88 107.903 780.38C107.357 779.853 107.083 779.17 107.083 778.33C107.083 777.537 107.33 776.873 107.823 776.34C108.323 775.8 108.94 775.53 109.673 775.53C110.387 775.53 110.953 775.79 111.373 776.31C111.747 776.783 111.933 777.383 111.933 778.11ZM107.963 777.5H111.093C111.013 777.047 110.84 776.71 110.573 776.49C110.313 776.263 109.997 776.15 109.623 776.15C109.21 776.15 108.86 776.28 108.573 776.54C108.307 776.78 108.103 777.1 107.963 777.5ZM112.621 780.54V779.67C113.035 780.003 113.455 780.237 113.881 780.37C114.008 780.403 114.131 780.43 114.251 780.45C114.371 780.463 114.495 780.47 114.621 780.47C115.028 780.47 115.365 780.377 115.631 780.19C115.905 779.99 116.041 779.767 116.041 779.52C116.041 779.387 115.991 779.25 115.891 779.11C115.751 778.937 115.378 778.78 114.771 778.64C114.051 778.46 113.571 778.31 113.331 778.19C112.865 777.923 112.631 777.55 112.631 777.07C112.631 776.623 112.825 776.257 113.211 775.97C113.605 775.677 114.095 775.53 114.681 775.53C114.948 775.53 115.188 775.553 115.401 775.6C115.615 775.647 115.815 775.71 116.001 775.79C116.188 775.863 116.361 775.957 116.521 776.07V776.94C116.241 776.707 115.948 776.523 115.641 776.39C115.335 776.25 115.011 776.18 114.671 776.18C114.331 776.18 114.038 776.257 113.791 776.41C113.538 776.563 113.411 776.763 113.411 777.01C113.411 777.337 113.711 777.597 114.311 777.79C114.591 777.87 114.868 777.95 115.141 778.03C115.415 778.11 115.691 778.19 115.971 778.27C116.578 778.53 116.881 778.923 116.881 779.45C116.881 779.897 116.671 780.29 116.251 780.63C115.825 780.963 115.295 781.13 114.661 781.13C114.381 781.13 114.108 781.1 113.841 781.04C113.415 780.947 113.008 780.78 112.621 780.54Z" fill="#101011"/>
<path d="M194.5 760.75C189.12 760.75 184.75 756.38 184.75 751C184.75 745.62 189.12 741.25 194.5 741.25C199.88 741.25 204.25 745.62 204.25 751C204.25 756.38 199.88 760.75 194.5 760.75ZM194.5 742.75C189.95 742.75 186.25 746.45 186.25 751C186.25 755.55 189.95 759.25 194.5 759.25C199.05 759.25 202.75 755.55 202.75 751C202.75 746.45 199.05 742.75 194.5 742.75Z" fill="#3F77FF"/>
<path d="M203.66 762.79C203.58 762.79 203.5 762.78 203.43 762.77C202.96 762.71 202.11 762.39 201.63 760.96C201.38 760.21 201.47 759.46 201.88 758.89C202.29 758.32 202.98 758 203.77 758C204.79 758 205.59 758.39 205.95 759.08C206.31 759.77 206.21 760.65 205.64 761.5C204.93 762.57 204.16 762.79 203.66 762.79ZM203.06 760.49C203.23 761.01 203.47 761.27 203.63 761.29C203.79 761.31 204.09 761.12 204.4 760.67C204.69 760.24 204.71 759.93 204.64 759.79C204.57 759.65 204.29 759.5 203.77 759.5C203.46 759.5 203.23 759.6 203.1 759.77C202.98 759.94 202.96 760.2 203.06 760.49Z" fill="#3F77FF"/>
<path d="M185.147 773.71V774.72C184.973 774.573 184.797 774.443 184.617 774.33C184.443 774.217 184.27 774.123 184.097 774.05C183.697 773.863 183.29 773.77 182.877 773.77C182.357 773.77 181.927 773.9 181.587 774.16C181.24 774.427 181.067 774.743 181.067 775.11C181.067 775.643 181.46 776.043 182.247 776.31C182.613 776.437 182.977 776.56 183.337 776.68C183.703 776.793 184.073 776.91 184.447 777.03C185.24 777.41 185.637 777.977 185.637 778.73C185.637 779.463 185.353 780.053 184.787 780.5C184.247 780.92 183.577 781.13 182.777 781.13C182.243 781.13 181.73 781.027 181.237 780.82C180.95 780.707 180.61 780.52 180.217 780.26V779.24C180.73 779.7 181.25 780.023 181.777 780.21C181.95 780.277 182.12 780.323 182.287 780.35C182.453 780.377 182.62 780.39 182.787 780.39C183.32 780.39 183.77 780.257 184.137 779.99C184.543 779.697 184.747 779.313 184.747 778.84C184.747 778.267 184.36 777.83 183.587 777.53C183.213 777.417 182.847 777.3 182.487 777.18C182.127 777.06 181.767 776.943 181.407 776.83C180.627 776.47 180.237 775.917 180.237 775.17C180.237 774.543 180.483 774.033 180.977 773.64C181.483 773.233 182.117 773.03 182.877 773.03C183.343 773.03 183.81 773.117 184.277 773.29C184.517 773.37 184.807 773.51 185.147 773.71ZM191.275 778.11H187.205C187.205 778.877 187.382 779.463 187.735 779.87C188.095 780.27 188.565 780.47 189.145 780.47C189.585 780.47 190.008 780.33 190.415 780.05C190.528 779.977 190.648 779.887 190.775 779.78C190.902 779.667 191.038 779.537 191.185 779.39V780.26C191.025 780.38 190.875 780.487 190.735 780.58C190.602 780.667 190.475 780.74 190.355 780.8C189.935 781.02 189.515 781.13 189.095 781.13C188.368 781.13 187.752 780.88 187.245 780.38C186.698 779.853 186.425 779.17 186.425 778.33C186.425 777.537 186.672 776.873 187.165 776.34C187.665 775.8 188.282 775.53 189.015 775.53C189.728 775.53 190.295 775.79 190.715 776.31C191.088 776.783 191.275 777.383 191.275 778.11ZM187.305 777.5H190.435C190.355 777.047 190.182 776.71 189.915 776.49C189.655 776.263 189.338 776.15 188.965 776.15C188.552 776.15 188.202 776.28 187.915 776.54C187.648 776.78 187.445 777.1 187.305 777.5ZM196.223 777.54V780.06C196.223 780.173 196.247 780.273 196.293 780.36C196.347 780.44 196.44 780.48 196.573 780.48C196.613 780.48 196.647 780.48 196.673 780.48C196.7 780.473 196.727 780.467 196.753 780.46C196.793 780.447 196.827 780.433 196.853 780.42C196.887 780.407 196.913 780.397 196.933 780.39V780.95C196.813 780.99 196.693 781.017 196.573 781.03C196.453 781.05 196.36 781.06 196.293 781.06C195.953 781.06 195.73 780.97 195.623 780.79C195.537 780.677 195.493 780.433 195.493 780.06C195.407 780.207 195.32 780.337 195.233 780.45C195.147 780.557 195.06 780.647 194.973 780.72C194.627 780.993 194.223 781.13 193.763 781.13C193.277 781.13 192.853 780.987 192.493 780.7C192.12 780.393 191.933 780.003 191.933 779.53C191.933 778.937 192.233 778.5 192.833 778.22C193.053 778.113 193.343 778.02 193.703 777.94C194.07 777.86 194.507 777.787 195.013 777.72L195.493 777.67C195.493 777.203 195.373 776.84 195.133 776.58C194.9 776.313 194.553 776.18 194.093 776.18C193.92 776.18 193.747 776.203 193.573 776.25C193.407 776.29 193.237 776.357 193.063 776.45C192.97 776.503 192.867 776.567 192.753 776.64C192.64 776.713 192.517 776.807 192.383 776.92V776.1C192.95 775.72 193.56 775.53 194.213 775.53C194.88 775.53 195.393 775.74 195.753 776.16C196.067 776.527 196.223 776.987 196.223 777.54ZM195.493 778.59V778.27L195.153 778.31C194.32 778.397 193.733 778.513 193.393 778.66C192.94 778.84 192.713 779.133 192.713 779.54C192.713 779.66 192.74 779.777 192.793 779.89C192.847 779.997 192.92 780.093 193.013 780.18C193.107 780.267 193.22 780.337 193.353 780.39C193.493 780.443 193.647 780.47 193.813 780.47C194.267 780.47 194.663 780.287 195.003 779.92C195.33 779.547 195.493 779.103 195.493 778.59ZM200.588 775.65V776.37C200.514 776.343 200.454 776.323 200.408 776.31C200.361 776.29 200.321 776.277 200.288 776.27C200.254 776.263 200.218 776.26 200.178 776.26C200.144 776.253 200.098 776.25 200.038 776.25C199.551 776.25 199.151 776.487 198.838 776.96C198.571 777.393 198.438 777.877 198.438 778.41V781H197.718V775.65H198.378L198.428 776.57C198.594 776.29 198.751 776.09 198.898 775.97C199.198 775.723 199.558 775.6 199.978 775.6C200.091 775.6 200.194 775.603 200.288 775.61C200.388 775.617 200.488 775.63 200.588 775.65ZM205.603 776.12V777.06C205.23 776.707 204.847 776.453 204.453 776.3C204.34 776.253 204.223 776.223 204.103 776.21C203.983 776.19 203.863 776.18 203.743 776.18C203.19 776.18 202.737 776.387 202.383 776.8C202.03 777.227 201.853 777.733 201.853 778.32C201.853 778.92 202.037 779.433 202.403 779.86C202.77 780.267 203.23 780.47 203.783 780.47C204.13 780.47 204.447 780.397 204.733 780.25C205.02 780.097 205.31 779.87 205.603 779.57V780.52C205.25 780.74 204.93 780.897 204.643 780.99C204.357 781.083 204.067 781.13 203.773 781.13C203.027 781.13 202.387 780.863 201.853 780.33C201.333 779.777 201.073 779.11 201.073 778.33C201.073 777.563 201.33 776.903 201.843 776.35C202.363 775.803 203.01 775.53 203.783 775.53C204.177 775.53 204.543 775.597 204.883 775.73C205.083 775.803 205.323 775.933 205.603 776.12ZM206.419 773.16H207.139V776.61C207.305 776.343 207.509 776.12 207.749 775.94C208.115 775.667 208.525 775.53 208.979 775.53C209.259 775.53 209.509 775.57 209.729 775.65C209.955 775.73 210.162 775.847 210.349 776C210.742 776.347 210.939 776.833 210.939 777.46V781H210.209V777.56C210.209 777.173 210.085 776.847 209.839 776.58C209.592 776.313 209.292 776.18 208.939 776.18C208.425 776.18 207.999 776.383 207.659 776.79C207.312 777.21 207.139 777.69 207.139 778.23V781H206.419V773.16Z" fill="#3F77FF"/>
<line x1="246.5" y1="739" x2="246.5" y2="784" stroke="black"/>
<line x1="145.5" y1="739" x2="145.5" y2="784" stroke="black"/>
<path d="M316 758.25H309C308.59 758.25 308.25 757.91 308.25 757.5C308.25 757.09 308.59 756.75 309 756.75H316C316.41 756.75 316.75 757.09 316.75 757.5C316.75 757.91 316.41 758.25 316 758.25Z" fill="#292D32"/>
<path d="M299 758.25H296C295.59 758.25 295.25 757.91 295.25 757.5C295.25 757.09 295.59 756.75 296 756.75H299C299.41 756.75 299.75 757.09 299.75 757.5C299.75 757.91 299.41 758.25 299 758.25Z" fill="#292D32"/>
<path d="M316 747.25H313C312.59 747.25 312.25 746.91 312.25 746.5C312.25 746.09 312.59 745.75 313 745.75H316C316.41 745.75 316.75 746.09 316.75 746.5C316.75 746.91 316.41 747.25 316 747.25Z" fill="#292D32"/>
<path d="M303 747.25H296C295.59 747.25 295.25 746.91 295.25 746.5C295.25 746.09 295.59 745.75 296 745.75H303C303.41 745.75 303.75 746.09 303.75 746.5C303.75 746.91 303.41 747.25 303 747.25Z" fill="#292D32"/>
<path d="M307 761.25H301C299.28 761.25 298.25 760.22 298.25 758.5V756.5C298.25 754.78 299.28 753.75 301 753.75H307C308.72 753.75 309.75 754.78 309.75 756.5V758.5C309.75 760.22 308.72 761.25 307 761.25ZM301 755.25C300.11 755.25 299.75 755.61 299.75 756.5V758.5C299.75 759.39 300.11 759.75 301 759.75H307C307.89 759.75 308.25 759.39 308.25 758.5V756.5C308.25 755.61 307.89 755.25 307 755.25H301Z" fill="#292D32"/>
<path d="M311 750.25H305C303.28 750.25 302.25 749.22 302.25 747.5V745.5C302.25 743.78 303.28 742.75 305 742.75H311C312.72 742.75 313.75 743.78 313.75 745.5V747.5C313.75 749.22 312.72 750.25 311 750.25ZM305 744.25C304.11 744.25 303.75 744.61 303.75 745.5V747.5C303.75 748.39 304.11 748.75 305 748.75H311C311.89 748.75 312.25 748.39 312.25 747.5V745.5C312.25 744.61 311.89 744.25 311 744.25H305Z" fill="#292D32"/>
<path d="M293.142 773.71V774.72C292.968 774.573 292.792 774.443 292.612 774.33C292.438 774.217 292.265 774.123 292.092 774.05C291.692 773.863 291.285 773.77 290.872 773.77C290.352 773.77 289.922 773.9 289.582 774.16C289.235 774.427 289.062 774.743 289.062 775.11C289.062 775.643 289.455 776.043 290.242 776.31C290.608 776.437 290.972 776.56 291.332 776.68C291.698 776.793 292.068 776.91 292.442 777.03C293.235 777.41 293.632 777.977 293.632 778.73C293.632 779.463 293.348 780.053 292.782 780.5C292.242 780.92 291.572 781.13 290.772 781.13C290.238 781.13 289.725 781.027 289.232 780.82C288.945 780.707 288.605 780.52 288.212 780.26V779.24C288.725 779.7 289.245 780.023 289.772 780.21C289.945 780.277 290.115 780.323 290.282 780.35C290.448 780.377 290.615 780.39 290.782 780.39C291.315 780.39 291.765 780.257 292.132 779.99C292.538 779.697 292.742 779.313 292.742 778.84C292.742 778.267 292.355 777.83 291.582 777.53C291.208 777.417 290.842 777.3 290.482 777.18C290.122 777.06 289.762 776.943 289.402 776.83C288.622 776.47 288.232 775.917 288.232 775.17C288.232 774.543 288.478 774.033 288.972 773.64C289.478 773.233 290.112 773.03 290.872 773.03C291.338 773.03 291.805 773.117 292.272 773.29C292.512 773.37 292.802 773.51 293.142 773.71ZM299.27 778.11H295.2C295.2 778.877 295.377 779.463 295.73 779.87C296.09 780.27 296.56 780.47 297.14 780.47C297.58 780.47 298.003 780.33 298.41 780.05C298.523 779.977 298.643 779.887 298.77 779.78C298.897 779.667 299.033 779.537 299.18 779.39V780.26C299.02 780.38 298.87 780.487 298.73 780.58C298.597 780.667 298.47 780.74 298.35 780.8C297.93 781.02 297.51 781.13 297.09 781.13C296.363 781.13 295.747 780.88 295.24 780.38C294.693 779.853 294.42 779.17 294.42 778.33C294.42 777.537 294.667 776.873 295.16 776.34C295.66 775.8 296.277 775.53 297.01 775.53C297.723 775.53 298.29 775.79 298.71 776.31C299.083 776.783 299.27 777.383 299.27 778.11ZM295.3 777.5H298.43C298.35 777.047 298.177 776.71 297.91 776.49C297.65 776.263 297.333 776.15 296.96 776.15C296.547 776.15 296.197 776.28 295.91 776.54C295.643 776.78 295.44 777.1 295.3 777.5ZM300.688 774.07H301.348V775.64H302.758V776.29H301.348V779.69C301.348 779.97 301.398 780.17 301.498 780.29C301.605 780.41 301.785 780.47 302.038 780.47C302.185 780.47 302.308 780.453 302.408 780.42C302.515 780.387 302.632 780.343 302.758 780.29V780.94C302.652 780.973 302.522 781.003 302.368 781.03C302.222 781.063 302.072 781.08 301.918 781.08C301.518 781.08 301.208 780.99 300.988 780.81C300.742 780.623 300.618 780.323 300.618 779.91V776.29H299.718V775.64H300.618L300.688 774.07ZM304.106 774.07H304.766V775.64H306.176V776.29H304.766V779.69C304.766 779.97 304.816 780.17 304.916 780.29C305.023 780.41 305.203 780.47 305.456 780.47C305.603 780.47 305.726 780.453 305.826 780.42C305.933 780.387 306.05 780.343 306.176 780.29V780.94C306.07 780.973 305.94 781.003 305.786 781.03C305.64 781.063 305.49 781.08 305.336 781.08C304.936 781.08 304.626 780.99 304.406 780.81C304.16 780.623 304.036 780.323 304.036 779.91V776.29H303.136V775.64H304.036L304.106 774.07ZM306.844 775.65H307.564V781H306.844V775.65ZM307.194 773.39C307.334 773.39 307.451 773.437 307.544 773.53C307.638 773.623 307.684 773.757 307.684 773.93C307.684 774.103 307.641 774.237 307.554 774.33C307.468 774.423 307.348 774.47 307.194 774.47C307.041 774.47 306.921 774.417 306.834 774.31C306.754 774.203 306.714 774.08 306.714 773.94C306.714 773.72 306.764 773.573 306.864 773.5C306.964 773.427 307.074 773.39 307.194 773.39ZM313.136 777.42V781H312.416V777.47C312.416 777.097 312.279 776.79 312.006 776.55C311.733 776.303 311.406 776.18 311.026 776.18C310.519 776.18 310.083 776.39 309.716 776.81C309.349 777.237 309.166 777.717 309.166 778.25V781H308.486V775.65H309.116L309.146 776.65C309.326 776.377 309.536 776.15 309.776 775.97C310.169 775.677 310.613 775.53 311.106 775.53C311.679 775.53 312.159 775.703 312.546 776.05C312.939 776.39 313.136 776.847 313.136 777.42ZM318.032 776.25L318.232 775.65H318.762V780.49C318.762 781.323 318.559 781.957 318.152 782.39C317.745 782.823 317.115 783.04 316.262 783.04C315.915 783.04 315.585 782.977 315.272 782.85C314.965 782.73 314.642 782.54 314.302 782.28V781.4C314.515 781.6 314.725 781.767 314.932 781.9C315.139 782.04 315.342 782.147 315.542 782.22C315.775 782.307 316.015 782.35 316.262 782.35C316.789 782.35 317.199 782.23 317.492 781.99C317.852 781.697 318.032 781.227 318.032 780.58V779.92C317.779 780.34 317.465 780.637 317.092 780.81C316.839 780.93 316.559 780.99 316.252 780.99C315.592 780.99 315.039 780.727 314.592 780.2C314.152 779.66 313.932 779.037 313.932 778.33C313.932 777.623 314.139 777 314.552 776.46C315.032 775.84 315.645 775.53 316.392 775.53C316.765 775.53 317.119 775.62 317.452 775.8C317.552 775.86 317.649 775.927 317.742 776C317.842 776.073 317.939 776.157 318.032 776.25ZM318.032 778.41V776.94C317.919 776.813 317.802 776.707 317.682 776.62C317.569 776.533 317.455 776.457 317.342 776.39C317.209 776.317 317.072 776.263 316.932 776.23C316.792 776.197 316.649 776.18 316.502 776.18C316.002 776.18 315.589 776.357 315.262 776.71C314.895 777.11 314.712 777.637 314.712 778.29C314.712 778.883 314.865 779.373 315.172 779.76C315.472 780.14 315.862 780.33 316.342 780.33C316.815 780.33 317.215 780.147 317.542 779.78C317.869 779.427 318.032 778.97 318.032 778.41ZM319.587 780.54V779.67C320.001 780.003 320.421 780.237 320.847 780.37C320.974 780.403 321.097 780.43 321.217 780.45C321.337 780.463 321.461 780.47 321.587 780.47C321.994 780.47 322.331 780.377 322.597 780.19C322.871 779.99 323.007 779.767 323.007 779.52C323.007 779.387 322.957 779.25 322.857 779.11C322.717 778.937 322.344 778.78 321.737 778.64C321.017 778.46 320.537 778.31 320.297 778.19C319.831 777.923 319.597 777.55 319.597 777.07C319.597 776.623 319.791 776.257 320.177 775.97C320.571 775.677 321.061 775.53 321.647 775.53C321.914 775.53 322.154 775.553 322.367 775.6C322.581 775.647 322.781 775.71 322.967 775.79C323.154 775.863 323.327 775.957 323.487 776.07V776.94C323.207 776.707 322.914 776.523 322.607 776.39C322.301 776.25 321.977 776.18 321.637 776.18C321.297 776.18 321.004 776.257 320.757 776.41C320.504 776.563 320.377 776.763 320.377 777.01C320.377 777.337 320.677 777.597 321.277 777.79C321.557 777.87 321.834 777.95 322.107 778.03C322.381 778.11 322.657 778.19 322.937 778.27C323.544 778.53 323.847 778.923 323.847 779.45C323.847 779.897 323.637 780.29 323.217 780.63C322.791 780.963 322.261 781.13 321.627 781.13C321.347 781.13 321.074 781.1 320.807 781.04C320.381 780.947 319.974 780.78 319.587 780.54Z" fill="#101011"/>
</g>
<path d="M137.109 315.994H147.999V317.236H143.265V330.106H141.861V317.236H137.109V315.994ZM156.839 323.878V328.414C156.839 328.618 156.881 328.798 156.965 328.954C157.061 329.098 157.229 329.17 157.469 329.17C157.541 329.17 157.601 329.17 157.649 329.17C157.697 329.158 157.745 329.146 157.793 329.134C157.865 329.11 157.925 329.086 157.973 329.062C158.033 329.038 158.081 329.02 158.117 329.008V330.016C157.901 330.088 157.685 330.136 157.469 330.16C157.253 330.196 157.085 330.214 156.965 330.214C156.353 330.214 155.951 330.052 155.759 329.728C155.603 329.524 155.525 329.086 155.525 328.414C155.369 328.678 155.213 328.912 155.057 329.116C154.901 329.308 154.745 329.47 154.589 329.602C153.965 330.094 153.239 330.34 152.411 330.34C151.535 330.34 150.773 330.082 150.125 329.566C149.453 329.014 149.117 328.312 149.117 327.46C149.117 326.392 149.657 325.606 150.737 325.102C151.133 324.91 151.655 324.742 152.303 324.598C152.963 324.454 153.749 324.322 154.661 324.202L155.525 324.112C155.525 323.272 155.309 322.618 154.877 322.15C154.457 321.67 153.833 321.43 153.005 321.43C152.693 321.43 152.381 321.472 152.069 321.556C151.769 321.628 151.463 321.748 151.151 321.916C150.983 322.012 150.797 322.126 150.593 322.258C150.389 322.39 150.167 322.558 149.927 322.762V321.286C150.947 320.602 152.045 320.26 153.221 320.26C154.421 320.26 155.345 320.638 155.993 321.394C156.557 322.054 156.839 322.882 156.839 323.878ZM155.525 325.768V325.192L154.913 325.264C153.413 325.42 152.357 325.63 151.745 325.894C150.929 326.218 150.521 326.746 150.521 327.478C150.521 327.694 150.569 327.904 150.665 328.108C150.761 328.3 150.893 328.474 151.061 328.63C151.229 328.786 151.433 328.912 151.673 329.008C151.925 329.104 152.201 329.152 152.501 329.152C153.317 329.152 154.031 328.822 154.643 328.162C155.231 327.49 155.525 326.692 155.525 325.768ZM160.789 329.242V333.202H159.529V320.476H160.699L160.771 322.222C161.167 321.574 161.623 321.088 162.139 320.764C162.655 320.428 163.279 320.26 164.011 320.26C165.211 320.26 166.207 320.728 166.999 321.664C167.407 322.132 167.713 322.66 167.917 323.248C168.121 323.824 168.223 324.472 168.223 325.192C168.223 326.68 167.773 327.91 166.873 328.882C165.973 329.854 164.899 330.34 163.651 330.34C163.027 330.34 162.451 330.208 161.923 329.944C161.767 329.884 161.599 329.794 161.419 329.674C161.239 329.554 161.029 329.41 160.789 329.242ZM160.789 324.976V327.856C160.981 328.036 161.155 328.192 161.311 328.324C161.479 328.444 161.629 328.546 161.761 328.63C162.349 328.978 162.943 329.152 163.543 329.152C164.503 329.152 165.289 328.774 165.901 328.018C166.525 327.226 166.837 326.266 166.837 325.138C166.837 324.082 166.549 323.2 165.973 322.492C165.409 321.784 164.689 321.43 163.813 321.43C162.913 321.43 162.169 321.82 161.581 322.6C161.053 323.308 160.789 324.1 160.789 324.976ZM176.395 317.632H177.583V320.458H180.121V321.628H177.583V327.748C177.583 328.252 177.673 328.612 177.853 328.828C178.045 329.044 178.369 329.152 178.825 329.152C179.089 329.152 179.311 329.122 179.491 329.062C179.683 329.002 179.893 328.924 180.121 328.828V329.998C179.929 330.058 179.695 330.112 179.419 330.16C179.155 330.22 178.885 330.25 178.609 330.25C177.889 330.25 177.331 330.088 176.935 329.764C176.491 329.428 176.269 328.888 176.269 328.144V321.628H174.649V320.458H176.269L176.395 317.632ZM185.914 330.34C184.678 330.34 183.592 329.89 182.656 328.99C181.66 328.042 181.162 326.812 181.162 325.3C181.162 323.872 181.6 322.678 182.476 321.718C183.376 320.746 184.486 320.26 185.806 320.26C187.114 320.26 188.218 320.746 189.118 321.718C190.006 322.678 190.45 323.866 190.45 325.282C190.45 326.77 189.97 328 189.01 328.972C188.122 329.884 187.09 330.34 185.914 330.34ZM185.788 329.152C186.652 329.152 187.42 328.792 188.092 328.072C188.74 327.34 189.064 326.41 189.064 325.282C189.064 324.118 188.716 323.17 188.02 322.438C187.384 321.766 186.646 321.43 185.806 321.43C184.942 321.43 184.204 321.778 183.592 322.474C182.92 323.242 182.584 324.184 182.584 325.3C182.584 326.428 182.914 327.37 183.574 328.126C184.186 328.81 184.924 329.152 185.788 329.152ZM206.475 316.984V318.802C206.163 318.538 205.845 318.304 205.521 318.1C205.209 317.896 204.897 317.728 204.585 317.596C203.865 317.26 203.133 317.092 202.389 317.092C201.453 317.092 200.679 317.326 200.067 317.794C199.443 318.274 199.131 318.844 199.131 319.504C199.131 320.464 199.839 321.184 201.255 321.664C201.915 321.892 202.569 322.114 203.217 322.33C203.877 322.534 204.543 322.744 205.215 322.96C206.643 323.644 207.357 324.664 207.357 326.02C207.357 327.34 206.847 328.402 205.827 329.206C204.855 329.962 203.649 330.34 202.209 330.34C201.249 330.34 200.325 330.154 199.437 329.782C198.921 329.578 198.309 329.242 197.601 328.774V326.938C198.525 327.766 199.461 328.348 200.409 328.684C200.721 328.804 201.027 328.888 201.327 328.936C201.627 328.984 201.927 329.008 202.227 329.008C203.187 329.008 203.997 328.768 204.657 328.288C205.389 327.76 205.755 327.07 205.755 326.218C205.755 325.186 205.059 324.4 203.667 323.86C202.995 323.656 202.335 323.446 201.687 323.23C201.039 323.014 200.391 322.804 199.743 322.6C198.339 321.952 197.637 320.956 197.637 319.612C197.637 318.484 198.081 317.566 198.969 316.858C199.881 316.126 201.021 315.76 202.389 315.76C203.229 315.76 204.069 315.916 204.909 316.228C205.341 316.372 205.863 316.624 206.475 316.984ZM217.506 324.904H210.18C210.18 326.284 210.498 327.34 211.134 328.072C211.782 328.792 212.628 329.152 213.672 329.152C214.464 329.152 215.226 328.9 215.958 328.396C216.162 328.264 216.378 328.102 216.606 327.91C216.834 327.706 217.08 327.472 217.344 327.208V328.774C217.056 328.99 216.786 329.182 216.534 329.35C216.294 329.506 216.066 329.638 215.85 329.746C215.094 330.142 214.338 330.34 213.582 330.34C212.274 330.34 211.164 329.89 210.252 328.99C209.268 328.042 208.776 326.812 208.776 325.3C208.776 323.872 209.22 322.678 210.108 321.718C211.008 320.746 212.118 320.26 213.438 320.26C214.722 320.26 215.742 320.728 216.498 321.664C217.17 322.516 217.506 323.596 217.506 324.904ZM210.36 323.806H215.994C215.85 322.99 215.538 322.384 215.058 321.988C214.59 321.58 214.02 321.376 213.348 321.376C212.604 321.376 211.974 321.61 211.458 322.078C210.978 322.51 210.612 323.086 210.36 323.806ZM226.413 323.878V328.414C226.413 328.618 226.455 328.798 226.539 328.954C226.635 329.098 226.803 329.17 227.043 329.17C227.115 329.17 227.175 329.17 227.223 329.17C227.271 329.158 227.319 329.146 227.367 329.134C227.439 329.11 227.499 329.086 227.547 329.062C227.607 329.038 227.655 329.02 227.691 329.008V330.016C227.475 330.088 227.259 330.136 227.043 330.16C226.827 330.196 226.659 330.214 226.539 330.214C225.927 330.214 225.525 330.052 225.333 329.728C225.177 329.524 225.099 329.086 225.099 328.414C224.943 328.678 224.787 328.912 224.631 329.116C224.475 329.308 224.319 329.47 224.163 329.602C223.539 330.094 222.813 330.34 221.985 330.34C221.109 330.34 220.347 330.082 219.699 329.566C219.027 329.014 218.691 328.312 218.691 327.46C218.691 326.392 219.231 325.606 220.311 325.102C220.707 324.91 221.229 324.742 221.877 324.598C222.537 324.454 223.323 324.322 224.235 324.202L225.099 324.112C225.099 323.272 224.883 322.618 224.451 322.15C224.031 321.67 223.407 321.43 222.579 321.43C222.267 321.43 221.955 321.472 221.643 321.556C221.343 321.628 221.037 321.748 220.725 321.916C220.557 322.012 220.371 322.126 220.167 322.258C219.963 322.39 219.741 322.558 219.501 322.762V321.286C220.521 320.602 221.619 320.26 222.795 320.26C223.995 320.26 224.919 320.638 225.567 321.394C226.131 322.054 226.413 322.882 226.413 323.878ZM225.099 325.768V325.192L224.487 325.264C222.987 325.42 221.931 325.63 221.319 325.894C220.503 326.218 220.095 326.746 220.095 327.478C220.095 327.694 220.143 327.904 220.239 328.108C220.335 328.3 220.467 328.474 220.635 328.63C220.803 328.786 221.007 328.912 221.247 329.008C221.499 329.104 221.775 329.152 222.075 329.152C222.891 329.152 223.605 328.822 224.217 328.162C224.805 327.49 225.099 326.692 225.099 325.768ZM234.269 320.476V321.772C234.137 321.724 234.029 321.688 233.945 321.664C233.861 321.628 233.789 321.604 233.729 321.592C233.669 321.58 233.603 321.574 233.531 321.574C233.471 321.562 233.387 321.556 233.279 321.556C232.403 321.556 231.683 321.982 231.119 322.834C230.639 323.614 230.399 324.484 230.399 325.444V330.106H229.103V320.476H230.291L230.381 322.132C230.681 321.628 230.963 321.268 231.227 321.052C231.767 320.608 232.415 320.386 233.171 320.386C233.375 320.386 233.561 320.392 233.729 320.404C233.909 320.416 234.089 320.44 234.269 320.476ZM243.297 321.322V323.014C242.625 322.378 241.935 321.922 241.227 321.646C241.023 321.562 240.813 321.508 240.597 321.484C240.381 321.448 240.165 321.43 239.949 321.43C238.953 321.43 238.137 321.802 237.501 322.546C236.865 323.314 236.547 324.226 236.547 325.282C236.547 326.362 236.877 327.286 237.537 328.054C238.197 328.786 239.025 329.152 240.021 329.152C240.645 329.152 241.215 329.02 241.731 328.756C242.247 328.48 242.769 328.072 243.297 327.532V329.242C242.661 329.638 242.085 329.92 241.569 330.088C241.053 330.256 240.531 330.34 240.003 330.34C238.659 330.34 237.507 329.86 236.547 328.9C235.611 327.904 235.143 326.704 235.143 325.3C235.143 323.92 235.605 322.732 236.529 321.736C237.465 320.752 238.629 320.26 240.021 320.26C240.729 320.26 241.389 320.38 242.001 320.62C242.361 320.752 242.793 320.986 243.297 321.322ZM244.765 315.994H246.061V322.204C246.361 321.724 246.727 321.322 247.159 320.998C247.819 320.506 248.557 320.26 249.373 320.26C249.877 320.26 250.327 320.332 250.723 320.476C251.131 320.62 251.503 320.83 251.839 321.106C252.547 321.73 252.901 322.606 252.901 323.734V330.106H251.587V323.914C251.587 323.218 251.365 322.63 250.921 322.15C250.477 321.67 249.937 321.43 249.301 321.43C248.377 321.43 247.609 321.796 246.997 322.528C246.373 323.284 246.061 324.148 246.061 325.12V330.106H244.765V315.994Z" fill="#101011"/>
<rect x="157.947" y="388.053" width="74.1061" height="71.8939" rx="35.947" stroke="white" stroke-width="71.8939"/>
<rect x="131.955" y="362.061" width="126.091" height="123.879" rx="61.9394" fill="url(#paint0_linear_45_1242)"/>
<rect x="131.955" y="362.061" width="126.091" height="123.879" rx="61.9394" stroke="#BAD9FF" stroke-width="6.63636"/>
<path d="M206.789 414.771L192.235 425.106V406.371C192.235 401.155 192.235 398.547 193.907 397.691C195.579 396.836 197.713 398.352 201.983 401.384L206.789 404.796C209.99 407.07 211.591 408.207 211.591 409.784C211.591 411.361 209.99 412.497 206.789 414.771Z" stroke="#FDFDFD" stroke-width="2.21212"/>
<path d="M206.789 445.416L201.983 448.829C197.713 451.86 195.579 453.376 193.907 452.521C192.235 451.665 192.235 449.057 192.235 443.841V425.106L206.789 435.441C209.99 437.715 211.591 438.851 211.591 440.428C211.591 442.006 209.99 443.142 206.789 445.416Z" stroke="#FDFDFD" stroke-width="2.21212"/>
<path d="M177.775 433.878C177.274 434.228 177.153 434.918 177.503 435.418C177.853 435.919 178.543 436.041 179.043 435.69L177.775 433.878ZM179.043 435.69L192.869 426.012L191.601 424.2L177.775 433.878L179.043 435.69Z" fill="#FDFDFD"/>
<path d="M177.775 416.334C177.274 415.984 177.153 415.294 177.503 414.794C177.853 414.293 178.543 414.172 179.043 414.522L177.775 416.334ZM179.043 414.522L192.869 424.2L191.601 426.012L177.775 416.334L179.043 414.522Z" fill="#FDFDFD"/>
<path d="M47.8867 513.35H49.1507V524.79H55.3427V525.894H47.8867V513.35ZM60.6028 526.102C59.5041 526.102 58.5388 525.702 57.7068 524.902C56.8215 524.059 56.3788 522.966 56.3788 521.622C56.3788 520.353 56.7681 519.291 57.5468 518.438C58.3468 517.574 59.3335 517.142 60.5068 517.142C61.6695 517.142 62.6508 517.574 63.4508 518.438C64.2401 519.291 64.6348 520.347 64.6348 521.606C64.6348 522.929 64.2081 524.022 63.3548 524.886C62.5655 525.697 61.6481 526.102 60.6028 526.102ZM60.4908 525.046C61.2588 525.046 61.9415 524.726 62.5388 524.086C63.1148 523.435 63.4028 522.609 63.4028 521.606C63.4028 520.571 63.0935 519.729 62.4748 519.078C61.9095 518.481 61.2535 518.182 60.5068 518.182C59.7388 518.182 59.0828 518.491 58.5388 519.11C57.9415 519.793 57.6428 520.63 57.6428 521.622C57.6428 522.625 57.9361 523.462 58.5228 524.134C59.0668 524.742 59.7228 525.046 60.4908 525.046ZM72.9229 518.086V519.59C72.3256 519.025 71.7123 518.619 71.0829 518.374C70.9016 518.299 70.7149 518.251 70.5229 518.23C70.3309 518.198 70.1389 518.182 69.9469 518.182C69.0616 518.182 68.3363 518.513 67.7709 519.174C67.2056 519.857 66.9229 520.667 66.9229 521.606C66.9229 522.566 67.2163 523.387 67.8029 524.07C68.3896 524.721 69.1256 525.046 70.0109 525.046C70.5656 525.046 71.0723 524.929 71.5309 524.694C71.9896 524.449 72.4536 524.086 72.9229 523.606V525.126C72.3576 525.478 71.8456 525.729 71.3869 525.878C70.9283 526.027 70.4643 526.102 69.9949 526.102C68.8003 526.102 67.7763 525.675 66.9229 524.822C66.0909 523.937 65.6749 522.87 65.6749 521.622C65.6749 520.395 66.0856 519.339 66.9069 518.454C67.7389 517.579 68.7736 517.142 70.0109 517.142C70.6403 517.142 71.2269 517.249 71.7709 517.462C72.0909 517.579 72.4749 517.787 72.9229 518.086ZM80.8838 520.358V524.39C80.8838 524.571 80.9211 524.731 80.9958 524.87C81.0811 524.998 81.2305 525.062 81.4438 525.062C81.5078 525.062 81.5611 525.062 81.6038 525.062C81.6465 525.051 81.6891 525.041 81.7318 525.03C81.7958 525.009 81.8491 524.987 81.8918 524.966C81.9451 524.945 81.9878 524.929 82.0198 524.918V525.814C81.8278 525.878 81.6358 525.921 81.4438 525.942C81.2518 525.974 81.1025 525.99 80.9958 525.99C80.4518 525.99 80.0945 525.846 79.9238 525.558C79.7851 525.377 79.7158 524.987 79.7158 524.39C79.5771 524.625 79.4385 524.833 79.2998 525.014C79.1611 525.185 79.0225 525.329 78.8838 525.446C78.3291 525.883 77.6838 526.102 76.9478 526.102C76.1691 526.102 75.4918 525.873 74.9158 525.414C74.3185 524.923 74.0198 524.299 74.0198 523.542C74.0198 522.593 74.4998 521.894 75.4598 521.446C75.8118 521.275 76.2758 521.126 76.8518 520.998C77.4385 520.87 78.1371 520.753 78.9478 520.646L79.7158 520.566C79.7158 519.819 79.5238 519.238 79.1398 518.822C78.7665 518.395 78.2118 518.182 77.4758 518.182C77.1985 518.182 76.9211 518.219 76.6438 518.294C76.3771 518.358 76.1051 518.465 75.8278 518.614C75.6785 518.699 75.5131 518.801 75.3318 518.918C75.1505 519.035 74.9531 519.185 74.7398 519.366V518.054C75.6465 517.446 76.6225 517.142 77.6678 517.142C78.7345 517.142 79.5558 517.478 80.1318 518.15C80.6331 518.737 80.8838 519.473 80.8838 520.358ZM79.7158 522.038V521.526L79.1718 521.59C77.8385 521.729 76.8998 521.915 76.3558 522.15C75.6305 522.438 75.2678 522.907 75.2678 523.558C75.2678 523.75 75.3105 523.937 75.3958 524.118C75.4811 524.289 75.5985 524.443 75.7478 524.582C75.8971 524.721 76.0785 524.833 76.2918 524.918C76.5158 525.003 76.7611 525.046 77.0278 525.046C77.7531 525.046 78.3878 524.753 78.9318 524.166C79.4545 523.569 79.7158 522.859 79.7158 522.038ZM84.2827 514.806H85.3387V517.318H87.5947V518.358H85.3387V523.798C85.3387 524.246 85.4187 524.566 85.5787 524.758C85.7494 524.95 86.0374 525.046 86.4427 525.046C86.6774 525.046 86.8747 525.019 87.0347 524.966C87.2054 524.913 87.392 524.843 87.5947 524.758V525.798C87.424 525.851 87.216 525.899 86.9707 525.942C86.736 525.995 86.496 526.022 86.2507 526.022C85.6107 526.022 85.1147 525.878 84.7627 525.59C84.368 525.291 84.1707 524.811 84.1707 524.15V518.358H82.7307V517.318H84.1707L84.2827 514.806ZM96.2634 521.27H89.7514C89.7514 522.497 90.0341 523.435 90.5994 524.086C91.1754 524.726 91.9274 525.046 92.8554 525.046C93.5594 525.046 94.2368 524.822 94.8874 524.374C95.0688 524.257 95.2608 524.113 95.4634 523.942C95.6661 523.761 95.8848 523.553 96.1194 523.318V524.71C95.8634 524.902 95.6234 525.073 95.3994 525.222C95.1861 525.361 94.9834 525.478 94.7914 525.574C94.1194 525.926 93.4474 526.102 92.7754 526.102C91.6128 526.102 90.6261 525.702 89.8154 524.902C88.9408 524.059 88.5034 522.966 88.5034 521.622C88.5034 520.353 88.8981 519.291 89.6874 518.438C90.4874 517.574 91.4741 517.142 92.6474 517.142C93.7888 517.142 94.6954 517.558 95.3674 518.39C95.9648 519.147 96.2634 520.107 96.2634 521.27ZM89.9114 520.294H94.9194C94.7914 519.569 94.5141 519.03 94.0874 518.678C93.6714 518.315 93.1648 518.134 92.5674 518.134C91.9061 518.134 91.3461 518.342 90.8874 518.758C90.4608 519.142 90.1354 519.654 89.9114 520.294ZM108.634 513.35H109.866V525.894H108.762L108.65 524.502C108.5 524.715 108.351 524.907 108.202 525.078C108.052 525.238 107.903 525.377 107.754 525.494C107.22 525.899 106.602 526.102 105.898 526.102C104.799 526.102 103.887 525.675 103.162 524.822C102.447 523.969 102.09 522.934 102.09 521.718C102.09 520.459 102.468 519.387 103.226 518.502C103.994 517.595 104.954 517.142 106.106 517.142C106.586 517.142 107.034 517.227 107.45 517.398C107.599 517.462 107.77 517.547 107.962 517.654C108.164 517.761 108.388 517.889 108.634 518.038V513.35ZM108.634 521.75V519.286C108.132 518.849 107.695 518.555 107.322 518.406C106.948 518.257 106.586 518.182 106.234 518.182C105.359 518.182 104.65 518.55 104.106 519.286C103.594 519.979 103.338 520.785 103.338 521.702C103.338 522.683 103.62 523.499 104.186 524.15C104.708 524.747 105.327 525.046 106.042 525.046C106.746 525.046 107.354 524.737 107.866 524.118C108.378 523.499 108.634 522.71 108.634 521.75ZM118.81 521.27H112.298C112.298 522.497 112.581 523.435 113.146 524.086C113.722 524.726 114.474 525.046 115.402 525.046C116.106 525.046 116.784 524.822 117.434 524.374C117.616 524.257 117.808 524.113 118.01 523.942C118.213 523.761 118.432 523.553 118.666 523.318V524.71C118.41 524.902 118.17 525.073 117.946 525.222C117.733 525.361 117.53 525.478 117.338 525.574C116.666 525.926 115.994 526.102 115.322 526.102C114.16 526.102 113.173 525.702 112.362 524.902C111.488 524.059 111.05 522.966 111.05 521.622C111.05 520.353 111.445 519.291 112.234 518.438C113.034 517.574 114.021 517.142 115.194 517.142C116.336 517.142 117.242 517.558 117.914 518.39C118.512 519.147 118.81 520.107 118.81 521.27ZM112.458 520.294H117.466C117.338 519.569 117.061 519.03 116.634 518.678C116.218 518.315 115.712 518.134 115.114 518.134C114.453 518.134 113.893 518.342 113.434 518.758C113.008 519.142 112.682 519.654 112.458 520.294ZM119.624 517.334H120.92L123.64 524.678L126.424 517.334H127.576L124.152 525.894H123.048L119.624 517.334ZM128.663 517.334H129.815V525.894H128.663V517.334ZM129.223 513.718C129.447 513.718 129.634 513.793 129.783 513.942C129.933 514.091 130.007 514.305 130.007 514.582C130.007 514.859 129.938 515.073 129.799 515.222C129.661 515.371 129.469 515.446 129.223 515.446C128.978 515.446 128.786 515.361 128.647 515.19C128.519 515.019 128.455 514.822 128.455 514.598C128.455 514.246 128.535 514.011 128.695 513.894C128.855 513.777 129.031 513.718 129.223 513.718ZM138.282 518.086V519.59C137.685 519.025 137.072 518.619 136.442 518.374C136.261 518.299 136.074 518.251 135.882 518.23C135.69 518.198 135.498 518.182 135.306 518.182C134.421 518.182 133.696 518.513 133.13 519.174C132.565 519.857 132.282 520.667 132.282 521.606C132.282 522.566 132.576 523.387 133.162 524.07C133.749 524.721 134.485 525.046 135.37 525.046C135.925 525.046 136.432 524.929 136.89 524.694C137.349 524.449 137.813 524.086 138.282 523.606V525.126C137.717 525.478 137.205 525.729 136.746 525.878C136.288 526.027 135.824 526.102 135.354 526.102C134.16 526.102 133.136 525.675 132.282 524.822C131.45 523.937 131.034 522.87 131.034 521.622C131.034 520.395 131.445 519.339 132.266 518.454C133.098 517.579 134.133 517.142 135.37 517.142C136 517.142 136.586 517.249 137.13 517.462C137.45 517.579 137.834 517.787 138.282 518.086ZM147.107 521.27H140.595C140.595 522.497 140.878 523.435 141.443 524.086C142.019 524.726 142.771 525.046 143.699 525.046C144.403 525.046 145.081 524.822 145.731 524.374C145.913 524.257 146.105 524.113 146.307 523.942C146.51 523.761 146.729 523.553 146.963 523.318V524.71C146.707 524.902 146.467 525.073 146.243 525.222C146.03 525.361 145.827 525.478 145.635 525.574C144.963 525.926 144.291 526.102 143.619 526.102C142.457 526.102 141.47 525.702 140.659 524.902C139.785 524.059 139.347 522.966 139.347 521.622C139.347 520.353 139.742 519.291 140.531 518.438C141.331 517.574 142.318 517.142 143.491 517.142C144.633 517.142 145.539 517.558 146.211 518.39C146.809 519.147 147.107 520.107 147.107 521.27ZM140.755 520.294H145.763C145.635 519.569 145.358 519.03 144.931 518.678C144.515 518.315 144.009 518.134 143.411 518.134C142.75 518.134 142.19 518.342 141.731 518.758C141.305 519.142 140.979 519.654 140.755 520.294ZM148.208 525.158V523.766C148.87 524.299 149.542 524.673 150.224 524.886C150.427 524.939 150.624 524.982 150.816 525.014C151.008 525.035 151.206 525.046 151.408 525.046C152.059 525.046 152.598 524.897 153.024 524.598C153.462 524.278 153.68 523.921 153.68 523.526C153.68 523.313 153.6 523.094 153.44 522.87C153.216 522.593 152.619 522.342 151.648 522.118C150.496 521.83 149.728 521.59 149.344 521.398C148.598 520.971 148.224 520.374 148.224 519.606C148.224 518.891 148.534 518.305 149.152 517.846C149.782 517.377 150.566 517.142 151.504 517.142C151.931 517.142 152.315 517.179 152.656 517.254C152.998 517.329 153.318 517.43 153.616 517.558C153.915 517.675 154.192 517.825 154.448 518.006V519.398C154 519.025 153.531 518.731 153.04 518.518C152.55 518.294 152.032 518.182 151.488 518.182C150.944 518.182 150.475 518.305 150.08 518.55C149.675 518.795 149.472 519.115 149.472 519.51C149.472 520.033 149.952 520.449 150.912 520.758C151.36 520.886 151.803 521.014 152.24 521.142C152.678 521.27 153.12 521.398 153.568 521.526C154.539 521.942 155.024 522.571 155.024 523.414C155.024 524.129 154.688 524.758 154.016 525.302C153.334 525.835 152.486 526.102 151.472 526.102C151.024 526.102 150.587 526.054 150.16 525.958C149.478 525.809 148.827 525.542 148.208 525.158ZM161.431 513.35H162.599V518.774C162.748 518.55 162.892 518.358 163.031 518.198C163.18 518.038 163.33 517.899 163.479 517.782C164.034 517.355 164.679 517.142 165.415 517.142C166.524 517.142 167.436 517.563 168.151 518.406C168.887 519.259 169.255 520.294 169.255 521.51C169.255 522.758 168.887 523.819 168.151 524.694C167.362 525.633 166.375 526.102 165.191 526.102C164.54 526.102 163.975 525.958 163.495 525.67C163.186 525.499 162.887 525.254 162.599 524.934L162.295 525.894H161.431V513.35ZM162.599 521.238V523.718C162.748 523.899 162.898 524.059 163.047 524.198C163.196 524.337 163.335 524.454 163.463 524.55C163.932 524.881 164.466 525.046 165.063 525.046C165.884 525.046 166.562 524.71 167.095 524.038C167.628 523.345 167.895 522.507 167.895 521.526C167.895 520.502 167.596 519.665 166.999 519.014C166.487 518.459 165.895 518.182 165.223 518.182C164.498 518.182 163.874 518.491 163.351 519.11C162.85 519.707 162.599 520.417 162.599 521.238ZM177.071 520.358V524.39C177.071 524.571 177.109 524.731 177.183 524.87C177.269 524.998 177.418 525.062 177.631 525.062C177.695 525.062 177.749 525.062 177.791 525.062C177.834 525.051 177.877 525.041 177.919 525.03C177.983 525.009 178.037 524.987 178.079 524.966C178.133 524.945 178.175 524.929 178.207 524.918V525.814C178.015 525.878 177.823 525.921 177.631 525.942C177.439 525.974 177.29 525.99 177.183 525.99C176.639 525.99 176.282 525.846 176.111 525.558C175.973 525.377 175.903 524.987 175.903 524.39C175.765 524.625 175.626 524.833 175.487 525.014C175.349 525.185 175.21 525.329 175.071 525.446C174.517 525.883 173.871 526.102 173.135 526.102C172.357 526.102 171.679 525.873 171.103 525.414C170.506 524.923 170.207 524.299 170.207 523.542C170.207 522.593 170.687 521.894 171.647 521.446C171.999 521.275 172.463 521.126 173.039 520.998C173.626 520.87 174.325 520.753 175.135 520.646L175.903 520.566C175.903 519.819 175.711 519.238 175.327 518.822C174.954 518.395 174.399 518.182 173.663 518.182C173.386 518.182 173.109 518.219 172.831 518.294C172.565 518.358 172.293 518.465 172.015 518.614C171.866 518.699 171.701 518.801 171.519 518.918C171.338 519.035 171.141 519.185 170.927 519.366V518.054C171.834 517.446 172.81 517.142 173.855 517.142C174.922 517.142 175.743 517.478 176.319 518.15C176.821 518.737 177.071 519.473 177.071 520.358ZM175.903 522.038V521.526L175.359 521.59C174.026 521.729 173.087 521.915 172.543 522.15C171.818 522.438 171.455 522.907 171.455 523.558C171.455 523.75 171.498 523.937 171.583 524.118C171.669 524.289 171.786 524.443 171.935 524.582C172.085 524.721 172.266 524.833 172.479 524.918C172.703 525.003 172.949 525.046 173.215 525.046C173.941 525.046 174.575 524.753 175.119 524.166C175.642 523.569 175.903 522.859 175.903 522.038ZM179.302 525.158V523.766C179.964 524.299 180.636 524.673 181.318 524.886C181.521 524.939 181.718 524.982 181.91 525.014C182.102 525.035 182.3 525.046 182.502 525.046C183.153 525.046 183.692 524.897 184.118 524.598C184.556 524.278 184.774 523.921 184.774 523.526C184.774 523.313 184.694 523.094 184.534 522.87C184.31 522.593 183.713 522.342 182.742 522.118C181.59 521.83 180.822 521.59 180.438 521.398C179.692 520.971 179.318 520.374 179.318 519.606C179.318 518.891 179.628 518.305 180.246 517.846C180.876 517.377 181.66 517.142 182.598 517.142C183.025 517.142 183.409 517.179 183.75 517.254C184.092 517.329 184.412 517.43 184.71 517.558C185.009 517.675 185.286 517.825 185.542 518.006V519.398C185.094 519.025 184.625 518.731 184.134 518.518C183.644 518.294 183.126 518.182 182.582 518.182C182.038 518.182 181.569 518.305 181.174 518.55C180.769 518.795 180.566 519.115 180.566 519.51C180.566 520.033 181.046 520.449 182.006 520.758C182.454 520.886 182.897 521.014 183.334 521.142C183.772 521.27 184.214 521.398 184.662 521.526C185.633 521.942 186.118 522.571 186.118 523.414C186.118 524.129 185.782 524.758 185.11 525.302C184.428 525.835 183.58 526.102 182.566 526.102C182.118 526.102 181.681 526.054 181.254 525.958C180.572 525.809 179.921 525.542 179.302 525.158ZM194.92 521.27H188.408C188.408 522.497 188.69 523.435 189.256 524.086C189.832 524.726 190.584 525.046 191.512 525.046C192.216 525.046 192.893 524.822 193.544 524.374C193.725 524.257 193.917 524.113 194.12 523.942C194.322 523.761 194.541 523.553 194.776 523.318V524.71C194.52 524.902 194.28 525.073 194.056 525.222C193.842 525.361 193.64 525.478 193.448 525.574C192.776 525.926 192.104 526.102 191.432 526.102C190.269 526.102 189.282 525.702 188.472 524.902C187.597 524.059 187.16 522.966 187.16 521.622C187.16 520.353 187.554 519.291 188.344 518.438C189.144 517.574 190.13 517.142 191.304 517.142C192.445 517.142 193.352 517.558 194.024 518.39C194.621 519.147 194.92 520.107 194.92 521.27ZM188.568 520.294H193.576C193.448 519.569 193.17 519.03 192.744 518.678C192.328 518.315 191.821 518.134 191.224 518.134C190.562 518.134 190.002 518.342 189.544 518.758C189.117 519.142 188.792 519.654 188.568 520.294ZM202.165 513.35H203.397V525.894H202.293L202.181 524.502C202.032 524.715 201.882 524.907 201.733 525.078C201.584 525.238 201.434 525.377 201.285 525.494C200.752 525.899 200.133 526.102 199.429 526.102C198.33 526.102 197.418 525.675 196.693 524.822C195.978 523.969 195.621 522.934 195.621 521.718C195.621 520.459 196 519.387 196.757 518.502C197.525 517.595 198.485 517.142 199.637 517.142C200.117 517.142 200.565 517.227 200.981 517.398C201.13 517.462 201.301 517.547 201.493 517.654C201.696 517.761 201.92 517.889 202.165 518.038V513.35ZM202.165 521.75V519.286C201.664 518.849 201.226 518.555 200.853 518.406C200.48 518.257 200.117 518.182 199.765 518.182C198.89 518.182 198.181 518.55 197.637 519.286C197.125 519.979 196.869 520.785 196.869 521.702C196.869 522.683 197.152 523.499 197.717 524.15C198.24 524.747 198.858 525.046 199.573 525.046C200.277 525.046 200.885 524.737 201.397 524.118C201.909 523.499 202.165 522.71 202.165 521.75ZM213.947 526.102C212.848 526.102 211.883 525.702 211.051 524.902C210.165 524.059 209.723 522.966 209.723 521.622C209.723 520.353 210.112 519.291 210.891 518.438C211.691 517.574 212.677 517.142 213.851 517.142C215.013 517.142 215.995 517.574 216.795 518.438C217.584 519.291 217.979 520.347 217.979 521.606C217.979 522.929 217.552 524.022 216.699 524.886C215.909 525.697 214.992 526.102 213.947 526.102ZM213.835 525.046C214.603 525.046 215.285 524.726 215.883 524.086C216.459 523.435 216.747 522.609 216.747 521.606C216.747 520.571 216.437 519.729 215.819 519.078C215.253 518.481 214.597 518.182 213.851 518.182C213.083 518.182 212.427 518.491 211.883 519.11C211.285 519.793 210.987 520.63 210.987 521.622C210.987 522.625 211.28 523.462 211.867 524.134C212.411 524.742 213.067 525.046 213.835 525.046ZM226.715 520.166V525.894H225.563V520.246C225.563 519.649 225.344 519.158 224.907 518.774C224.469 518.379 223.947 518.182 223.339 518.182C222.528 518.182 221.829 518.518 221.243 519.19C220.656 519.873 220.363 520.641 220.363 521.494V525.894H219.275V517.334H220.283L220.331 518.934C220.619 518.497 220.955 518.134 221.339 517.846C221.968 517.377 222.677 517.142 223.467 517.142C224.384 517.142 225.152 517.419 225.771 517.974C226.4 518.518 226.715 519.249 226.715 520.166ZM233.177 525.158V523.766C233.839 524.299 234.511 524.673 235.193 524.886C235.396 524.939 235.593 524.982 235.785 525.014C235.977 525.035 236.175 525.046 236.377 525.046C237.028 525.046 237.567 524.897 237.993 524.598C238.431 524.278 238.649 523.921 238.649 523.526C238.649 523.313 238.569 523.094 238.409 522.87C238.185 522.593 237.588 522.342 236.617 522.118C235.465 521.83 234.697 521.59 234.313 521.398C233.567 520.971 233.193 520.374 233.193 519.606C233.193 518.891 233.503 518.305 234.121 517.846C234.751 517.377 235.535 517.142 236.473 517.142C236.9 517.142 237.284 517.179 237.625 517.254C237.967 517.329 238.287 517.43 238.585 517.558C238.884 517.675 239.161 517.825 239.417 518.006V519.398C238.969 519.025 238.5 518.731 238.009 518.518C237.519 518.294 237.001 518.182 236.457 518.182C235.913 518.182 235.444 518.305 235.049 518.55C234.644 518.795 234.441 519.115 234.441 519.51C234.441 520.033 234.921 520.449 235.881 520.758C236.329 520.886 236.772 521.014 237.209 521.142C237.647 521.27 238.089 521.398 238.537 521.526C239.508 521.942 239.993 522.571 239.993 523.414C239.993 524.129 239.657 524.758 238.985 525.302C238.303 525.835 237.455 526.102 236.441 526.102C235.993 526.102 235.556 526.054 235.129 525.958C234.447 525.809 233.796 525.542 233.177 525.158ZM241.195 517.334H242.347V525.894H241.195V517.334ZM241.755 513.718C241.979 513.718 242.165 513.793 242.315 513.942C242.464 514.091 242.539 514.305 242.539 514.582C242.539 514.859 242.469 515.073 242.331 515.222C242.192 515.371 242 515.446 241.755 515.446C241.509 515.446 241.317 515.361 241.179 515.19C241.051 515.019 240.987 514.822 240.987 514.598C240.987 514.246 241.067 514.011 241.227 513.894C241.387 513.777 241.563 513.718 241.755 513.718ZM250.158 518.294L250.478 517.334H251.326V525.078C251.326 526.411 251 527.425 250.35 528.118C249.699 528.811 248.691 529.158 247.326 529.158C246.771 529.158 246.243 529.057 245.742 528.854C245.251 528.662 244.734 528.358 244.19 527.942V526.534C244.531 526.854 244.867 527.121 245.198 527.334C245.528 527.558 245.854 527.729 246.174 527.846C246.547 527.985 246.931 528.054 247.326 528.054C248.168 528.054 248.824 527.862 249.294 527.478C249.87 527.009 250.158 526.257 250.158 525.222V524.166C249.752 524.838 249.251 525.313 248.654 525.59C248.248 525.782 247.8 525.878 247.31 525.878C246.254 525.878 245.368 525.457 244.654 524.614C243.95 523.75 243.598 522.753 243.598 521.622C243.598 520.491 243.928 519.494 244.59 518.63C245.358 517.638 246.339 517.142 247.534 517.142C248.131 517.142 248.696 517.286 249.23 517.574C249.39 517.67 249.544 517.777 249.694 517.894C249.854 518.011 250.008 518.145 250.158 518.294ZM250.158 521.75V519.398C249.976 519.195 249.79 519.025 249.598 518.886C249.416 518.747 249.235 518.625 249.054 518.518C248.84 518.401 248.622 518.315 248.398 518.262C248.174 518.209 247.944 518.182 247.71 518.182C246.91 518.182 246.248 518.465 245.726 519.03C245.139 519.67 244.846 520.513 244.846 521.558C244.846 522.507 245.091 523.291 245.582 523.91C246.062 524.518 246.686 524.822 247.454 524.822C248.211 524.822 248.851 524.529 249.374 523.942C249.896 523.377 250.158 522.646 250.158 521.75ZM260.246 520.166V525.894H259.094V520.246C259.094 519.649 258.875 519.158 258.438 518.774C258.001 518.379 257.478 518.182 256.87 518.182C256.059 518.182 255.361 518.518 254.774 519.19C254.187 519.873 253.894 520.641 253.894 521.494V525.894H252.806V517.334H253.814L253.862 518.934C254.15 518.497 254.486 518.134 254.87 517.846C255.499 517.377 256.209 517.142 256.998 517.142C257.915 517.142 258.683 517.419 259.302 517.974C259.931 518.518 260.246 519.249 260.246 520.166ZM268.399 520.358V524.39C268.399 524.571 268.437 524.731 268.511 524.87C268.597 524.998 268.746 525.062 268.959 525.062C269.023 525.062 269.077 525.062 269.119 525.062C269.162 525.051 269.205 525.041 269.247 525.03C269.311 525.009 269.365 524.987 269.407 524.966C269.461 524.945 269.503 524.929 269.535 524.918V525.814C269.343 525.878 269.151 525.921 268.959 525.942C268.767 525.974 268.618 525.99 268.511 525.99C267.967 525.99 267.61 525.846 267.439 525.558C267.301 525.377 267.231 524.987 267.231 524.39C267.093 524.625 266.954 524.833 266.815 525.014C266.677 525.185 266.538 525.329 266.399 525.446C265.845 525.883 265.199 526.102 264.463 526.102C263.685 526.102 263.007 525.873 262.431 525.414C261.834 524.923 261.535 524.299 261.535 523.542C261.535 522.593 262.015 521.894 262.975 521.446C263.327 521.275 263.791 521.126 264.367 520.998C264.954 520.87 265.653 520.753 266.463 520.646L267.231 520.566C267.231 519.819 267.039 519.238 266.655 518.822C266.282 518.395 265.727 518.182 264.991 518.182C264.714 518.182 264.437 518.219 264.159 518.294C263.893 518.358 263.621 518.465 263.343 518.614C263.194 518.699 263.029 518.801 262.847 518.918C262.666 519.035 262.469 519.185 262.255 519.366V518.054C263.162 517.446 264.138 517.142 265.183 517.142C266.25 517.142 267.071 517.478 267.647 518.15C268.149 518.737 268.399 519.473 268.399 520.358ZM267.231 522.038V521.526L266.687 521.59C265.354 521.729 264.415 521.915 263.871 522.15C263.146 522.438 262.783 522.907 262.783 523.558C262.783 523.75 262.826 523.937 262.911 524.118C262.997 524.289 263.114 524.443 263.263 524.582C263.413 524.721 263.594 524.833 263.807 524.918C264.031 525.003 264.277 525.046 264.543 525.046C265.269 525.046 265.903 524.753 266.447 524.166C266.97 523.569 267.231 522.859 267.231 522.038ZM270.79 513.35H271.942V525.894H270.79V513.35ZM278.427 525.158V523.766C279.089 524.299 279.761 524.673 280.443 524.886C280.646 524.939 280.843 524.982 281.035 525.014C281.227 525.035 281.425 525.046 281.627 525.046C282.278 525.046 282.817 524.897 283.243 524.598C283.681 524.278 283.899 523.921 283.899 523.526C283.899 523.313 283.819 523.094 283.659 522.87C283.435 522.593 282.838 522.342 281.867 522.118C280.715 521.83 279.947 521.59 279.563 521.398C278.817 520.971 278.443 520.374 278.443 519.606C278.443 518.891 278.753 518.305 279.371 517.846C280.001 517.377 280.785 517.142 281.723 517.142C282.15 517.142 282.534 517.179 282.875 517.254C283.217 517.329 283.537 517.43 283.835 517.558C284.134 517.675 284.411 517.825 284.667 518.006V519.398C284.219 519.025 283.75 518.731 283.259 518.518C282.769 518.294 282.251 518.182 281.707 518.182C281.163 518.182 280.694 518.305 280.299 518.55C279.894 518.795 279.691 519.115 279.691 519.51C279.691 520.033 280.171 520.449 281.131 520.758C281.579 520.886 282.022 521.014 282.459 521.142C282.897 521.27 283.339 521.398 283.787 521.526C284.758 521.942 285.243 522.571 285.243 523.414C285.243 524.129 284.907 524.758 284.235 525.302C283.553 525.835 282.705 526.102 281.691 526.102C281.243 526.102 280.806 526.054 280.379 525.958C279.697 525.809 279.046 525.542 278.427 525.158ZM287.533 514.806H288.589V517.318H290.845V518.358H288.589V523.798C288.589 524.246 288.669 524.566 288.829 524.758C288.999 524.95 289.287 525.046 289.693 525.046C289.927 525.046 290.125 525.019 290.285 524.966C290.455 524.913 290.642 524.843 290.845 524.758V525.798C290.674 525.851 290.466 525.899 290.221 525.942C289.986 525.995 289.746 526.022 289.501 526.022C288.861 526.022 288.365 525.878 288.013 525.59C287.618 525.291 287.421 524.811 287.421 524.15V518.358H285.981V517.318H287.421L287.533 514.806ZM296.585 517.334V518.486C296.468 518.443 296.372 518.411 296.297 518.39C296.223 518.358 296.159 518.337 296.105 518.326C296.052 518.315 295.993 518.31 295.929 518.31C295.876 518.299 295.801 518.294 295.705 518.294C294.927 518.294 294.287 518.673 293.785 519.43C293.359 520.123 293.145 520.897 293.145 521.75V525.894H291.993V517.334H293.049L293.129 518.806C293.396 518.358 293.647 518.038 293.881 517.846C294.361 517.451 294.937 517.254 295.609 517.254C295.791 517.254 295.956 517.259 296.105 517.27C296.265 517.281 296.425 517.302 296.585 517.334ZM305.138 521.27H298.626C298.626 522.497 298.909 523.435 299.474 524.086C300.05 524.726 300.802 525.046 301.73 525.046C302.434 525.046 303.112 524.822 303.762 524.374C303.944 524.257 304.136 524.113 304.338 523.942C304.541 523.761 304.76 523.553 304.994 523.318V524.71C304.738 524.902 304.498 525.073 304.274 525.222C304.061 525.361 303.858 525.478 303.666 525.574C302.994 525.926 302.322 526.102 301.65 526.102C300.488 526.102 299.501 525.702 298.69 524.902C297.816 524.059 297.378 522.966 297.378 521.622C297.378 520.353 297.773 519.291 298.562 518.438C299.362 517.574 300.349 517.142 301.522 517.142C302.664 517.142 303.57 517.558 304.242 518.39C304.84 519.147 305.138 520.107 305.138 521.27ZM298.786 520.294H303.794C303.666 519.569 303.389 519.03 302.962 518.678C302.546 518.315 302.04 518.134 301.442 518.134C300.781 518.134 300.221 518.342 299.762 518.758C299.336 519.142 299.01 519.654 298.786 520.294ZM313.84 520.166V525.894H312.688V520.246C312.688 519.649 312.469 519.158 312.032 518.774C311.594 518.379 311.072 518.182 310.464 518.182C309.653 518.182 308.954 518.518 308.368 519.19C307.781 519.873 307.488 520.641 307.488 521.494V525.894H306.4V517.334H307.408L307.456 518.934C307.744 518.497 308.08 518.134 308.464 517.846C309.093 517.377 309.802 517.142 310.592 517.142C311.509 517.142 312.277 517.419 312.896 517.974C313.525 518.518 313.84 519.249 313.84 520.166ZM321.673 518.294L321.993 517.334H322.841V525.078C322.841 526.411 322.516 527.425 321.865 528.118C321.215 528.811 320.207 529.158 318.841 529.158C318.287 529.158 317.759 529.057 317.257 528.854C316.767 528.662 316.249 528.358 315.705 527.942V526.534C316.047 526.854 316.383 527.121 316.713 527.334C317.044 527.558 317.369 527.729 317.689 527.846C318.063 527.985 318.447 528.054 318.841 528.054C319.684 528.054 320.34 527.862 320.809 527.478C321.385 527.009 321.673 526.257 321.673 525.222V524.166C321.268 524.838 320.767 525.313 320.169 525.59C319.764 525.782 319.316 525.878 318.825 525.878C317.769 525.878 316.884 525.457 316.169 524.614C315.465 523.75 315.113 522.753 315.113 521.622C315.113 520.491 315.444 519.494 316.105 518.63C316.873 517.638 317.855 517.142 319.049 517.142C319.647 517.142 320.212 517.286 320.745 517.574C320.905 517.67 321.06 517.777 321.209 517.894C321.369 518.011 321.524 518.145 321.673 518.294ZM321.673 521.75V519.398C321.492 519.195 321.305 519.025 321.113 518.886C320.932 518.747 320.751 518.625 320.569 518.518C320.356 518.401 320.137 518.315 319.913 518.262C319.689 518.209 319.46 518.182 319.225 518.182C318.425 518.182 317.764 518.465 317.241 519.03C316.655 519.67 316.361 520.513 316.361 521.558C316.361 522.507 316.607 523.291 317.097 523.91C317.577 524.518 318.201 524.822 318.969 524.822C319.727 524.822 320.367 524.529 320.889 523.942C321.412 523.377 321.673 522.646 321.673 521.75ZM325.33 514.806H326.386V517.318H328.642V518.358H326.386V523.798C326.386 524.246 326.466 524.566 326.626 524.758C326.796 524.95 327.084 525.046 327.49 525.046C327.724 525.046 327.922 525.019 328.082 524.966C328.252 524.913 328.439 524.843 328.642 524.758V525.798C328.471 525.851 328.263 525.899 328.018 525.942C327.783 525.995 327.543 526.022 327.298 526.022C326.658 526.022 326.162 525.878 325.81 525.59C325.415 525.291 325.218 524.811 325.218 524.15V518.358H323.778V517.318H325.218L325.33 514.806ZM329.79 513.35H330.942V518.87C331.209 518.443 331.534 518.086 331.918 517.798C332.505 517.361 333.161 517.142 333.886 517.142C334.334 517.142 334.734 517.206 335.086 517.334C335.449 517.462 335.78 517.649 336.078 517.894C336.708 518.449 337.022 519.227 337.022 520.23V525.894H335.854V520.39C335.854 519.771 335.657 519.249 335.262 518.822C334.868 518.395 334.388 518.182 333.822 518.182C333.001 518.182 332.318 518.507 331.774 519.158C331.22 519.83 330.942 520.598 330.942 521.462V525.894H329.79V513.35ZM339.718 525.942C339.462 525.942 339.243 525.835 339.062 525.622C338.88 525.409 338.79 525.147 338.79 524.838C338.79 524.518 338.88 524.251 339.062 524.038C339.254 523.814 339.472 523.702 339.718 523.702C339.952 523.702 340.16 523.803 340.342 524.006C340.534 524.198 340.63 524.465 340.63 524.806C340.63 525.126 340.539 525.398 340.358 525.622C340.176 525.835 339.963 525.942 339.718 525.942Z" fill="#ADADBE"/>
<rect width="139" height="5" rx="2.5" transform="matrix(-1 0 0 1 264 831)" fill="black"/>
</g>
<defs>
<filter id="filter0_b_45_1242" x="-50" y="-50" width="490" height="206" filterUnits="userSpaceOnUse" color-interpolation-filters="sRGB">
<feFlood flood-opacity="0" result="BackgroundImageFix"/>
<feGaussianBlur in="BackgroundImageFix" stdDeviation="25"/>
<feComposite in2="SourceAlpha" operator="in" result="effect1_backgroundBlur_45_1242"/>
<feBlend mode="normal" in="SourceGraphic" in2="effect1_backgroundBlur_45_1242" result="shape"/>
</filter>
<filter id="filter1_d_45_1242" x="-18" y="682" width="426" height="155" filterUnits="userSpaceOnUse" color-interpolation-filters="sRGB">
<feFlood flood-opacity="0" result="BackgroundImageFix"/>
<feColorMatrix in="SourceAlpha" type="matrix" values="0 0 0 0 0 0 0 0 0 0 0 0 0 0 0 0 0 0 127 0" result="hardAlpha"/>
<feOffset dy="-4"/>
<feGaussianBlur stdDeviation="17"/>
<feComposite in2="hardAlpha" operator="out"/>
<feColorMatrix type="matrix" values="0 0 0 0 0.27451 0 0 0 0 0.498039 0 0 0 0 1 0 0 0 0.1 0"/>
<feBlend mode="normal" in2="BackgroundImageFix" result="effect1_dropShadow_45_1242"/>
<feBlend mode="normal" in="SourceGraphic" in2="effect1_dropShadow_45_1242" result="shape"/>
</filter>
<linearGradient id="paint0_linear_45_1242" x1="195" y1="358.742" x2="195" y2="489.258" gradientUnits="userSpaceOnUse">
<stop stop-color="#6FB1FC"/>
<stop offset="1" stop-color="#356AFF"/>
</linearGradient>
<clipPath id="clip0_45_1242">
<rect width="390" height="844" rx="30" fill="white"/>
</clipPath>
</defs>
</svg>
